<svg width="23" height="19" viewBox="0 0 23 19" xmlns="http://www.w3.org/2000/svg">
    <path d="M0 6.66C0 3.28 3.33 0.67 6.82 0.67C8.62 0.67 10.2 1.51 11.34 2.6C12.47 1.51 14.06 0.67 15.86 0.67C19.34 0.67 22.32 3.28 22.32 6.66C22.32 8.98 21.33 11.02 19.95 12.75C18.59 14.47 16.8 15.93 15.08 17.12C14.43 17.57 13.76 17.99 13.16 18.3C12.59 18.59 11.93 18.86 11.34 18.86C10.74 18.86 10.09 18.59 9.52 18.3C8.91 17.99 8.25 17.57 7.6 17.12C5.88 15.93 4.09 14.47 2.72 12.75C1.35 11.02 0.36 8.98 0.36 6.66Z" fill="#323142"/>
</svg>
