<svg width="39" height="112" viewBox="0 0 39 112" fill="none" xmlns="http://www.w3.org/2000/svg">
<path d="M4.96429 0.661362C4.51321 0.500025 4.01674 0.734912 3.85541 1.18599C3.69407 1.63708 3.92896 2.13354 4.38004 2.29488L4.96429 0.661362ZM25.2567 23.7072L26.1171 23.5966L25.2567 23.7072ZM10.1877 48.9993L10.2057 48.1321L10.1877 48.9993ZM1.0939 41.0324L1.96062 40.9974L1.0939 41.0324ZM8.12398 33.055L8.39512 33.8789L8.12398 33.055ZM30.5216 55.5207L31.3862 55.4503L30.5216 55.5207ZM15.0807 78.5088L15.056 77.6417L15.0807 78.5088ZM8.06486 72.7333L8.91134 72.5438L8.06486 72.7333ZM37.1786 90.4497L36.3162 90.356L37.1786 90.4497ZM23.7953 110.666L22.9565 110.445C22.8759 110.751 22.9683 111.076 23.1977 111.294C23.4271 111.512 23.7571 111.588 24.0586 111.492L23.7953 110.666ZM26.6715 103.151C26.7935 102.688 26.5168 102.213 26.0536 102.091C25.5903 101.969 25.1158 102.246 24.9938 102.709L26.6715 103.151ZM32.0623 108.942C32.5188 108.797 32.7709 108.309 32.6255 107.853C32.4801 107.396 31.9922 107.144 31.5357 107.289L32.0623 108.942ZM4.67216 1.47812C4.38004 2.29488 4.37983 2.29481 4.37969 2.29475C4.37973 2.29477 4.37966 2.29474 4.37975 2.29478C4.37994 2.29485 4.3804 2.29501 4.38115 2.29528C4.38264 2.29582 4.38524 2.29676 4.38894 2.2981C4.39633 2.3008 4.40811 2.30511 4.42414 2.31105C4.4562 2.32293 4.50525 2.34131 4.57022 2.36628C4.70019 2.41622 4.89379 2.49244 5.14249 2.5955C5.64001 2.80166 6.35729 3.11488 7.22615 3.53945C8.96562 4.38945 11.3034 5.68123 13.699 7.44734C18.507 10.992 23.4387 16.3632 24.3964 23.8177L26.1171 23.5966C25.0729 15.4684 19.7123 9.72516 14.7285 6.05094C12.2281 4.20762 9.79516 2.86389 7.98782 1.98074C7.08328 1.53874 6.33315 1.21097 5.80661 0.992788C5.54328 0.88367 5.33569 0.801883 5.19247 0.746855C5.12085 0.719337 5.06532 0.698501 5.02693 0.684278C5.00774 0.677166 4.99283 0.671708 4.98235 0.667892C4.97711 0.665983 4.97297 0.664486 4.96995 0.663398C4.96845 0.662855 4.96722 0.662414 4.96628 0.662073C4.9658 0.661903 4.96531 0.661726 4.96507 0.661642C4.96465 0.66149 4.96429 0.661362 4.67216 1.47812ZM24.3964 23.8177C25.1443 29.6393 23.8978 35.8261 21.2738 40.5089C18.643 45.2036 14.7362 48.2262 10.2057 48.1321L10.1697 49.8665C15.5854 49.9791 19.9844 46.3586 22.7872 41.357C25.5967 36.3434 26.9116 29.7808 26.1171 23.5966L24.3964 23.8177ZM10.2057 48.1321C8.87798 48.1045 6.82399 47.4953 5.0843 46.2608C3.36113 45.0379 2.05305 43.2833 1.96062 40.9974L0.227181 41.0675C0.347799 44.0507 2.06874 46.2481 4.08028 47.6756C6.0753 49.0913 8.4617 49.8311 10.1697 49.8665L10.2057 48.1321ZM1.96062 40.9974C1.87323 38.8358 2.76951 37.3157 4.0352 36.1964C5.32923 35.052 7.00541 34.3362 8.39512 33.8789L7.85284 32.231C6.37974 32.7158 4.44112 33.5215 2.88594 34.8968C1.30243 36.2971 0.115075 38.2947 0.227181 41.0675L1.96062 40.9974ZM8.39512 33.8789C13.9347 32.056 18.9372 34.3128 22.7674 38.6846C26.6109 43.0714 29.1601 49.4894 29.6571 55.5912L31.3862 55.4503C30.8622 49.017 28.1859 42.2365 24.0723 37.5414C19.9456 32.8312 14.2597 30.1227 7.85284 32.231L8.39512 33.8789ZM29.6571 55.5912C30.0833 60.8245 28.9539 66.3091 26.4405 70.4949C23.9376 74.6633 20.1008 77.498 15.056 77.6417L15.1054 79.3759C20.8708 79.2117 25.1935 75.9418 27.9279 71.3879C30.6519 66.8514 31.8378 60.9958 31.3862 55.4503L29.6571 55.5912ZM15.056 77.6417C13.4738 77.6868 12.1493 77.2686 11.1285 76.4501C10.1058 75.63 9.31561 74.3498 8.91134 72.5438L7.21838 72.9228C7.69063 75.0324 8.65427 76.6899 10.0432 77.8036C11.4342 78.9189 13.1793 79.4307 15.1054 79.3759L15.056 77.6417ZM8.91134 72.5438C8.54165 70.8924 8.91266 69.576 9.75031 68.4797C10.6143 67.3489 12.0097 66.4117 13.7338 65.6644L13.0439 64.0726C11.1801 64.8804 9.48638 65.9676 8.37177 67.4264C7.23084 68.9197 6.7338 70.7582 7.21838 72.9228L8.91134 72.5438ZM13.7338 65.6644C19.508 63.1617 25.3993 66.1529 29.8382 71.5904C34.2665 77.0149 36.9465 84.5528 36.3162 90.356L38.0409 90.5433C38.7333 84.168 35.8257 76.1815 31.1821 70.4933C26.5492 64.818 19.8842 61.1079 13.0439 64.0726L13.7338 65.6644ZM36.3162 90.356C35.827 94.8607 32.6343 99.7434 29.4313 103.587C27.8467 105.488 26.2923 107.097 25.1337 108.231C24.5549 108.798 24.076 109.244 23.7429 109.548C23.5764 109.701 23.4464 109.817 23.3587 109.895C23.3149 109.933 23.2817 109.963 23.2597 109.982C23.2487 109.991 23.2406 109.999 23.2353 110.003C23.2327 110.005 23.2308 110.007 23.2297 110.008C23.2291 110.008 23.2287 110.009 23.2285 110.009C23.2284 110.009 23.2284 110.009 23.2284 110.009C23.2284 110.009 23.2285 110.009 23.7953 110.666C24.3621 111.322 24.3623 111.322 24.3625 111.322C24.3627 111.322 24.3629 111.322 24.3632 111.321C24.3638 111.321 24.3645 111.32 24.3654 111.319C24.3673 111.318 24.3698 111.316 24.3732 111.313C24.3798 111.307 24.3894 111.299 24.4018 111.288C24.4266 111.266 24.4628 111.234 24.5097 111.193C24.6033 111.11 24.7396 110.988 24.9127 110.83C25.2588 110.514 25.7524 110.053 26.3471 109.471C27.5357 108.308 29.1325 106.655 30.764 104.698C33.9931 100.823 37.492 95.5974 38.0409 90.5433L36.3162 90.356ZM24.6341 110.887L26.6715 103.151L24.9938 102.709L22.9565 110.445L24.6341 110.887ZM24.0586 111.492L32.0623 108.942L31.5357 107.289L23.532 109.839L24.0586 111.492Z" fill="#6C5FBC"/>
</svg>
