<svg width="1440" height="229" viewBox="0 0 1440 229" fill="none" xmlns="http://www.w3.org/2000/svg">
<rect width="1440" height="220.5" fill="#5C4EAE"/>
<mask id="mask0_1_16794" style="mask-type:alpha" maskUnits="userSpaceOnUse" x="0" y="0" width="1440" height="221">
<rect width="1440" height="220.5" fill="#201F1F"/>
</mask>
<g mask="url(#mask0_1_16794)">
<path opacity="0.2" d="M1562.55 -80.8457C1539.07 -78.6538 1513.57 -78.31 1490.69 -73.184C1468.3 -68.168 1444.73 -59.0682 1425.03 -49.4574C1388.74 -31.7464 1370.15 -6.95201 1353.28 22.6288C1325.45 71.4457 1315.37 122.077 1314.94 175.122C1314.65 210.238 1316 244.996 1319.66 279.997C1320.78 290.683 1320.22 302.899 1328.07 312.127" stroke="#A596FF" stroke-width="4.44874" stroke-linecap="round"/>
<path opacity="0.2" d="M1610 -55.6357C1585.82 -53.3776 1559.56 -53.0235 1535.99 -47.7427C1512.94 -42.5754 1488.65 -33.2008 1468.37 -23.2998C1430.99 -5.05417 1411.84 20.4887 1394.47 50.9625C1365.8 101.253 1355.43 153.413 1354.98 208.059C1354.68 244.235 1356.07 280.042 1359.85 316.1C1361 327.109 1360.42 339.694 1368.5 349.2" stroke="#A596FF" stroke-width="4.44874" stroke-linecap="round"/>
<path opacity="0.2" d="M369.68 577.878C375.051 546.413 382.885 516.817 380.878 482.89C379.444 458.658 373.443 434.809 361.905 412.054C340.393 369.626 312.272 329.18 278.84 296.952C244.679 264.021 211.142 228.189 172.566 202.9C136.7 179.387 98.446 159.962 63.4785 134.41C4.88972 91.5978 -36.5779 23.2802 -71.7742 -42.2882C-90.3944 -76.9764 -108.862 -111.901 -126.689 -147.001C-137.875 -169.027 -147.273 -192.647 -161.028 -213.115" stroke="#A596FF" stroke-width="4.01667" stroke-linecap="round"/>
<path opacity="0.2" d="M413.339 566.599C419.133 532.605 427.588 500.632 425.414 463.976C423.86 437.796 417.373 412.029 404.906 387.441C381.661 341.599 351.279 297.895 315.162 263.069C278.257 227.483 242.026 188.763 200.354 161.432C161.609 136.022 120.287 115.027 82.5125 87.4136C19.2209 41.1472 -25.5832 -32.6716 -63.6131 -103.519C-83.7324 -141 -103.687 -178.736 -122.949 -216.661C-135.037 -240.461 -145.192 -265.981 -160.053 -288.098" stroke="#A596FF" stroke-width="4.01667" stroke-linecap="round"/>
</g>
</svg>
