<svg width="710" height="748" viewBox="0 0 710 748" fill="none" xmlns="http://www.w3.org/2000/svg">
<rect width="710" height="748" fill="#5C4EAE"/>
<mask id="mask0_1_5467" style="mask-type:alpha" maskUnits="userSpaceOnUse" x="0" y="0" width="710" height="748">
<rect width="710" height="748" fill="#201F1F"/>
</mask>
<g mask="url(#mask0_1_5467)">
<path opacity="0.2" d="M762.541 516.999C735.217 526.057 704.285 534.58 679.503 545.335C655.254 555.859 632.069 569.404 613.937 582.016C580.524 605.258 573.103 627.304 570.738 651.876C566.835 692.428 585.737 728.37 617.902 762.729C639.196 785.475 662.269 807.457 688.32 828.842C696.274 835.371 703.12 843.434 718.389 846.832" stroke="#A596FF" stroke-width="3.21454" stroke-linecap="round"/>
<path opacity="0.2" d="M836.039 517.814C807.897 527.143 776.039 535.922 750.515 546.999C725.54 557.839 701.663 571.791 682.99 584.782C648.579 608.723 640.94 631.433 638.508 656.746C634.496 698.519 653.972 735.546 687.108 770.942C709.044 794.375 732.814 817.021 759.65 839.051C767.844 845.778 774.897 854.083 790.624 857.585" stroke="#A596FF" stroke-width="3.21454" stroke-linecap="round"/>
<path opacity="0.2" d="M1389.49 -169.034C1333.9 -181.563 1282.84 -196.055 1219.48 -201.98C1174.22 -206.212 1127.66 -205.911 1080.69 -199.972C993.095 -188.898 906.248 -170.936 832.202 -145.9C756.539 -120.318 675.808 -96.0168 612.279 -64.3662C553.212 -34.939 500.623 -2.24061 438.196 25.839C333.599 72.887 189.557 97.36 53.3345 116.371C-18.7323 126.429 -91.1672 136.284 -163.643 145.474C-209.124 151.241 -256.753 154.898 -300.494 163.525" stroke="#A596FF" stroke-width="4.01667" stroke-linecap="round"/>
<path opacity="0.2" d="M1387.91 -214.12C1327.85 -227.648 1272.69 -243.296 1204.23 -249.691C1155.33 -254.258 1105.03 -253.931 1054.26 -247.513C959.623 -235.547 865.782 -216.141 785.771 -189.097C704.012 -161.462 616.779 -135.211 548.13 -101.023C484.303 -69.2369 427.474 -33.918 360.016 -3.58694C246.99 47.2334 91.3508 73.6745 -55.8383 94.2165C-133.707 105.084 -211.974 115.732 -290.284 125.662C-339.426 131.894 -390.889 135.847 -438.152 145.167" stroke="#A596FF" stroke-width="4.01667" stroke-linecap="round"/>
</g>
</svg>
