<svg width="209" height="206" viewBox="0 0 209 206" fill="none" xmlns="http://www.w3.org/2000/svg">
<rect x="1.13892" y="0.228763" width="206.709" height="205.202" rx="16.6204" fill="white" stroke="#EDF2F7" stroke-width="0.277838"/>
<path d="M83.876 184.147V184.619H80.6136V184.281L82.6356 181.152H83.1038L82.6014 182.057L81.2648 184.147H83.876ZM83.2465 181.152V185.667H82.6728V181.152H83.2465ZM85.7678 185.667H84.825L84.8312 185.18H85.7678C86.0903 185.18 86.359 185.113 86.5741 184.979C86.7891 184.842 86.9503 184.652 87.0578 184.408C87.1674 184.162 87.2222 183.875 87.2222 183.546V183.27C87.2222 183.011 87.1912 182.782 87.1292 182.581C87.0671 182.379 86.9762 182.208 86.8563 182.07C86.7364 181.929 86.5896 181.823 86.4159 181.75C86.2443 181.678 86.0469 181.642 85.8236 181.642H84.8064V181.152H85.8236C86.1192 181.152 86.389 181.201 86.633 181.301C86.8769 181.398 87.0868 181.539 87.2625 181.725C87.4403 181.909 87.5768 182.133 87.6719 182.395C87.767 182.656 87.8145 182.949 87.8145 183.276V183.546C87.8145 183.872 87.767 184.167 87.6719 184.43C87.5768 184.69 87.4393 184.912 87.2594 185.096C87.0816 185.28 86.8666 185.422 86.6144 185.521C86.3642 185.618 86.082 185.667 85.7678 185.667ZM85.1444 181.152V185.667H84.5459V181.152H85.1444Z" fill="#828282"/>
<path d="M115.52 184.199L115.061 184.081L115.287 181.832H117.604V182.363H115.774L115.638 183.591C115.72 183.543 115.825 183.499 115.951 183.457C116.079 183.416 116.226 183.395 116.391 183.395C116.6 183.395 116.787 183.432 116.953 183.504C117.118 183.574 117.259 183.675 117.374 183.808C117.492 183.94 117.582 184.099 117.644 184.285C117.706 184.471 117.737 184.679 117.737 184.909C117.737 185.126 117.707 185.325 117.647 185.507C117.589 185.689 117.502 185.848 117.384 185.985C117.266 186.119 117.117 186.224 116.937 186.298C116.759 186.372 116.549 186.41 116.308 186.41C116.126 186.41 115.953 186.385 115.79 186.335C115.628 186.284 115.484 186.206 115.356 186.103C115.229 185.997 115.126 185.867 115.045 185.712C114.967 185.555 114.917 185.371 114.897 185.16H115.442C115.467 185.329 115.517 185.472 115.591 185.588C115.666 185.704 115.763 185.792 115.883 185.851C116.005 185.909 116.146 185.938 116.308 185.938C116.444 185.938 116.565 185.915 116.67 185.867C116.776 185.819 116.865 185.751 116.937 185.662C117.009 185.573 117.064 185.466 117.101 185.34C117.141 185.214 117.16 185.072 117.16 184.915C117.16 184.772 117.141 184.64 117.101 184.518C117.062 184.396 117.003 184.29 116.925 184.199C116.848 184.108 116.754 184.037 116.642 183.988C116.531 183.936 116.403 183.91 116.258 183.91C116.066 183.91 115.92 183.936 115.821 183.988C115.724 184.039 115.623 184.11 115.52 184.199ZM119.737 186.348H118.795L118.801 185.861H119.737C120.06 185.861 120.329 185.794 120.544 185.659C120.759 185.523 120.92 185.333 121.028 185.089C121.137 184.843 121.192 184.555 121.192 184.226V183.95C121.192 183.692 121.161 183.463 121.099 183.262C121.037 183.059 120.946 182.889 120.826 182.75C120.706 182.61 120.559 182.503 120.386 182.431C120.214 182.358 120.017 182.322 119.793 182.322H118.776V181.832H119.793C120.089 181.832 120.359 181.882 120.603 181.981C120.847 182.078 121.057 182.22 121.232 182.406C121.41 182.59 121.547 182.813 121.642 183.076C121.737 183.336 121.784 183.63 121.784 183.957V184.226C121.784 184.553 121.737 184.848 121.642 185.11C121.547 185.371 121.409 185.593 121.229 185.777C121.051 185.961 120.836 186.103 120.584 186.202C120.334 186.299 120.052 186.348 119.737 186.348ZM119.114 181.832V186.348H118.516V181.832H119.114Z" fill="#828282"/>
<path d="M150.967 181.826H151.016V182.313H150.967C150.663 182.313 150.409 182.363 150.204 182.462C149.999 182.559 149.837 182.69 149.717 182.856C149.597 183.019 149.51 183.203 149.456 183.408C149.405 183.612 149.379 183.82 149.379 184.031V184.695C149.379 184.895 149.403 185.073 149.45 185.228C149.498 185.381 149.563 185.51 149.646 185.616C149.728 185.721 149.821 185.801 149.925 185.855C150.03 185.908 150.14 185.935 150.253 185.935C150.386 185.935 150.504 185.91 150.607 185.861C150.71 185.809 150.797 185.738 150.867 185.647C150.94 185.554 150.995 185.444 151.032 185.318C151.069 185.192 151.088 185.053 151.088 184.903C151.088 184.768 151.071 184.639 151.038 184.515C151.005 184.389 150.954 184.277 150.886 184.18C150.818 184.081 150.732 184.003 150.629 183.947C150.527 183.889 150.406 183.861 150.266 183.861C150.107 183.861 149.958 183.9 149.819 183.978C149.683 184.055 149.57 184.156 149.481 184.282C149.394 184.406 149.345 184.542 149.332 184.689L149.028 184.685C149.057 184.454 149.111 184.256 149.19 184.093C149.27 183.928 149.37 183.793 149.487 183.69C149.607 183.585 149.741 183.508 149.888 183.46C150.036 183.411 150.194 183.386 150.359 183.386C150.584 183.386 150.779 183.428 150.942 183.513C151.105 183.598 151.24 183.712 151.345 183.854C151.451 183.995 151.528 184.154 151.578 184.332C151.629 184.508 151.655 184.689 151.655 184.875C151.655 185.088 151.625 185.287 151.565 185.473C151.505 185.659 151.415 185.823 151.295 185.963C151.178 186.104 151.032 186.213 150.858 186.292C150.685 186.37 150.483 186.41 150.253 186.41C150.01 186.41 149.797 186.36 149.615 186.261C149.433 186.16 149.282 186.025 149.162 185.858C149.042 185.69 148.952 185.504 148.892 185.299C148.832 185.095 148.802 184.887 148.802 184.676V184.406C148.802 184.088 148.834 183.776 148.898 183.47C148.962 183.164 149.073 182.887 149.23 182.639C149.389 182.391 149.609 182.193 149.891 182.046C150.172 181.9 150.53 181.826 150.967 181.826ZM153.708 186.348H152.765L152.772 185.861H153.708C154.031 185.861 154.299 185.794 154.514 185.659C154.73 185.523 154.891 185.333 154.998 185.089C155.108 184.843 155.163 184.555 155.163 184.226V183.95C155.163 183.692 155.132 183.463 155.07 183.262C155.008 183.059 154.917 182.889 154.797 182.75C154.677 182.61 154.53 182.503 154.356 182.431C154.185 182.358 153.987 182.322 153.764 182.322H152.747V181.832H153.764C154.06 181.832 154.329 181.882 154.573 181.981C154.817 182.078 155.027 182.22 155.203 182.406C155.381 182.59 155.517 182.813 155.612 183.076C155.707 183.336 155.755 183.63 155.755 183.957V184.226C155.755 184.553 155.707 184.848 155.612 185.11C155.517 185.371 155.38 185.593 155.2 185.777C155.022 185.961 154.807 186.103 154.555 186.202C154.305 186.299 154.022 186.348 153.708 186.348ZM153.085 181.832V186.348H152.486V181.832H153.085Z" fill="#828282"/>
<path d="M183.089 181.832V182.155L181.219 186.348H180.615L182.482 182.304H180.038V181.832H183.089ZM185.114 186.348H184.172L184.178 185.861H185.114C185.437 185.861 185.706 185.794 185.921 185.659C186.136 185.523 186.297 185.333 186.405 185.089C186.514 184.843 186.569 184.555 186.569 184.226V183.95C186.569 183.692 186.538 183.463 186.476 183.262C186.414 183.059 186.323 182.889 186.203 182.75C186.083 182.61 185.936 182.503 185.763 182.431C185.591 182.358 185.394 182.322 185.17 182.322H184.153V181.832H185.17C185.466 181.832 185.736 181.882 185.98 181.981C186.224 182.078 186.433 182.22 186.609 182.406C186.787 182.59 186.923 182.813 187.019 183.076C187.114 183.336 187.161 183.63 187.161 183.957V184.226C187.161 184.553 187.114 184.848 187.019 185.11C186.923 185.371 186.786 185.593 186.606 185.777C186.428 185.961 186.213 186.103 185.961 186.202C185.711 186.299 185.429 186.348 185.114 186.348ZM184.491 181.832V186.348H183.893V181.832H184.491Z" fill="#828282"/>
<rect x="30.2422" y="174.903" width="27.7739" height="19.6592" rx="9.82962" fill="#E7E7E7" fill-opacity="0.92"/>
<path d="M42.8471 185.955V186.652H39.7584V186.057L41.219 184.491C41.3658 184.327 41.4816 184.184 41.5664 184.06C41.6511 183.934 41.7121 183.821 41.7493 183.722C41.7886 183.62 41.8082 183.524 41.8082 183.433C41.8082 183.297 41.7855 183.18 41.74 183.083C41.6945 182.984 41.6273 182.907 41.5384 182.853C41.4516 182.8 41.3441 182.773 41.2159 182.773C41.0795 182.773 40.9616 182.806 40.8624 182.872C40.7652 182.938 40.6908 183.03 40.6391 183.148C40.5895 183.266 40.5647 183.399 40.5647 183.548H39.6684C39.6684 183.279 39.7325 183.033 39.8607 182.81C39.9889 182.585 40.1698 182.406 40.4034 182.273C40.637 182.139 40.9141 182.072 41.2345 182.072C41.5508 182.072 41.8175 182.124 42.0346 182.227C42.2538 182.328 42.4192 182.475 42.5308 182.667C42.6445 182.858 42.7014 183.085 42.7014 183.35C42.7014 183.498 42.6776 183.644 42.6301 183.787C42.5825 183.927 42.5143 184.068 42.4254 184.209C42.3385 184.347 42.2331 184.488 42.1091 184.63C41.985 184.773 41.8475 184.921 41.6966 185.074L40.912 185.955H42.8471ZM44.8846 186.652H43.9015L43.9077 185.927H44.8846C45.1286 185.927 45.3343 185.872 45.5018 185.762C45.6692 185.651 45.7953 185.488 45.8801 185.275C45.9669 185.062 46.0103 184.805 46.0103 184.503V184.283C46.0103 184.051 45.9855 183.848 45.9359 183.672C45.8884 183.496 45.817 183.349 45.7219 183.229C45.6268 183.109 45.51 183.019 45.3715 182.959C45.233 182.897 45.0738 182.866 44.8939 182.866H43.8829V182.137H44.8939C45.1958 182.137 45.4718 182.189 45.7219 182.292C45.9742 182.393 46.1923 182.539 46.3763 182.729C46.5603 182.92 46.7019 183.147 46.8012 183.412C46.9025 183.674 46.9531 183.967 46.9531 184.289V184.503C46.9531 184.824 46.9025 185.116 46.8012 185.381C46.7019 185.645 46.5603 185.873 46.3763 186.063C46.1944 186.251 45.9762 186.397 45.7219 186.5C45.4697 186.602 45.1906 186.652 44.8846 186.652ZM44.4287 182.137V186.652H43.4984V182.137H44.4287Z" fill="#151515"/>
<path d="M1.07422 144.672C12.1442 144.672 13.2155 159.085 24.9997 159.085C36.7839 159.085 33.9271 118.121 44.9972 118.121C56.0672 118.121 49.9965 83.6056 65.3517 83.6056C80.7069 83.6056 73.5649 118.121 87.4917 118.121C101.418 118.121 99.2759 77.8297 108.203 77.8297C117.131 77.8297 114.631 101.812 125.344 101.812C136.057 101.812 131.058 62.2559 142.485 62.2559C153.912 62.2559 152.84 79.5225 163.196 79.5225C173.552 79.5225 174.623 99.5359 188.907 99.5359C203.191 99.5359 194.264 121.843 207.833 121.843" stroke="#6C5FBC" stroke-width="1.98779" stroke-linecap="round" stroke-linejoin="round"/>
<path d="M173.172 83.2441C174.992 83.2441 176.583 84.8346 176.583 86.9434C176.583 89.052 174.992 90.6426 173.172 90.6426C171.352 90.6423 169.762 89.0518 169.762 86.9434C169.762 84.8348 171.352 83.2444 173.172 83.2441Z" fill="#C5BFED" stroke="#6C5FBC" stroke-width="2.22012"/>
<rect x="172.556" y="65.0459" width="25.6489" height="11.9084" rx="5.95422" fill="#6C5FBC"/>
<path d="M181.199 71.7623C181.199 71.9547 181.149 72.136 181.049 72.3062C180.953 72.4728 180.808 72.6115 180.616 72.7225C180.427 72.8298 180.203 72.8927 179.944 72.9112V73.3608H179.589V72.9057C179.219 72.8724 178.921 72.7614 178.696 72.5727C178.47 72.3803 178.353 72.1212 178.346 71.7956H179.178C179.201 72.062 179.338 72.223 179.589 72.2785V71.2184C179.323 71.1518 179.108 71.0852 178.945 71.0186C178.783 70.952 178.642 70.8447 178.524 70.6967C178.405 70.5487 178.346 70.347 178.346 70.0917C178.346 69.7698 178.461 69.5071 178.69 69.3035C178.923 69.1 179.223 68.9835 179.589 68.9539V68.5043H179.944V68.9539C180.3 68.9835 180.583 69.0908 180.794 69.2758C181.008 69.4608 181.128 69.7161 181.154 70.0417H180.316C180.305 69.9344 180.266 69.8419 180.2 69.7642C180.137 69.6828 180.052 69.6255 179.944 69.5922V70.6412C180.222 70.7115 180.44 70.7799 180.599 70.8465C180.762 70.9094 180.903 71.0149 181.021 71.1629C181.14 71.3072 181.199 71.507 181.199 71.7623ZM179.156 70.0528C179.156 70.1749 179.193 70.2748 179.267 70.3525C179.341 70.4266 179.449 70.4876 179.589 70.5357V69.5755C179.456 69.594 179.351 69.644 179.273 69.7254C179.195 69.8068 179.156 69.9159 179.156 70.0528ZM179.944 72.2896C180.085 72.2637 180.194 72.2063 180.272 72.1175C180.353 72.0287 180.394 71.9214 180.394 71.7956C180.394 71.6735 180.355 71.5755 180.277 71.5015C180.2 71.4275 180.089 71.3664 179.944 71.3183V72.2896ZM181.944 72.0898V71.4793L183.759 68.8817H184.664V71.4127H185.152V72.0898H184.664V72.8779H183.887V72.0898H181.944ZM183.937 69.7143L182.799 71.4127H183.937V69.7143ZM185.647 70.8021C185.647 70.162 185.762 69.6606 185.991 69.298C186.224 68.9354 186.609 68.7541 187.146 68.7541C187.682 68.7541 188.065 68.9354 188.294 69.298C188.528 69.6606 188.644 70.162 188.644 70.8021C188.644 71.446 188.528 71.951 188.294 72.3174C188.065 72.6837 187.682 72.8668 187.146 72.8668C186.609 72.8668 186.224 72.6837 185.991 72.3174C185.762 71.951 185.647 71.446 185.647 70.8021ZM187.878 70.8021C187.878 70.5283 187.86 70.2989 187.823 70.1139C187.789 69.9252 187.719 69.7716 187.612 69.6532C187.508 69.5348 187.353 69.4756 187.146 69.4756C186.938 69.4756 186.781 69.5348 186.674 69.6532C186.57 69.7716 186.5 69.9252 186.463 70.1139C186.43 70.2989 186.413 70.5283 186.413 70.8021C186.413 71.0833 186.43 71.3201 186.463 71.5126C186.496 71.7013 186.566 71.8548 186.674 71.9732C186.781 72.0879 186.938 72.1453 187.146 72.1453C187.353 72.1453 187.51 72.0879 187.617 71.9732C187.725 71.8548 187.795 71.7013 187.828 71.5126C187.862 71.3201 187.878 71.0833 187.878 70.8021ZM190.134 71.7401C190.164 71.9029 190.23 72.0287 190.334 72.1175C190.441 72.2026 190.584 72.2452 190.761 72.2452C190.991 72.2452 191.157 72.1508 191.261 71.9621C191.365 71.7697 191.416 71.4478 191.416 70.9964C191.331 71.1148 191.211 71.2073 191.056 71.2739C190.904 71.3405 190.739 71.3738 190.562 71.3738C190.325 71.3738 190.11 71.3257 189.918 71.2295C189.729 71.1296 189.579 70.9834 189.468 70.791C189.357 70.5949 189.302 70.3581 189.302 70.0806C189.302 69.6699 189.424 69.3442 189.668 69.1037C189.912 68.8595 190.245 68.7374 190.667 68.7374C191.193 68.7374 191.563 68.9058 191.777 69.2425C191.995 69.5792 192.105 70.0861 192.105 70.7633C192.105 71.2443 192.062 71.6384 191.977 71.9455C191.896 72.2526 191.753 72.4857 191.55 72.6448C191.35 72.8039 191.076 72.8835 190.728 72.8835C190.454 72.8835 190.221 72.8317 190.029 72.7281C189.836 72.6208 189.688 72.482 189.585 72.3118C189.485 72.1379 189.428 71.9473 189.413 71.7401H190.134ZM190.723 70.7411C190.915 70.7411 191.067 70.6819 191.178 70.5635C191.289 70.4451 191.344 70.2859 191.344 70.0861C191.344 69.8678 191.285 69.6995 191.167 69.5811C191.052 69.459 190.895 69.3979 190.695 69.3979C190.495 69.3979 190.336 69.4608 190.218 69.5866C190.103 69.7087 190.045 69.8715 190.045 70.075C190.045 70.2711 190.101 70.4321 190.212 70.5579C190.327 70.68 190.497 70.7411 190.723 70.7411Z" fill="white"/>
<line opacity="0.09" x1="1.32778" y1="138.766" x2="207.306" y2="138.766" stroke="#6C5FBC" stroke-width="0.585257" stroke-linecap="round"/>
<line opacity="0.09" x1="2.00943" y1="114.109" x2="207.988" y2="114.109" stroke="#6C5FBC" stroke-width="0.585257" stroke-linecap="round"/>
<line opacity="0.09" x1="1.32778" y1="88.7259" x2="207.306" y2="88.7259" stroke="#6C5FBC" stroke-width="0.585257" stroke-linecap="round"/>
<g clip-path="url(#clip0_1_16838)">
<rect x="26.873" y="13.2773" width="37.9194" height="18.2662" rx="9.13309" fill="#6C5FBC"/>
<path d="M43.1004 19.9861V24.4102H42.5186V21.1113L41.0482 24.4102H40.639L39.1622 21.1049V24.4102H38.5804V19.9861H39.207L40.8436 23.643L42.4803 19.9861H43.1004ZM43.8697 22.6456C43.8697 22.2876 43.9421 21.9744 44.0871 21.7058C44.232 21.4331 44.4301 21.2221 44.6816 21.0729C44.9373 20.9238 45.2208 20.8492 45.5319 20.8492C45.8388 20.8492 46.1052 20.9152 46.3311 21.0474C46.5569 21.1795 46.7253 21.3457 46.8361 21.546V20.9067H47.4243V24.4102H46.8361V23.7581C46.721 23.9626 46.5484 24.1331 46.3183 24.2695C46.0924 24.4016 45.8281 24.4677 45.5255 24.4677C45.2144 24.4677 44.9331 24.391 44.6816 24.2375C44.4301 24.0841 44.232 23.8689 44.0871 23.5918C43.9421 23.3148 43.8697 22.9994 43.8697 22.6456ZM46.8361 22.652C46.8361 22.3878 46.7828 22.1576 46.6763 21.9616C46.5697 21.7655 46.4248 21.6163 46.2415 21.5141C46.0625 21.4075 45.8643 21.3542 45.647 21.3542C45.4296 21.3542 45.2314 21.4054 45.0524 21.5077C44.8734 21.61 44.7306 21.7591 44.6241 21.9552C44.5175 22.1512 44.4642 22.3814 44.4642 22.6456C44.4642 22.9142 44.5175 23.1486 44.6241 23.3489C44.7306 23.5449 44.8734 23.6963 45.0524 23.8028C45.2314 23.9051 45.4296 23.9562 45.647 23.9562C45.8643 23.9562 46.0625 23.9051 46.2415 23.8028C46.4248 23.6963 46.5697 23.5449 46.6763 23.3489C46.7828 23.1486 46.8361 22.9163 46.8361 22.652ZM48.7079 20.3377C48.5971 20.3377 48.5033 20.2994 48.4266 20.2226C48.3499 20.1459 48.3115 20.0522 48.3115 19.9413C48.3115 19.8305 48.3499 19.7368 48.4266 19.66C48.5033 19.5833 48.5971 19.545 48.7079 19.545C48.8145 19.545 48.904 19.5833 48.9764 19.66C49.0531 19.7368 49.0915 19.8305 49.0915 19.9413C49.0915 20.0522 49.0531 20.1459 48.9764 20.2226C48.904 20.2994 48.8145 20.3377 48.7079 20.3377ZM48.9892 20.9067V24.4102H48.4074V20.9067H48.9892ZM51.6877 20.8428C52.1139 20.8428 52.4592 20.9728 52.7234 21.2328C52.9877 21.4885 53.1198 21.8593 53.1198 22.3452V24.4102H52.5444V22.4283C52.5444 22.0788 52.457 21.8124 52.2823 21.6291C52.1075 21.4416 51.8689 21.3478 51.5662 21.3478C51.2594 21.3478 51.0143 21.4437 50.831 21.6355C50.652 21.8273 50.5625 22.1065 50.5625 22.473V24.4102H49.9807V20.9067H50.5625V21.4054C50.6776 21.2264 50.8332 21.0878 51.0292 20.9898C51.2295 20.8918 51.449 20.8428 51.6877 20.8428Z" fill="white"/>
<path d="M83.6835 19.6368L82.2998 24.4111H81.6012L80.4915 20.5684L79.3407 24.4111L78.6489 24.418L77.3132 19.6368H77.9776L79.0188 23.6851L80.1695 19.6368H80.8682L81.9642 23.6714L83.0122 19.6368H83.6835ZM87.859 22.3904C87.859 22.5092 87.8522 22.6347 87.8385 22.7672H84.8383C84.8611 23.1371 84.9867 23.427 85.215 23.6371C85.4479 23.8426 85.7288 23.9453 86.0575 23.9453C86.327 23.9453 86.5507 23.8837 86.7288 23.7604C86.9115 23.6325 87.0394 23.4636 87.1124 23.2535H87.7837C87.6832 23.6143 87.4823 23.9088 87.1809 24.1371C86.8795 24.3609 86.5051 24.4728 86.0575 24.4728C85.7014 24.4728 85.3817 24.3929 85.0986 24.233C84.82 24.0732 84.6008 23.8472 84.441 23.5549C84.2812 23.2581 84.2012 22.9156 84.2012 22.5274C84.2012 22.1393 84.2789 21.7991 84.4341 21.5068C84.5894 21.2146 84.8063 20.9908 85.0849 20.8355C85.368 20.6757 85.6922 20.5958 86.0575 20.5958C86.4137 20.5958 86.7288 20.6734 87.0028 20.8287C87.2768 20.9839 87.4869 21.1986 87.633 21.4726C87.7837 21.742 87.859 22.0479 87.859 22.3904ZM87.2152 22.2603C87.2152 22.0228 87.1626 21.8196 87.0576 21.6507C86.9526 21.4771 86.8087 21.347 86.6261 21.2602C86.448 21.1689 86.2493 21.1232 86.0301 21.1232C85.7151 21.1232 85.4456 21.2237 85.2219 21.4246C85.0027 21.6255 84.8771 21.9041 84.8451 22.2603H87.2152ZM92.1752 22.3904C92.1752 22.5092 92.1684 22.6347 92.1547 22.7672H89.1545C89.1773 23.1371 89.3029 23.427 89.5312 23.6371C89.7641 23.8426 90.0449 23.9453 90.3737 23.9453C90.6432 23.9453 90.8669 23.8837 91.045 23.7604C91.2277 23.6325 91.3555 23.4636 91.4286 23.2535H92.0999C91.9994 23.6143 91.7985 23.9088 91.4971 24.1371C91.1957 24.3609 90.8213 24.4728 90.3737 24.4728C90.0175 24.4728 89.6979 24.3929 89.4148 24.233C89.1362 24.0732 88.917 23.8472 88.7572 23.5549C88.5973 23.2581 88.5174 22.9156 88.5174 22.5274C88.5174 22.1393 88.5951 21.7991 88.7503 21.5068C88.9056 21.2146 89.1225 20.9908 89.4011 20.8355C89.6842 20.6757 90.0084 20.5958 90.3737 20.5958C90.7299 20.5958 91.045 20.6734 91.319 20.8287C91.593 20.9839 91.8031 21.1986 91.9492 21.4726C92.0999 21.742 92.1752 22.0479 92.1752 22.3904ZM91.5313 22.2603C91.5313 22.0228 91.4788 21.8196 91.3738 21.6507C91.2688 21.4771 91.1249 21.347 90.9423 21.2602C90.7642 21.1689 90.5655 21.1232 90.3463 21.1232C90.0312 21.1232 89.7618 21.2237 89.5381 21.4246C89.3189 21.6255 89.1933 21.9041 89.1613 22.2603H91.5313ZM95.1626 24.4111L93.6898 22.7535V24.4111H93.0665V19.3423H93.6898V22.3219L95.1352 20.6574H96.0051L94.2378 22.5274L96.0119 24.4111H95.1626ZM97.2836 19.3423V24.4111H96.6603V19.3423H97.2836ZM101.648 20.6574L99.3871 26.1784H98.7432L99.483 24.37L97.9692 20.6574H98.661L99.8392 23.6988L101.004 20.6574H101.648Z" fill="#828282"/>
<path d="M125.084 19.6711V24.4111H124.46V20.8766L122.885 24.4111H122.446L120.864 20.8698V24.4111H120.241V19.6711H120.912L122.666 23.5892L124.419 19.6711H125.084ZM127.846 24.4728C127.495 24.4728 127.175 24.3929 126.887 24.233C126.604 24.0732 126.381 23.8472 126.216 23.5549C126.056 23.2581 125.976 22.9156 125.976 22.5274C125.976 22.1438 126.059 21.8059 126.223 21.5137C126.392 21.2168 126.62 20.9908 126.908 20.8355C127.196 20.6757 127.518 20.5958 127.874 20.5958C128.23 20.5958 128.552 20.6757 128.84 20.8355C129.127 20.9908 129.353 21.2146 129.518 21.5068C129.687 21.7991 129.771 22.1393 129.771 22.5274C129.771 22.9156 129.684 23.2581 129.511 23.5549C129.342 23.8472 129.111 24.0732 128.819 24.233C128.527 24.3929 128.203 24.4728 127.846 24.4728ZM127.846 23.9248C128.07 23.9248 128.28 23.8723 128.477 23.7673C128.673 23.6622 128.83 23.5047 128.949 23.2946C129.072 23.0846 129.134 22.8288 129.134 22.5274C129.134 22.226 129.075 21.9703 128.956 21.7603C128.837 21.5502 128.682 21.3949 128.49 21.2945C128.298 21.1894 128.091 21.1369 127.867 21.1369C127.639 21.1369 127.429 21.1894 127.237 21.2945C127.05 21.3949 126.899 21.5502 126.785 21.7603C126.67 21.9703 126.613 22.226 126.613 22.5274C126.613 22.8334 126.668 23.0914 126.778 23.3015C126.892 23.5115 127.043 23.6691 127.23 23.7741C127.417 23.8746 127.623 23.9248 127.846 23.9248ZM132.488 20.5889C132.945 20.5889 133.315 20.7282 133.598 21.0068C133.881 21.2808 134.022 21.6781 134.022 22.1986V24.4111H133.406V22.2877C133.406 21.9132 133.312 21.6278 133.125 21.4315C132.938 21.2305 132.682 21.1301 132.358 21.1301C132.029 21.1301 131.767 21.2328 131.57 21.4383C131.378 21.6438 131.283 21.9429 131.283 22.3356V24.4111H130.659V20.6574H131.283V21.1917C131.406 20.9999 131.573 20.8515 131.783 20.7465C131.997 20.6415 132.232 20.5889 132.488 20.5889ZM135.87 21.1712V23.3837C135.87 23.5663 135.908 23.6965 135.986 23.7741C136.064 23.8472 136.198 23.8837 136.39 23.8837H136.849V24.4111H136.287C135.94 24.4111 135.68 24.3312 135.506 24.1714C135.333 24.0116 135.246 23.749 135.246 23.3837V21.1712H134.76V20.6574H135.246V19.7122H135.87V20.6574H136.849V21.1712H135.87ZM138.296 19.3423V24.4111H137.673V19.3423H138.296ZM142.66 20.6574L140.4 26.1784H139.756L140.496 24.37L138.982 20.6574H139.674L140.852 23.6988L142.016 20.6574H142.66Z" fill="#828282"/>
<path d="M164.175 19.6368L162.62 22.6096V24.4111H161.997V22.6096L160.435 19.6368H161.127L162.305 22.0548L163.483 19.6368H164.175ZM168.326 22.3904C168.326 22.5092 168.319 22.6347 168.305 22.7672H165.305C165.328 23.1371 165.453 23.427 165.682 23.6371C165.915 23.8426 166.196 23.9453 166.524 23.9453C166.794 23.9453 167.018 23.8837 167.196 23.7604C167.378 23.6325 167.506 23.4636 167.579 23.2535H168.25C168.15 23.6143 167.949 23.9088 167.648 24.1371C167.346 24.3609 166.972 24.4728 166.524 24.4728C166.168 24.4728 165.848 24.3929 165.565 24.233C165.287 24.0732 165.068 23.8472 164.908 23.5549C164.748 23.2581 164.668 22.9156 164.668 22.5274C164.668 22.1393 164.746 21.7991 164.901 21.5068C165.056 21.2146 165.273 20.9908 165.552 20.8355C165.835 20.6757 166.159 20.5958 166.524 20.5958C166.881 20.5958 167.196 20.6734 167.47 20.8287C167.744 20.9839 167.954 21.1986 168.1 21.4726C168.25 21.742 168.326 22.0479 168.326 22.3904ZM167.682 22.2603C167.682 22.0228 167.629 21.8196 167.524 21.6507C167.419 21.4771 167.276 21.347 167.093 21.2602C166.915 21.1689 166.716 21.1232 166.497 21.1232C166.182 21.1232 165.912 21.2237 165.689 21.4246C165.469 21.6255 165.344 21.9041 165.312 22.2603H167.682ZM168.984 22.5206C168.984 22.137 169.062 21.8014 169.217 21.5137C169.372 21.2214 169.585 20.9954 169.854 20.8355C170.128 20.6757 170.432 20.5958 170.765 20.5958C171.094 20.5958 171.379 20.6666 171.621 20.8081C171.863 20.9497 172.044 21.1278 172.163 21.3424V20.6574H172.793V24.4111H172.163V23.7125C172.039 23.9316 171.854 24.1143 171.608 24.2604C171.366 24.402 171.083 24.4728 170.758 24.4728C170.425 24.4728 170.124 24.3906 169.854 24.2262C169.585 24.0618 169.372 23.8312 169.217 23.5344C169.062 23.2375 168.984 22.8996 168.984 22.5206ZM172.163 22.5274C172.163 22.2443 172.105 21.9977 171.991 21.7877C171.877 21.5776 171.722 21.4178 171.526 21.3082C171.334 21.194 171.121 21.1369 170.888 21.1369C170.656 21.1369 170.443 21.1917 170.251 21.3013C170.06 21.4109 169.907 21.5707 169.793 21.7808C169.678 21.9909 169.621 22.2375 169.621 22.5206C169.621 22.8083 169.678 23.0594 169.793 23.2741C169.907 23.4841 170.06 23.6462 170.251 23.7604C170.443 23.87 170.656 23.9248 170.888 23.9248C171.121 23.9248 171.334 23.87 171.526 23.7604C171.722 23.6462 171.877 23.4841 171.991 23.2741C172.105 23.0594 172.163 22.8106 172.163 22.5274ZM174.538 21.2671C174.648 21.0524 174.803 20.8858 175.004 20.767C175.209 20.6483 175.458 20.5889 175.75 20.5889V21.2328H175.586C174.887 21.2328 174.538 21.6118 174.538 22.3699V24.4111H173.915V20.6574H174.538V21.2671ZM177.162 19.3423V24.4111H176.538V19.3423H177.162ZM181.526 20.6574L179.265 26.1784H178.621L179.361 24.37L177.847 20.6574H178.539L179.717 23.6988L180.882 20.6574H181.526Z" fill="#828282"/>
</g>
<defs>
<clipPath id="clip0_1_16838">
<rect x="26.873" y="13.2773" width="159.389" height="18.2662" rx="9.13309" fill="white"/>
</clipPath>
</defs>
</svg>
