<svg width="758" height="251" viewBox="0 0 758 251" fill="none" xmlns="http://www.w3.org/2000/svg">
<rect width="758" height="251" rx="18.6929" fill="#5C4EAE"/>
<mask id="mask0_1_14665" style="mask-type:alpha" maskUnits="userSpaceOnUse" x="0" y="0" width="758" height="251">
<rect opacity="0.8" width="758" height="251" rx="18.6929" fill="#6C5FBC"/>
</mask>
<g mask="url(#mask0_1_14665)">
<g opacity="0.25">
<path d="M585.286 143.46C582.029 141.428 580.062 137.66 580.548 133.612C581.219 128.023 586.335 124.022 591.956 124.689C596.958 125.283 600.692 129.37 600.985 134.217C597.932 134.017 595.173 135.933 594.272 138.762C593.915 138.666 593.542 138.581 593.165 138.536C589.633 138.116 586.383 140.246 585.286 143.46Z" stroke="#151254" stroke-width="2.26737" stroke-linecap="round" stroke-linejoin="round"/>
<path d="M596.796 131.285C596.895 130.466 596.302 129.716 595.48 129.619C594.658 129.522 593.904 130.113 593.805 130.931C593.706 131.749 594.299 132.499 595.121 132.596C595.956 132.695 596.697 132.103 596.796 131.285Z" fill="#201D67"/>
<path d="M604.996 128.927C605.094 128.109 604.502 127.359 603.68 127.262C602.858 127.165 602.103 127.756 602.005 128.574C601.906 129.392 602.499 130.142 603.321 130.239C604.158 130.324 604.897 129.745 604.996 128.927Z" fill="#201D67"/>
<path d="M591.679 135.069C591.778 134.251 591.185 133.5 590.363 133.403C589.542 133.306 588.787 133.897 588.688 134.715C588.59 135.533 589.182 136.283 590.004 136.381C590.84 136.479 591.581 135.887 591.679 135.069Z" fill="#201D67"/>
<path d="M585.527 135.644C585.527 135.644 585.399 135.343 585.227 134.956C585.067 134.583 584.927 134.268 584.927 134.268C584.927 134.268 585.055 134.568 585.227 134.956C585.401 135.33 585.527 135.644 585.527 135.644Z" stroke="#151254" stroke-width="2.26737" stroke-linecap="round" stroke-linejoin="round"/>
<path d="M590.215 129.28C590.215 129.28 590.043 129.573 589.836 129.929C589.629 130.285 589.458 130.577 589.458 130.577C589.458 130.577 589.629 130.285 589.836 129.929C590.043 129.573 590.215 129.28 590.215 129.28Z" stroke="#151254" stroke-width="2.26737" stroke-linecap="round" stroke-linejoin="round"/>
<path d="M599.493 123.64C599.493 123.64 599.693 123.909 599.94 124.237C600.188 124.566 600.388 124.834 600.388 124.834C600.388 124.834 600.188 124.566 599.94 124.237C599.693 123.909 599.493 123.64 599.493 123.64Z" stroke="#151254" stroke-width="2.26737" stroke-linecap="round" stroke-linejoin="round"/>
<path d="M592.147 121.393C593.905 120.188 596.082 119.59 598.361 119.861C603.335 120.451 606.884 124.937 606.29 129.883C605.811 133.877 602.775 136.956 598.997 137.677" stroke="#151254" stroke-width="2.26737" stroke-linecap="round" stroke-linejoin="round"/>
<path d="M495.559 -9.07324L479.656 -5.35173L494.223 1.95943" stroke="#151254" stroke-width="2.26737" stroke-linecap="round" stroke-linejoin="round"/>
<path d="M494.581 4.80242C494.609 4.57454 494.62 4.37189 494.616 4.18106C494.553 2.67807 493.48 2.34744 493.703 0.497564C493.954 -1.5802 495.332 -1.41746 495.58 -3.46842C495.831 -5.54618 494.453 -5.70892 494.7 -7.75988C494.923 -9.60976 496.03 -9.66944 496.464 -11.1274C496.511 -11.2985 496.551 -11.5114 496.578 -11.7393" stroke="#151254" stroke-width="2.26737" stroke-linecap="round" stroke-linejoin="round"/>
<path d="M496.827 3.67847C496.1 3.59307 495.387 3.40034 494.755 3.09475C494.667 1.79163 493.583 1.50094 493.776 -0.0823185C493.992 -1.86684 495.378 -1.70394 495.591 -3.46163C495.808 -5.24614 494.422 -5.40903 494.635 -7.16671C494.827 -8.74997 495.938 -8.7963 496.347 -10.0275C497.032 -10.1647 497.774 -10.2 498.5 -10.1146C502.322 -9.6655 505.043 -6.21575 504.58 -2.4052C504.118 1.40534 500.649 4.12761 496.827 3.67847Z" stroke="#151254" stroke-width="2.26737" stroke-linecap="round" stroke-linejoin="round"/>
<path d="M492.681 3.17402L494.335 -10.6045" stroke="#151254" stroke-width="2.26737" stroke-linecap="round" stroke-linejoin="round"/>
<path d="M476.552 132.524L477.75 122.604L476.327 122.435L475.129 132.356L476.552 132.524Z" stroke="#151254" stroke-width="2.26737" stroke-linecap="round" stroke-linejoin="round"/>
<path d="M487.22 139.882C487.11 140.794 486.164 141.389 485.303 141.07C479.943 139.01 476.459 133.526 477.179 127.572C477.899 121.618 482.594 117.099 488.294 116.342C489.209 116.219 489.986 117.018 489.874 117.943L487.22 139.882V139.882Z" stroke="#151254" stroke-width="2.26737" stroke-linecap="round" stroke-linejoin="round"/>
<path d="M489.203 123.574C489.014 125.138 490.133 126.555 491.702 126.74C493.272 126.925 494.697 125.808 494.886 124.244C495.076 122.681 493.957 121.263 492.387 121.078C490.818 120.893 489.393 122.011 489.203 123.574Z" stroke="#151254" stroke-width="2.26737" stroke-linecap="round" stroke-linejoin="round"/>
<path d="M488.134 134.295C487.945 135.858 489.064 137.276 490.633 137.461C492.202 137.646 493.628 136.528 493.817 134.965C494.006 133.401 492.887 131.984 491.318 131.799C489.749 131.614 488.323 132.732 488.134 134.295Z" stroke="#151254" stroke-width="2.26737" stroke-linecap="round" stroke-linejoin="round"/>
<path d="M488.709 129.388C488.566 130.567 489.409 131.635 490.592 131.774C491.775 131.913 492.849 131.071 492.991 129.893C493.134 128.715 492.291 127.647 491.108 127.507C489.926 127.368 488.851 128.21 488.709 129.388Z" stroke="#151254" stroke-width="2.26737" stroke-linecap="round" stroke-linejoin="round"/>
<path d="M494.886 122.686L499.896 118.762" stroke="#151254" stroke-width="2.26737" stroke-linecap="round" stroke-linejoin="round"/>
<path d="M485.587 117.799L483.037 139.03" stroke="#151254" stroke-width="2.26737" stroke-linecap="round" stroke-linejoin="round"/>
<path d="M550.018 83.1978L552.925 59.0693C550.692 58.8051 548.674 60.3881 548.406 62.6133L546.468 78.6989C546.2 80.9241 547.785 82.9336 550.018 83.1978Z" stroke="#151254" stroke-width="2.26737" stroke-linecap="round" stroke-linejoin="round"/>
<path d="M563.602 72.5721C564.317 66.6457 560.074 61.2758 554.122 60.5721L552.775 60.4129L550.187 81.8656L551.534 82.0248C557.487 82.7285 562.887 78.4984 563.602 72.5721Z" stroke="#151254" stroke-width="2.26737" stroke-linecap="round" stroke-linejoin="round"/>
<path d="M562.599 72.4586C562.442 73.7548 563.371 74.9303 564.673 75.0842C565.975 75.2381 567.158 74.3121 567.314 73.0159C567.47 71.7197 566.542 70.5442 565.239 70.3903C563.937 70.2364 562.755 71.1624 562.599 72.4586Z" fill="#201D67"/>
<path d="M580.391 -10.7812C579.716 -7.09576 577.639 -3.57672 574.293 -0.996705C570.978 1.55971 567.012 2.70657 563.209 2.49972" stroke="#151254" stroke-width="2.26737" stroke-linecap="round" stroke-linejoin="round"/>
<path d="M562.149 3.92262L561.942 2.22601L559.839 -14.9893C559.557 -17.3067 561.816 -19.0369 564.04 -18.2019L568.751 -16.4463L569.052 -16.3291L573.147 -14.7961L573.54 -14.6542L580.409 -12.0716L582.083 -11.4379C583.692 -10.8389 584.566 -9.11749 584.1 -7.51431C582.956 -3.57176 580.642 -0.0129121 577.206 2.63792C573.799 5.27856 569.74 6.63188 565.576 6.80372C563.873 6.87334 562.357 5.60582 562.149 3.92262Z" stroke="#151254" stroke-width="2.26737" stroke-linecap="round" stroke-linejoin="round"/>
<path d="M546.404 202.724C544.363 199.777 543.364 195.974 543.876 191.969C544.383 187.991 546.286 184.53 549.003 182.104" stroke="#151254" stroke-width="2.26737" stroke-linecap="round" stroke-linejoin="round"/>
<path d="M543.38 182.092C541.28 184.77 539.882 187.967 539.43 191.479C538.905 195.595 539.761 199.575 541.666 203.024C542.439 204.422 544.213 204.998 545.714 204.331L547.288 203.632L553.704 200.727C553.704 200.727 558.269 198.666 562.575 196.723C564.655 195.784 565.01 193.077 563.238 191.698L550.083 181.439L548.785 180.429C547.499 179.433 545.608 179.592 544.506 180.796C544.103 181.197 543.735 181.644 543.38 182.092Z" stroke="#151254" stroke-width="2.26737" stroke-linecap="round" stroke-linejoin="round"/>
<path d="M551.02 187.961C551.193 187.655 551.237 187.293 551.142 186.955C551.095 186.772 551.017 186.627 550.912 186.479C550.686 186.207 550.367 186.02 550.017 185.979C549.653 185.936 549.314 186.032 549.027 186.257C548.74 186.481 548.567 186.788 548.523 187.15C548.479 187.512 548.575 187.85 548.8 188.135C549.025 188.42 549.345 188.594 549.695 188.635C550.045 188.676 550.4 188.568 550.685 188.357C550.834 188.252 550.946 188.116 551.02 187.961Z" fill="#201D67"/>
<path d="M549.064 193.085C549.237 192.779 549.281 192.417 549.186 192.079C549.138 191.91 549.061 191.751 548.956 191.603C548.73 191.331 548.411 191.144 548.061 191.103C547.697 191.06 547.358 191.156 547.071 191.381C546.784 191.605 546.611 191.912 546.567 192.274C546.523 192.636 546.619 192.974 546.844 193.259C547.069 193.544 547.376 193.716 547.739 193.759C548.089 193.8 548.444 193.692 548.729 193.481C548.865 193.375 548.975 193.252 549.064 193.085Z" fill="#201D67"/>
<path d="M549.427 198.949C549.985 198.511 550.093 197.626 549.654 197.071C549.428 196.799 549.109 196.612 548.759 196.571C548.395 196.528 548.056 196.624 547.769 196.849C547.482 197.073 547.309 197.38 547.265 197.742C547.244 197.916 547.263 198.095 547.313 198.251C547.36 198.42 547.437 198.579 547.542 198.727C547.767 199.012 548.074 199.184 548.437 199.227C548.776 199.253 549.144 199.147 549.427 198.949Z" fill="#201D67"/>
<path d="M554.592 197.155C554.775 197.109 554.921 197.031 555.071 196.926C555.629 196.488 555.736 195.602 555.298 195.047C555.178 194.911 555.055 194.801 554.888 194.713C554.734 194.627 554.564 194.566 554.402 194.547C554.227 194.526 554.047 194.546 553.891 194.596C553.721 194.644 553.562 194.72 553.413 194.825C553.126 195.05 552.952 195.356 552.908 195.718C552.887 195.893 552.907 196.072 552.956 196.227C553.004 196.396 553.08 196.555 553.185 196.704C553.41 196.989 553.717 197.161 554.081 197.204C554.242 197.223 554.422 197.203 554.592 197.155Z" fill="#201D67"/>
<path d="M555.228 191.861C555.398 191.813 555.557 191.737 555.706 191.632C556.266 191.181 556.374 190.295 555.934 189.753C555.814 189.617 555.69 189.507 555.523 189.419C555.37 189.333 555.2 189.272 555.038 189.253C554.675 189.21 554.335 189.306 554.048 189.531C553.911 189.651 553.799 189.788 553.712 189.941C553.625 190.094 553.564 190.263 553.543 190.438C553.499 190.8 553.594 191.138 553.819 191.423C553.94 191.56 554.076 191.671 554.23 191.757C554.382 191.857 554.553 191.904 554.715 191.923C554.878 191.929 555.057 191.923 555.228 191.861Z" fill="#201D67"/>
<path d="M559.041 192.816C558.755 193.04 558.581 193.347 558.537 193.709C558.516 193.883 558.535 194.062 558.585 194.218C558.633 194.387 558.709 194.546 558.814 194.694C558.934 194.831 559.071 194.942 559.224 195.028C559.378 195.114 559.548 195.175 559.709 195.194C560.073 195.237 560.414 195.127 560.699 194.916C561.108 194.583 561.313 194.022 561.157 193.5C561.111 193.318 561.033 193.173 560.928 193.024C560.702 192.753 560.383 192.565 560.033 192.524C559.858 192.504 559.678 192.523 559.521 192.573C559.35 192.634 559.191 192.711 559.041 192.816Z" fill="#201D67"/>
<path d="M383.135 139.094C381.093 136.147 380.095 132.345 380.607 128.339C381.114 124.361 383.017 120.901 385.734 118.475" stroke="#151254" stroke-width="2.26737" stroke-linecap="round" stroke-linejoin="round"/>
<path d="M380.11 118.462C378.01 121.14 376.613 124.337 376.16 127.849C375.635 131.965 376.492 135.945 378.396 139.394C379.17 140.792 380.944 141.368 382.445 140.701L384.018 140.002L390.434 137.097C390.434 137.097 395 135.036 399.305 133.093C401.386 132.154 401.741 129.447 399.968 128.068L386.814 117.809L385.515 116.799C384.229 115.804 382.339 115.962 381.237 117.166C380.833 117.567 380.465 118.014 380.11 118.462Z" stroke="#151254" stroke-width="2.26737" stroke-linecap="round" stroke-linejoin="round"/>
<path d="M387.751 124.333C387.924 124.027 387.968 123.665 387.873 123.327C387.826 123.144 387.748 122.999 387.643 122.851C387.417 122.579 387.098 122.392 386.748 122.351C386.384 122.308 386.045 122.404 385.758 122.629C385.471 122.853 385.298 123.16 385.254 123.522C385.21 123.884 385.306 124.222 385.531 124.507C385.756 124.792 386.076 124.966 386.426 125.007C386.776 125.048 387.131 124.941 387.416 124.729C387.565 124.624 387.677 124.488 387.751 124.333Z" fill="#201D67"/>
<path d="M385.796 129.457C385.969 129.151 386.013 128.789 385.917 128.451C385.87 128.282 385.793 128.123 385.688 127.975C385.462 127.703 385.143 127.516 384.793 127.475C384.429 127.432 384.09 127.528 383.803 127.753C383.516 127.977 383.343 128.284 383.299 128.646C383.255 129.008 383.351 129.346 383.576 129.631C383.801 129.916 384.108 130.088 384.471 130.131C384.821 130.172 385.176 130.065 385.461 129.853C385.597 129.747 385.707 129.624 385.796 129.457Z" fill="#201D67"/>
<path d="M386.158 135.321C386.716 134.883 386.824 133.998 386.385 133.443C386.159 133.171 385.84 132.984 385.49 132.943C385.126 132.9 384.787 132.996 384.5 133.221C384.213 133.445 384.04 133.752 383.996 134.114C383.975 134.288 383.994 134.467 384.044 134.623C384.091 134.792 384.168 134.951 384.273 135.099C384.498 135.384 384.805 135.556 385.168 135.599C385.507 135.625 385.875 135.519 386.158 135.321Z" fill="#201D67"/>
<path d="M391.323 133.528C391.506 133.482 391.652 133.404 391.801 133.299C392.359 132.861 392.467 131.975 392.028 131.42C391.908 131.284 391.785 131.174 391.618 131.086C391.465 131 391.294 130.939 391.133 130.92C390.958 130.9 390.778 130.919 390.622 130.969C390.452 131.017 390.292 131.093 390.143 131.198C389.856 131.423 389.683 131.729 389.639 132.091C389.618 132.266 389.637 132.445 389.687 132.601C389.734 132.769 389.811 132.928 389.916 133.077C390.141 133.362 390.448 133.534 390.811 133.577C390.973 133.596 391.153 133.576 391.323 133.528Z" fill="#201D67"/>
<path d="M391.958 128.234C392.128 128.186 392.288 128.11 392.437 128.005C392.997 127.554 393.104 126.668 392.664 126.126C392.544 125.99 392.421 125.88 392.254 125.792C392.1 125.706 391.93 125.645 391.769 125.626C391.405 125.583 391.066 125.679 390.779 125.904C390.641 126.024 390.529 126.161 390.443 126.314C390.356 126.467 390.294 126.636 390.273 126.811C390.229 127.173 390.325 127.511 390.55 127.796C390.67 127.933 390.807 128.044 390.96 128.13C391.112 128.23 391.284 128.277 391.445 128.296C391.609 128.302 391.787 128.296 391.958 128.234Z" fill="#201D67"/>
<path d="M395.772 129.188C395.485 129.412 395.311 129.719 395.267 130.081C395.246 130.255 395.266 130.434 395.315 130.59C395.363 130.759 395.439 130.918 395.544 131.066C395.664 131.203 395.801 131.314 395.955 131.4C396.108 131.486 396.278 131.547 396.44 131.566C396.803 131.609 397.145 131.5 397.43 131.288C397.839 130.955 398.043 130.394 397.888 129.872C397.842 129.69 397.764 129.545 397.659 129.396C397.432 129.125 397.113 128.937 396.763 128.896C396.588 128.876 396.408 128.895 396.252 128.945C396.08 129.006 395.921 129.083 395.772 129.188Z" fill="#201D67"/>
<path d="M460.9 63.44C457.644 61.4085 455.676 57.6404 456.162 53.5926C456.833 48.0035 461.949 44.0023 467.57 44.6697C472.572 45.2634 476.306 49.35 476.599 54.1972C473.546 53.9979 470.787 55.9134 469.886 58.7429C469.529 58.6461 469.156 58.561 468.779 58.5162C465.247 58.0969 461.997 60.226 460.9 63.44Z" stroke="#151254" stroke-width="2.26737" stroke-linecap="round" stroke-linejoin="round"/>
<path d="M472.412 51.265C472.51 50.4469 471.918 49.6967 471.096 49.5996C470.274 49.5025 469.519 50.0934 469.421 50.9115C469.322 51.7296 469.915 52.4798 470.737 52.5769C471.572 52.6756 472.313 52.0831 472.412 51.265Z" fill="#201D67"/>
<path d="M480.611 48.9076C480.71 48.0895 480.117 47.3393 479.296 47.2422C478.474 47.1451 477.719 47.736 477.621 48.5541C477.522 49.3721 478.115 50.1223 478.936 50.2195C479.773 50.3048 480.513 49.7257 480.611 48.9076Z" fill="#201D67"/>
<path d="M467.295 55.0482C467.393 54.2301 466.8 53.48 465.979 53.3828C465.157 53.2857 464.402 53.8766 464.304 54.6947C464.205 55.5128 464.798 56.263 465.62 56.3601C466.455 56.4588 467.196 55.8663 467.295 55.0482Z" fill="#201D67"/>
<path d="M461.142 55.6246C461.142 55.6246 461.014 55.3239 460.842 54.9364C460.681 54.564 460.541 54.2483 460.541 54.2483C460.541 54.2483 460.669 54.549 460.842 54.9364C461.016 55.3105 461.142 55.6246 461.142 55.6246Z" stroke="#151254" stroke-width="2.26737" stroke-linecap="round" stroke-linejoin="round"/>
<path d="M465.83 49.2627C465.83 49.2627 465.658 49.5549 465.451 49.911C465.245 50.2671 465.073 50.5594 465.073 50.5594C465.073 50.5594 465.245 50.2671 465.451 49.911C465.658 49.5549 465.83 49.2627 465.83 49.2627Z" stroke="#151254" stroke-width="2.26737" stroke-linecap="round" stroke-linejoin="round"/>
<path d="M475.107 43.6206C475.107 43.6206 475.308 43.889 475.555 44.2175C475.803 44.546 476.003 44.8145 476.003 44.8145C476.003 44.8145 475.803 44.546 475.555 44.2175C475.308 43.889 475.107 43.6206 475.107 43.6206Z" stroke="#151254" stroke-width="2.26737" stroke-linecap="round" stroke-linejoin="round"/>
<path d="M467.761 41.3756C469.519 40.1705 471.697 39.5726 473.975 39.843C478.949 40.4336 482.499 44.9197 481.905 49.8655C481.425 53.8596 478.389 56.9385 474.611 57.6591" stroke="#151254" stroke-width="2.26737" stroke-linecap="round" stroke-linejoin="round"/>
<path d="M500.322 248.043C500.618 247.204 500.699 246.304 500.557 245.427C500.415 244.55 500.055 243.723 499.509 243.021C499.265 242.722 498.914 242.529 498.53 242.484C498.145 242.439 497.758 242.544 497.449 242.778L495.675 244.12" stroke="#151254" stroke-width="2.26737" stroke-linecap="round" stroke-linejoin="round"/>
<path d="M488.89 256.826C487.992 256.907 487.088 256.765 486.261 256.41C485.433 256.056 484.708 255.502 484.15 254.798C484.031 254.649 483.943 254.477 483.891 254.294C483.839 254.11 483.824 253.918 483.847 253.728C483.87 253.539 483.93 253.355 484.024 253.189C484.119 253.022 484.245 252.876 484.397 252.759L486.174 251.389" stroke="#151254" stroke-width="2.26737" stroke-linecap="round" stroke-linejoin="round"/>
<path d="M486.707 244.131C485.762 244.581 484.708 244.754 483.669 244.63C482.968 244.547 482.29 244.327 481.676 243.981C481.061 243.635 480.522 243.171 480.089 242.616C480.015 242.513 479.982 242.385 479.998 242.259C480.013 242.132 480.075 242.016 480.172 241.932C480.671 241.546 481.239 241.257 481.845 241.081C482.294 240.909 482.767 240.809 483.247 240.784C483.537 240.787 483.826 240.821 484.109 240.885C485.389 241.281 486.502 242.086 487.274 243.177C486.419 242.15 485.922 240.874 485.856 239.54C485.864 239.251 485.898 238.963 485.96 238.681C486.109 238.223 486.327 237.789 486.607 237.396C486.952 236.851 487.399 236.377 487.924 236C488.028 235.926 488.156 235.894 488.283 235.909C488.41 235.924 488.527 235.985 488.61 236.081C489.474 237.201 489.862 238.615 489.691 240.019C489.56 241.048 489.134 242.018 488.465 242.814" stroke="#151254" stroke-width="2.26737" stroke-linecap="round" stroke-linejoin="round"/>
<path d="M501.716 261.505C501.917 261.368 502.102 261.207 502.265 261.026C502.685 260.515 502.999 259.927 503.188 259.295C503.377 258.663 503.437 258 503.366 257.345C503.32 255.811 502.999 254.299 502.418 252.879C501.507 250.23 499.85 247.899 497.644 246.165C495.406 244.594 492.837 243.551 490.132 243.116C489.944 243.094 488.558 242.7 488.445 242.836L486.73 244.145C486.57 244.221 486.55 245.634 486.594 245.83C486.336 248.561 486.718 251.312 487.711 253.868C488.836 256.42 490.687 258.587 493.035 260.102C495.356 261.573 499.113 263.376 501.716 261.505Z" stroke="#151254" stroke-width="2.26737" stroke-linecap="round" stroke-linejoin="round"/>
<path d="M501.289 251.983C499.385 252.311 497.589 253.094 496.054 254.265C494.522 255.443 493.305 256.977 492.509 258.733" stroke="#151254" stroke-width="2.26737" stroke-linecap="round" stroke-linejoin="round"/>
<path d="M351.882 187.688C352.178 186.849 352.259 185.95 352.117 185.073C351.975 184.195 351.615 183.368 351.069 182.666C350.825 182.367 350.474 182.175 350.089 182.129C349.705 182.084 349.317 182.19 349.009 182.423L347.235 183.766" stroke="#151254" stroke-width="2.26737" stroke-linecap="round" stroke-linejoin="round"/>
<path d="M340.449 196.472C339.551 196.553 338.648 196.41 337.82 196.056C336.993 195.702 336.267 195.148 335.709 194.444C335.59 194.294 335.502 194.123 335.45 193.939C335.398 193.755 335.383 193.563 335.406 193.374C335.429 193.184 335.49 193.001 335.584 192.834C335.678 192.668 335.805 192.522 335.956 192.404L337.734 191.035" stroke="#151254" stroke-width="2.26737" stroke-linecap="round" stroke-linejoin="round"/>
<path d="M338.267 183.776C337.322 184.226 336.268 184.399 335.229 184.276C334.527 184.193 333.85 183.972 333.235 183.626C332.621 183.281 332.081 182.817 331.648 182.262C331.574 182.158 331.542 182.031 331.557 181.904C331.573 181.778 331.635 181.661 331.731 181.578C332.23 181.191 332.798 180.903 333.405 180.727C333.854 180.555 334.327 180.454 334.807 180.429C335.097 180.432 335.386 180.466 335.669 180.531C336.949 180.926 338.061 181.732 338.833 182.822C337.979 181.795 337.481 180.519 337.416 179.185C337.423 178.896 337.458 178.609 337.52 178.326C337.668 177.868 337.887 177.435 338.167 177.042C338.512 176.497 338.959 176.023 339.483 175.645C339.588 175.572 339.716 175.539 339.843 175.554C339.97 175.569 340.086 175.63 340.17 175.726C341.034 176.846 341.422 178.26 341.251 179.664C341.119 180.693 340.694 181.663 340.024 182.459" stroke="#151254" stroke-width="2.26737" stroke-linecap="round" stroke-linejoin="round"/>
<path d="M353.275 201.151C353.477 201.013 353.661 200.852 353.825 200.671C354.245 200.161 354.558 199.572 354.747 198.94C354.936 198.308 354.997 197.646 354.926 196.991C354.88 195.457 354.559 193.944 353.978 192.524C353.066 189.875 351.409 187.545 349.204 185.811C346.966 184.239 344.397 183.197 341.692 182.762C341.503 182.74 340.117 182.345 340.005 182.482L338.29 183.79C338.13 183.867 338.109 185.279 338.154 185.475C337.896 188.206 338.278 190.958 339.271 193.513C340.396 196.065 342.246 198.232 344.594 199.747C346.916 201.218 350.672 203.022 353.275 201.151Z" stroke="#151254" stroke-width="2.26737" stroke-linecap="round" stroke-linejoin="round"/>
<path d="M352.848 191.628C350.945 191.956 349.148 192.739 347.614 193.91C346.082 195.087 344.864 196.622 344.068 198.378" stroke="#151254" stroke-width="2.26737" stroke-linecap="round" stroke-linejoin="round"/>
<path d="M352.111 197.421C352.256 197.312 352.378 197.174 352.469 197.016C352.56 196.858 352.618 196.684 352.64 196.504C352.662 196.323 352.647 196.141 352.596 195.966C352.545 195.792 352.46 195.63 352.345 195.489C352.177 195.284 351.951 195.133 351.697 195.055C351.443 194.976 351.172 194.974 350.916 195.048C350.66 195.123 350.432 195.27 350.26 195.473C350.087 195.675 349.978 195.923 349.947 196.187C349.915 196.45 349.961 196.716 350.08 196.953C350.2 197.19 350.386 197.386 350.617 197.518C350.848 197.65 351.112 197.711 351.378 197.693C351.644 197.676 351.898 197.582 352.111 197.421Z" fill="#201D67"/>
<path d="M370.18 54.6398L371.378 44.7197L369.955 44.5517L368.758 54.4717L370.18 54.6398Z" stroke="#151254" stroke-width="2.26737" stroke-linecap="round" stroke-linejoin="round"/>
<path d="M380.848 61.9989C380.737 62.9107 379.792 63.5066 378.93 63.1874C373.571 61.1276 370.086 55.6436 370.806 49.6896C371.526 43.7356 376.221 39.2158 381.921 38.4595C382.837 38.3361 383.613 39.135 383.501 40.0602L380.848 61.9989V61.9989Z" stroke="#151254" stroke-width="2.26737" stroke-linecap="round" stroke-linejoin="round"/>
<path d="M382.832 45.6906C382.643 47.254 383.761 48.6714 385.331 48.8563C386.9 49.0412 388.326 47.9237 388.515 46.3602C388.704 44.7968 387.585 43.3794 386.016 43.1945C384.447 43.0095 383.021 44.1271 382.832 45.6906Z" stroke="#151254" stroke-width="2.26737" stroke-linecap="round" stroke-linejoin="round"/>
<path d="M381.762 56.4112C381.573 57.9747 382.692 59.3921 384.261 59.577C385.831 59.7619 387.256 58.6444 387.446 57.0809C387.635 55.5174 386.516 54.1001 384.947 53.9152C383.377 53.7302 381.952 54.8478 381.762 56.4112Z" stroke="#151254" stroke-width="2.26737" stroke-linecap="round" stroke-linejoin="round"/>
<path d="M382.338 51.5036C382.195 52.6818 383.038 53.7499 384.221 53.8892C385.404 54.0286 386.478 53.1864 386.62 52.0083C386.763 50.8301 385.92 49.762 384.737 49.6227C383.555 49.4833 382.48 50.3254 382.338 51.5036Z" stroke="#151254" stroke-width="2.26737" stroke-linecap="round" stroke-linejoin="round"/>
<path d="M388.513 44.8017L393.523 40.8779" stroke="#151254" stroke-width="2.26737" stroke-linecap="round" stroke-linejoin="round"/>
<path d="M379.214 39.916L376.664 61.1468" stroke="#151254" stroke-width="2.26737" stroke-linecap="round" stroke-linejoin="round"/>
<path d="M425.632 3.17824L428.539 -20.9502C426.306 -21.2144 424.288 -19.6315 424.02 -17.4063L422.082 -1.32065C421.814 0.904527 423.4 2.91403 425.632 3.17824Z" stroke="#151254" stroke-width="2.26737" stroke-linecap="round" stroke-linejoin="round"/>
<path d="M439.217 -7.44845C439.932 -13.3748 435.689 -18.7447 429.737 -19.4484L428.39 -19.6076L425.803 1.84509L427.149 2.00429C433.102 2.70796 438.502 -1.52214 439.217 -7.44845Z" stroke="#151254" stroke-width="2.26737" stroke-linecap="round" stroke-linejoin="round"/>
<path d="M395.239 253.648L383.1 238.284C381.808 236.648 379.436 236.368 377.792 237.656C376.147 238.945 375.862 241.305 377.154 242.94L389.294 258.304C390.586 259.94 392.957 260.22 394.602 258.932C396.247 257.643 396.531 255.283 395.239 253.648Z" stroke="#151254" stroke-width="2.26737" stroke-linecap="round" stroke-linejoin="round"/>
<path d="M380.924 240.951C382.322 242.722 381.688 243.219 383.084 245.003C384.481 246.773 385.115 246.276 386.526 248.048C387.923 249.819 387.288 250.329 388.685 252.099C390.083 253.87 390.73 253.374 392.127 255.145" stroke="#151254" stroke-width="2.26737" stroke-linecap="round" stroke-linejoin="round"/>
<path d="M397.401 249.093L388.059 237.27C386.506 235.304 383.664 234.968 381.687 236.517L396.624 255.421C398.613 253.888 398.956 251.045 397.401 249.093Z" stroke="#151254" stroke-width="2.26737" stroke-linecap="round" stroke-linejoin="round"/>
<path d="M374.991 247.498L384.333 259.321C385.886 261.286 388.728 261.622 390.705 260.074L375.768 241.169C373.779 242.703 373.436 245.546 374.991 247.498Z" stroke="#151254" stroke-width="2.26737" stroke-linecap="round" stroke-linejoin="round"/>
<path d="M586.686 265.021L588.302 251.615C588.59 249.228 590.761 247.527 593.157 247.811L595.741 248.116L593.084 270.156L590.5 269.85C588.104 269.567 586.399 267.407 586.686 265.021Z" stroke="#151254" stroke-width="2.26737" stroke-linecap="round" stroke-linejoin="round"/>
<path d="M597.321 269.966L599.811 249.296C599.948 248.156 599.132 247.122 597.988 246.986C596.845 246.851 595.806 247.666 595.669 248.806L593.178 269.476C593.041 270.615 593.858 271.65 595.001 271.785C596.144 271.92 597.183 271.105 597.321 269.966Z" stroke="#151254" stroke-width="2.26737" stroke-linecap="round" stroke-linejoin="round"/>
<path d="M609.56 261.653L609.732 260.232C610.419 254.534 606.343 249.374 600.62 248.698L599.906 248.613L597.248 270.655L597.961 270.74C603.684 271.416 608.873 267.352 609.56 261.653Z" stroke="#151254" stroke-width="2.26737" stroke-linecap="round" stroke-linejoin="round"/>
<path d="M595.423 247.933C594.795 248.389 593.983 248.674 593.865 249.652C593.746 250.631 594.468 251.097 594.97 251.687" stroke="#151254" stroke-width="2.26737" stroke-linecap="round" stroke-linejoin="round"/>
<path d="M424.132 195.428L425.748 182.022C426.036 179.636 428.207 177.934 430.603 178.218L433.187 178.523L430.53 200.563L427.946 200.257C425.55 199.974 423.844 197.814 424.132 195.428Z" stroke="#151254" stroke-width="2.26737" stroke-linecap="round" stroke-linejoin="round"/>
<path d="M434.766 200.371L437.257 179.701C437.394 178.562 436.577 177.527 435.434 177.392C434.291 177.256 433.252 178.071 433.114 179.211L430.624 199.881C430.487 201.02 431.303 202.055 432.447 202.19C433.59 202.326 434.629 201.51 434.766 200.371Z" stroke="#151254" stroke-width="2.26737" stroke-linecap="round" stroke-linejoin="round"/>
<path d="M447.006 192.061L447.177 190.639C447.865 184.941 443.789 179.781 438.065 179.105L437.352 179.021L434.693 201.062L435.407 201.147C441.13 201.823 446.319 197.759 447.006 192.061Z" stroke="#151254" stroke-width="2.26737" stroke-linecap="round" stroke-linejoin="round"/>
<path d="M432.869 178.34C432.24 178.796 431.428 179.081 431.31 180.06C431.192 181.038 431.913 181.504 432.415 182.094" stroke="#151254" stroke-width="2.26737" stroke-linecap="round" stroke-linejoin="round"/>
<path d="M431.357 190.925C430.729 191.381 429.916 191.666 429.798 192.645C429.678 193.637 430.4 194.103 430.902 194.692" stroke="#151254" stroke-width="2.26737" stroke-linecap="round" stroke-linejoin="round"/>
<path d="M429.052 198.96C429.171 197.981 429.984 197.697 430.612 197.24" stroke="#151254" stroke-width="2.26737" stroke-linecap="round" stroke-linejoin="round"/>
<path d="M432.112 184.639C431.484 185.095 430.671 185.38 430.553 186.358C430.435 187.337 431.157 187.803 431.659 188.393" stroke="#151254" stroke-width="2.26737" stroke-linecap="round" stroke-linejoin="round"/>
</g>
<g opacity="0.25">
<path d="M304.769 148.025C302.225 145.159 301.412 140.991 303.032 137.246C305.268 132.075 311.315 129.679 316.516 131.903C321.143 133.881 323.559 138.852 322.459 143.583C319.588 142.532 316.396 143.592 314.726 146.052C314.411 145.858 314.078 145.672 313.728 145.522C310.461 144.125 306.737 145.251 304.769 148.025Z" stroke="#151254" stroke-width="2.26737" stroke-linecap="round" stroke-linejoin="round"/>
<path d="M319.276 139.592C319.604 138.835 319.25 137.948 318.49 137.624C317.73 137.299 316.839 137.654 316.511 138.411C316.182 139.169 316.536 140.055 317.296 140.38C318.069 140.709 318.948 140.349 319.276 139.592Z" fill="#201D67"/>
<path d="M327.812 139.641C328.14 138.883 327.786 137.997 327.026 137.672C326.266 137.348 325.374 137.703 325.046 138.46C324.718 139.218 325.072 140.104 325.832 140.429C326.61 140.746 327.484 140.398 327.812 139.641Z" fill="#201D67"/>
<path d="M313.291 141.778C313.619 141.021 313.265 140.135 312.505 139.81C311.746 139.486 310.854 139.841 310.526 140.598C310.198 141.355 310.552 142.242 311.311 142.566C312.084 142.896 312.963 142.536 313.291 141.778Z" fill="#201D67"/>
<path d="M307.228 140.599C307.228 140.599 307.191 140.274 307.136 139.854C307.088 139.452 307.044 139.11 307.044 139.11C307.044 139.11 307.081 139.434 307.136 139.854C307.196 140.262 307.228 140.599 307.228 140.599Z" stroke="#151254" stroke-width="2.26737" stroke-linecap="round" stroke-linejoin="round"/>
<path d="M313.537 135.815C313.537 135.815 313.289 136.047 312.989 136.331C312.689 136.614 312.441 136.846 312.441 136.846C312.441 136.846 312.689 136.614 312.989 136.331C313.289 136.047 313.537 135.815 313.537 135.815Z" stroke="#151254" stroke-width="2.26737" stroke-linecap="round" stroke-linejoin="round"/>
<path d="M324.042 133.021C324.042 133.021 324.157 133.334 324.301 133.719C324.445 134.104 324.561 134.418 324.561 134.418C324.561 134.418 324.445 134.104 324.301 133.719C324.157 133.334 324.042 133.021 324.042 133.021Z" stroke="#151254" stroke-width="2.26737" stroke-linecap="round" stroke-linejoin="round"/>
<path d="M317.637 128.797C319.667 128.136 321.926 128.176 324.033 129.077C328.636 131.045 330.761 136.347 328.782 140.923C327.184 144.618 323.395 146.716 319.566 146.343" stroke="#151254" stroke-width="2.26737" stroke-linecap="round" stroke-linejoin="round"/>
<path d="M203.61 106.908L207.584 97.7285L206.267 97.1659L202.293 106.345L203.61 106.908Z" stroke="#151254" stroke-width="2.26737" stroke-linecap="round" stroke-linejoin="round"/>
<path d="M211.74 116.973C211.374 117.817 210.298 118.123 209.563 117.574C205.014 114.088 203.237 107.845 205.624 102.334C208.012 96.824 213.8 93.8093 219.478 94.6888C220.391 94.8283 220.908 95.8135 220.537 96.6699L211.74 116.973V116.973Z" stroke="#151254" stroke-width="2.26737" stroke-linecap="round" stroke-linejoin="round"/>
<path d="M218.294 101.888C217.667 103.335 218.335 105.011 219.786 105.63C221.238 106.249 222.922 105.578 223.55 104.131C224.177 102.684 223.509 101.009 222.057 100.389C220.606 99.7701 218.921 100.441 218.294 101.888Z" stroke="#151254" stroke-width="2.26737" stroke-linecap="round" stroke-linejoin="round"/>
<path d="M214.213 111.869C213.586 113.316 214.254 114.991 215.705 115.61C217.156 116.23 218.841 115.559 219.468 114.111C220.096 112.664 219.428 110.989 217.976 110.37C216.525 109.751 214.84 110.422 214.213 111.869Z" stroke="#151254" stroke-width="2.26737" stroke-linecap="round" stroke-linejoin="round"/>
<path d="M216.162 107.325C215.69 108.415 216.193 109.677 217.287 110.144C218.381 110.611 219.65 110.105 220.123 109.015C220.595 107.924 220.092 106.662 218.998 106.195C217.905 105.728 216.635 106.234 216.162 107.325Z" stroke="#151254" stroke-width="2.26737" stroke-linecap="round" stroke-linejoin="round"/>
<path d="M223.996 102.639L229.917 100.282" stroke="#151254" stroke-width="2.26737" stroke-linecap="round" stroke-linejoin="round"/>
<path d="M216.47 95.3291L207.974 114.971" stroke="#151254" stroke-width="2.26737" stroke-linecap="round" stroke-linejoin="round"/>
<path d="M288.119 80.3004L297.784 57.9736C295.72 57.0917 293.334 58.0419 292.442 60.1009L285.999 74.9854C285.108 77.0444 286.055 79.4184 288.119 80.3004Z" stroke="#151254" stroke-width="2.26737" stroke-linecap="round" stroke-linejoin="round"/>
<path d="M304.171 73.9319C306.547 68.4467 304.014 62.1009 298.511 59.7514L297.266 59.2199L288.665 79.0759L289.91 79.6075C295.414 81.957 301.795 79.4172 304.171 73.9319Z" stroke="#151254" stroke-width="2.26737" stroke-linecap="round" stroke-linejoin="round"/>
<path d="M303.249 73.5429C302.729 74.7428 303.283 76.1322 304.487 76.6462C305.691 77.1601 307.089 76.604 307.609 75.4041C308.128 74.2042 307.574 72.8148 306.37 72.3008C305.166 71.7869 303.768 72.3429 303.249 73.5429Z" fill="#201D67"/>
<path d="M344.031 -1.27344C342.334 2.07083 339.339 4.86051 335.395 6.39237C331.488 7.9101 327.357 7.89262 323.768 6.62271" stroke="#151254" stroke-width="2.26737" stroke-linecap="round" stroke-linejoin="round"/>
<path d="M322.346 7.68908L322.632 6.00386L325.521 -11.0983C325.911 -13.4003 328.57 -14.4232 330.465 -12.9959L334.483 -9.98491L334.738 -9.78786L338.229 -7.16392L338.565 -6.91713L344.416 -2.50548L345.841 -1.42608C347.214 -0.398159 347.561 1.49878 346.657 2.90498C344.437 6.36382 341.203 9.12484 337.153 10.6991C333.133 12.2716 328.854 12.4259 324.812 11.4178C323.159 11.0045 322.066 9.36192 322.346 7.68908Z" stroke="#151254" stroke-width="2.26737" stroke-linecap="round" stroke-linejoin="round"/>
<path d="M330.382 0.0463601C329.908 1.14213 330.428 2.41721 331.544 2.89432C332.66 3.37143 333.949 2.86989 334.423 1.77412C334.897 0.678346 334.376 -0.596733 333.26 -1.07384C332.144 -1.55095 330.856 -1.04941 330.382 0.0463601Z" stroke="#151254" stroke-width="2.26737" stroke-linecap="round" stroke-linejoin="round"/>
<path d="M250.593 193.911C249.474 190.509 249.6 186.579 251.231 182.88C252.851 179.207 255.662 176.423 258.959 174.862" stroke="#151254" stroke-width="2.26737" stroke-linecap="round" stroke-linejoin="round"/>
<path d="M253.579 173.263C250.802 175.243 248.551 177.917 247.116 181.16C245.439 184.962 245.125 189.023 245.967 192.869C246.309 194.428 247.845 195.481 249.474 195.264L251.181 195.036L258.158 194.054C258.158 194.054 263.122 193.361 267.802 192.709C270.063 192.394 271.175 189.896 269.87 188.073L260.189 174.524L259.233 173.189C258.284 171.872 256.427 171.492 255.028 172.337C254.526 172.608 254.046 172.933 253.579 173.263Z" stroke="#151254" stroke-width="2.26737" stroke-linecap="round" stroke-linejoin="round"/>
<path d="M259.224 181.051C259.478 180.806 259.623 180.471 259.628 180.12C259.636 179.932 259.602 179.77 259.544 179.598C259.404 179.274 259.152 179.004 258.829 178.866C258.492 178.723 258.14 178.719 257.801 178.854C257.462 178.989 257.208 179.234 257.063 179.57C256.917 179.905 256.913 180.256 257.047 180.593C257.182 180.93 257.439 181.187 257.763 181.325C258.087 181.463 258.457 181.46 258.791 181.337C258.964 181.278 259.11 181.179 259.224 181.051Z" fill="#201D67"/>
<path d="M255.888 185.414C256.142 185.169 256.287 184.833 256.292 184.482C256.294 184.306 256.267 184.133 256.208 183.961C256.069 183.636 255.816 183.367 255.493 183.229C255.156 183.085 254.804 183.082 254.465 183.217C254.126 183.352 253.872 183.597 253.727 183.932C253.582 184.267 253.577 184.619 253.711 184.955C253.846 185.292 254.091 185.544 254.427 185.688C254.751 185.826 255.121 185.822 255.455 185.699C255.615 185.635 255.756 185.548 255.888 185.414Z" fill="#201D67"/>
<path d="M254.566 191.14C255.226 190.877 255.581 190.057 255.32 189.401C255.18 189.077 254.928 188.807 254.604 188.669C254.268 188.526 253.915 188.522 253.576 188.657C253.237 188.792 252.984 189.037 252.838 189.372C252.768 189.534 252.736 189.711 252.739 189.875C252.736 190.05 252.764 190.224 252.823 190.396C252.957 190.733 253.202 190.985 253.538 191.128C253.855 191.248 254.238 191.25 254.566 191.14Z" fill="#201D67"/>
<path d="M260.031 190.875C260.22 190.882 260.382 190.848 260.555 190.789C261.215 190.526 261.57 189.707 261.308 189.051C261.232 188.886 261.145 188.746 261.01 188.614C260.888 188.489 260.742 188.382 260.593 188.318C260.431 188.249 260.253 188.218 260.089 188.221C259.913 188.22 259.738 188.248 259.565 188.307C259.226 188.442 258.972 188.687 258.827 189.022C258.757 189.183 258.724 189.361 258.728 189.524C258.725 189.7 258.753 189.873 258.811 190.045C258.946 190.382 259.191 190.634 259.527 190.777C259.676 190.841 259.855 190.873 260.031 190.875Z" fill="#201D67"/>
<path d="M262.15 185.976C262.326 185.978 262.501 185.949 262.674 185.891C263.339 185.616 263.694 184.796 263.427 184.152C263.351 183.987 263.264 183.847 263.129 183.716C263.007 183.59 262.861 183.484 262.711 183.42C262.375 183.277 262.022 183.273 261.684 183.408C261.518 183.485 261.371 183.584 261.245 183.706C261.118 183.829 261.01 183.974 260.94 184.136C260.795 184.471 260.79 184.822 260.925 185.159C261.001 185.324 261.1 185.47 261.223 185.595C261.34 185.734 261.491 185.828 261.64 185.891C261.795 185.943 261.968 185.987 262.15 185.976Z" fill="#201D67"/>
<path d="M265.536 187.965C265.197 188.1 264.943 188.345 264.798 188.68C264.728 188.841 264.695 189.019 264.698 189.182C264.696 189.357 264.724 189.531 264.782 189.703C264.858 189.868 264.958 190.014 265.08 190.139C265.203 190.265 265.349 190.372 265.498 190.435C265.834 190.579 266.192 190.57 266.526 190.447C267.013 190.243 267.369 189.762 267.369 189.218C267.376 189.029 267.343 188.868 267.285 188.696C267.145 188.372 266.893 188.102 266.569 187.964C266.407 187.895 266.229 187.863 266.065 187.867C265.884 187.877 265.709 187.906 265.536 187.965Z" fill="#201D67"/>
<path d="M112.149 86.8928C111.03 83.49 111.156 79.5603 112.787 75.8618C114.407 72.1881 117.218 69.4048 120.515 67.8438" stroke="#151254" stroke-width="2.26737" stroke-linecap="round" stroke-linejoin="round"/>
<path d="M115.134 66.2449C112.358 68.2242 110.107 70.8986 108.672 74.1418C106.994 77.9439 106.681 82.0041 107.522 85.8508C107.865 87.4097 109.4 88.4624 111.029 88.2451L112.737 88.017L119.714 87.0355C119.714 87.0355 124.677 86.3426 129.357 85.6906C131.618 85.3753 132.73 82.8773 131.425 81.0546L121.744 67.5056L120.788 66.1705C119.839 64.8532 117.982 64.473 116.583 65.3181C116.082 65.5898 115.601 65.9147 115.134 66.2449Z" stroke="#151254" stroke-width="2.26737" stroke-linecap="round" stroke-linejoin="round"/>
<path d="M120.78 74.0346C121.033 73.7897 121.179 73.4544 121.183 73.1032C121.191 72.9152 121.158 72.7538 121.099 72.5818C120.96 72.2573 120.708 71.9878 120.384 71.8496C120.047 71.7062 119.695 71.7029 119.356 71.8379C119.017 71.9729 118.763 72.2178 118.618 72.5531C118.473 72.8884 118.468 73.2396 118.602 73.5765C118.737 73.9135 118.994 74.1705 119.318 74.3087C119.642 74.4468 120.012 74.443 120.346 74.3205C120.519 74.2618 120.665 74.1624 120.78 74.0346Z" fill="#201D67"/>
<path d="M117.444 78.3979C117.698 78.153 117.843 77.8177 117.848 77.4665C117.85 77.2909 117.822 77.1171 117.764 76.945C117.624 76.6205 117.372 76.3511 117.048 76.2129C116.712 76.0695 116.359 76.0661 116.02 76.2011C115.682 76.3361 115.428 76.5811 115.283 76.9164C115.137 77.2517 115.133 77.6029 115.267 77.9398C115.401 78.2767 115.646 78.5285 115.983 78.6719C116.306 78.8101 116.677 78.8063 117.01 78.6837C117.171 78.6198 117.312 78.5328 117.444 78.3979Z" fill="#201D67"/>
<path d="M116.121 84.1232C116.781 83.8603 117.136 83.0407 116.874 82.3846C116.735 82.0601 116.482 81.7906 116.159 81.6525C115.822 81.509 115.47 81.5056 115.131 81.6406C114.792 81.7757 114.538 82.0206 114.393 82.3559C114.323 82.5173 114.29 82.6947 114.293 82.8579C114.291 83.0335 114.319 83.2073 114.377 83.3793C114.512 83.7163 114.757 83.968 115.093 84.1115C115.41 84.2319 115.793 84.2334 116.121 84.1232Z" fill="#201D67"/>
<path d="M121.585 83.8591C121.773 83.8661 121.936 83.8323 122.109 83.7737C122.768 83.5108 123.124 82.6911 122.862 82.035C122.786 81.8701 122.699 81.73 122.564 81.5988C122.442 81.473 122.296 81.3666 122.146 81.3028C121.985 81.2338 121.807 81.202 121.643 81.2056C121.466 81.2039 121.292 81.2324 121.119 81.2911C120.78 81.4261 120.526 81.671 120.381 82.0063C120.311 82.1678 120.278 82.3451 120.281 82.5083C120.279 82.6839 120.307 82.8577 120.365 83.0297C120.499 83.3667 120.745 83.6184 121.081 83.7619C121.23 83.8256 121.408 83.8575 121.585 83.8591Z" fill="#201D67"/>
<path d="M123.703 78.9616C123.879 78.9633 124.054 78.9348 124.227 78.8762C124.892 78.6009 125.247 77.7812 124.98 77.1375C124.904 76.9726 124.817 76.8325 124.682 76.7014C124.56 76.5755 124.414 76.4692 124.265 76.4054C123.928 76.2619 123.576 76.2586 123.237 76.3936C123.071 76.47 122.925 76.5694 122.798 76.6918C122.671 76.8143 122.564 76.9598 122.494 77.1213C122.348 77.4566 122.344 77.8078 122.478 78.1447C122.554 78.3096 122.653 78.455 122.776 78.5808C122.893 78.7191 123.044 78.813 123.194 78.8768C123.348 78.9281 123.521 78.9724 123.703 78.9616Z" fill="#201D67"/>
<path d="M127.09 80.948C126.751 81.083 126.498 81.3279 126.352 81.6632C126.282 81.8247 126.25 82.0021 126.253 82.1652C126.25 82.3408 126.278 82.5147 126.337 82.6867C126.413 82.8516 126.512 82.997 126.635 83.1228C126.757 83.2487 126.903 83.355 127.052 83.4188C127.388 83.5623 127.747 83.5532 128.08 83.4306C128.567 83.2263 128.923 82.7454 128.923 82.2009C128.931 82.0129 128.897 81.8515 128.839 81.6795C128.699 81.355 128.447 81.0855 128.123 80.9474C127.961 80.8783 127.783 80.8465 127.619 80.8501C127.438 80.8609 127.263 80.8894 127.09 80.948Z" fill="#201D67"/>
<path d="M208.286 36.2442C205.742 33.3786 204.929 29.2107 206.549 25.4657C208.785 20.2947 214.831 17.8987 220.032 20.1224C224.659 22.1008 227.076 27.0719 225.975 31.8029C223.105 30.7519 219.913 31.8115 218.243 34.2713C217.927 34.0778 217.594 33.8912 217.245 33.7419C213.977 32.3448 210.254 33.471 208.286 36.2442Z" stroke="#151254" stroke-width="2.26737" stroke-linecap="round" stroke-linejoin="round"/>
<path d="M222.794 27.8117C223.122 27.0544 222.768 26.1677 222.008 25.8433C221.248 25.5189 220.357 25.8738 220.029 26.6312C219.701 27.3885 220.054 28.2751 220.814 28.5995C221.587 28.9292 222.466 28.569 222.794 27.8117Z" fill="#201D67"/>
<path d="M231.33 27.8605C231.658 27.1032 231.304 26.2165 230.544 25.8921C229.784 25.5678 228.892 25.9226 228.564 26.6799C228.236 27.4373 228.59 28.3239 229.35 28.6483C230.128 28.9656 231.002 28.6178 231.33 27.8605Z" fill="#201D67"/>
<path d="M216.808 29.9982C217.136 29.2409 216.782 28.3542 216.023 28.0298C215.263 27.7055 214.371 28.0603 214.043 28.8176C213.715 29.575 214.069 30.4616 214.829 30.786C215.601 31.1157 216.48 30.7555 216.808 29.9982Z" fill="#201D67"/>
<path d="M210.745 28.8174C210.745 28.8174 210.708 28.493 210.653 28.0729C210.605 27.6705 210.561 27.3283 210.561 27.3283C210.561 27.3283 210.598 27.6527 210.653 28.0729C210.713 28.4806 210.745 28.8174 210.745 28.8174Z" stroke="#151254" stroke-width="2.26737" stroke-linecap="round" stroke-linejoin="round"/>
<path d="M217.054 24.0371C217.054 24.0371 216.806 24.269 216.506 24.5522C216.206 24.8354 215.958 25.0673 215.958 25.0673C215.958 25.0673 216.206 24.8354 216.506 24.5522C216.806 24.269 217.054 24.0371 217.054 24.0371Z" stroke="#151254" stroke-width="2.26737" stroke-linecap="round" stroke-linejoin="round"/>
<path d="M227.559 21.2393C227.559 21.2393 227.674 21.5531 227.818 21.9379C227.962 22.3227 228.078 22.6366 228.078 22.6366C228.078 22.6366 227.962 22.3227 227.818 21.9379C227.674 21.5531 227.559 21.2393 227.559 21.2393Z" stroke="#151254" stroke-width="2.26737" stroke-linecap="round" stroke-linejoin="round"/>
<path d="M221.154 17.0174C223.184 16.357 225.442 16.397 227.55 17.2982C232.152 19.2659 234.278 24.5681 232.299 29.1438C230.7 32.8392 226.911 34.9366 223.083 34.5633" stroke="#151254" stroke-width="2.26737" stroke-linecap="round" stroke-linejoin="round"/>
<path d="M193.481 224.388C194.004 223.666 194.338 222.826 194.452 221.944C194.566 221.062 194.457 220.167 194.134 219.34C193.985 218.984 193.703 218.7 193.348 218.549C192.992 218.397 192.591 218.389 192.229 218.527L190.146 219.315" stroke="#151254" stroke-width="2.26737" stroke-linecap="round" stroke-linejoin="round"/>
<path d="M180.014 229.591C179.13 229.416 178.305 229.024 177.613 228.451C176.921 227.879 176.383 227.143 176.05 226.31C175.978 226.133 175.943 225.944 175.945 225.753C175.948 225.562 175.988 225.373 176.064 225.198C176.14 225.022 176.25 224.863 176.388 224.73C176.526 224.597 176.689 224.492 176.868 224.422L178.962 223.608" stroke="#151254" stroke-width="2.26737" stroke-linecap="round" stroke-linejoin="round"/>
<path d="M181.539 216.802C180.505 216.967 179.446 216.837 178.485 216.426C177.837 216.149 177.25 215.746 176.76 215.241C176.27 214.736 175.885 214.139 175.628 213.485C175.587 213.364 175.592 213.233 175.643 213.116C175.694 212.999 175.786 212.904 175.903 212.851C176.491 212.621 177.118 212.504 177.749 212.506C178.229 212.467 178.711 212.504 179.178 212.615C179.455 212.7 179.722 212.814 179.975 212.955C181.089 213.695 181.925 214.781 182.354 216.046C181.828 214.819 181.715 213.455 182.033 212.156C182.122 211.881 182.238 211.615 182.377 211.361C182.651 210.963 182.983 210.609 183.364 210.31C183.85 209.884 184.413 209.555 185.024 209.341C185.145 209.3 185.277 209.304 185.394 209.354C185.511 209.405 185.606 209.496 185.659 209.612C186.167 210.93 186.136 212.396 185.571 213.695C185.152 214.646 184.468 215.457 183.599 216.032" stroke="#151254" stroke-width="2.26737" stroke-linecap="round" stroke-linejoin="round"/>
<path d="M190.977 237.695C191.209 237.62 191.432 237.517 191.64 237.389C192.188 237.017 192.656 236.541 193.018 235.988C193.379 235.434 193.626 234.815 193.745 234.167C194.138 232.682 194.262 231.14 194.11 229.613C193.992 226.815 193.068 224.112 191.45 221.827C189.753 219.689 187.588 217.965 185.12 216.786C184.945 216.711 183.729 215.942 183.583 216.042L181.566 216.815C181.391 216.843 180.968 218.193 180.955 218.394C179.929 220.942 179.511 223.69 179.734 226.422C180.084 229.188 181.24 231.788 183.058 233.904C184.863 235.969 187.949 238.757 190.977 237.695Z" stroke="#151254" stroke-width="2.26737" stroke-linecap="round" stroke-linejoin="round"/>
<path d="M193.284 228.436C191.366 228.214 189.422 228.46 187.617 229.152C185.813 229.851 184.209 230.98 182.945 232.442" stroke="#151254" stroke-width="2.26737" stroke-linecap="round" stroke-linejoin="round"/>
<path d="M190.928 233.786C191.099 233.722 191.255 233.624 191.387 233.498C191.519 233.372 191.624 233.221 191.697 233.054C191.769 232.887 191.807 232.708 191.808 232.526C191.809 232.345 191.773 232.165 191.703 231.998C191.6 231.753 191.428 231.545 191.207 231.398C190.986 231.251 190.726 231.173 190.46 231.172C190.193 231.172 189.933 231.249 189.71 231.395C189.487 231.54 189.312 231.748 189.206 231.992C189.1 232.235 189.069 232.504 189.116 232.765C189.162 233.026 189.285 233.267 189.469 233.458C189.652 233.649 189.889 233.783 190.148 233.841C190.408 233.899 190.679 233.88 190.928 233.786Z" fill="#201D67"/>
<path d="M68.3239 124.69C68.8472 123.968 69.1812 123.128 69.2953 122.246C69.4094 121.364 69.3001 120.469 68.9772 119.641C68.8286 119.286 68.5467 119.002 68.1912 118.85C67.8356 118.699 67.4343 118.691 67.0719 118.828L64.9889 119.617" stroke="#151254" stroke-width="2.26737" stroke-linecap="round" stroke-linejoin="round"/>
<path d="M54.857 129.892C53.9733 129.718 53.1481 129.326 52.456 128.753C51.7638 128.18 51.2266 127.444 50.8928 126.612C50.8213 126.435 50.7858 126.245 50.7883 126.054C50.7908 125.863 50.8312 125.675 50.9073 125.499C50.9834 125.324 51.0936 125.165 51.2315 125.032C51.3694 124.899 51.5324 124.794 51.7109 124.724L53.8048 123.91" stroke="#151254" stroke-width="2.26737" stroke-linecap="round" stroke-linejoin="round"/>
<path d="M56.3827 117.103C55.3484 117.269 54.2893 117.139 53.3287 116.727C52.6802 116.45 52.0937 116.048 51.6033 115.543C51.1129 115.038 50.7282 114.441 50.4715 113.786C50.4304 113.666 50.4357 113.535 50.4864 113.418C50.5371 113.301 50.6297 113.206 50.746 113.153C51.3345 112.923 51.9611 112.806 52.5926 112.808C53.0718 112.769 53.5539 112.806 54.021 112.917C54.2982 113.002 54.5654 113.116 54.818 113.257C55.9322 113.997 56.7685 115.083 57.1973 116.347C56.6713 115.121 56.5587 113.756 56.8762 112.458C56.9655 112.183 57.0809 111.916 57.2207 111.663C57.4939 111.265 57.8266 110.91 58.2072 110.612C58.6932 110.186 59.2567 109.857 59.8669 109.643C59.988 109.601 60.12 109.606 60.2374 109.656C60.3547 109.706 60.4491 109.798 60.502 109.914C61.0104 111.232 60.9791 112.698 60.4146 113.997C59.9954 114.947 59.3108 115.759 58.4425 116.334" stroke="#151254" stroke-width="2.26737" stroke-linecap="round" stroke-linejoin="round"/>
<path d="M65.8199 137.996C66.0525 137.921 66.2753 137.819 66.4835 137.691C67.0313 137.319 67.4996 136.843 67.861 136.29C68.2224 135.736 68.4697 135.117 68.5884 134.469C68.9815 132.984 69.1051 131.441 68.9533 129.915C68.8352 127.117 67.9118 124.414 66.2928 122.128C64.596 119.99 62.4315 118.267 59.9631 117.088C59.7888 117.013 58.5727 116.244 58.4263 116.344L56.4092 117.116C56.2345 117.145 55.8117 118.495 55.7986 118.695C54.7725 121.243 54.3542 123.992 54.5768 126.724C54.9275 129.49 56.0829 132.09 57.9009 134.205C59.7062 136.271 62.7919 139.059 65.8199 137.996Z" stroke="#151254" stroke-width="2.26737" stroke-linecap="round" stroke-linejoin="round"/>
<path d="M68.1284 128.735C66.2107 128.514 64.2659 128.76 62.4613 129.452C60.6576 130.15 59.0529 131.28 57.7893 132.741" stroke="#151254" stroke-width="2.26737" stroke-linecap="round" stroke-linejoin="round"/>
<path d="M65.7713 134.088C65.942 134.023 66.098 133.925 66.2301 133.8C66.3622 133.674 66.4675 133.523 66.5399 133.356C66.6122 133.189 66.6501 133.01 66.6512 132.828C66.6523 132.646 66.6166 132.467 66.5463 132.299C66.4437 132.055 66.271 131.847 66.0499 131.7C65.8288 131.553 65.569 131.475 65.3028 131.474C65.0366 131.473 64.7758 131.551 64.5529 131.696C64.33 131.842 64.1549 132.05 64.0492 132.293C63.9436 132.537 63.9122 132.806 63.959 133.067C64.0057 133.328 64.1285 133.569 64.3121 133.76C64.4956 133.951 64.7319 134.084 64.9913 134.143C65.2508 134.201 65.522 134.182 65.7713 134.088Z" fill="#201D67"/>
<path d="M14.1084 194.665L-2.19355 193.759L9.68278 204.877" stroke="#151254" stroke-width="2.26737" stroke-linecap="round" stroke-linejoin="round"/>
<path d="M9.22644 207.702C9.3177 207.492 9.3858 207.3 9.43612 207.116C9.8031 205.656 8.86541 205.035 9.6062 203.324C10.4382 201.401 11.7172 201.948 12.5385 200.05C13.3706 198.128 12.0916 197.581 12.9129 195.683C13.6537 193.972 14.7346 194.228 15.5664 192.952C15.661 192.801 15.7593 192.608 15.8506 192.397" stroke="#151254" stroke-width="2.26737" stroke-linecap="round" stroke-linejoin="round"/>
<path d="M11.6984 207.258C11.0262 206.971 10.3971 206.585 9.87861 206.113C10.1658 204.838 9.20961 204.254 9.84462 202.789C10.5604 201.137 11.8425 201.684 12.5475 200.058C13.2632 198.406 11.9811 197.859 12.686 196.233C13.321 194.768 14.3993 195.036 15.1417 193.97C15.8377 194.032 16.5584 194.207 17.2306 194.494C20.7658 196.002 22.3912 200.079 20.8628 203.606C19.3345 207.132 15.2337 208.766 11.6984 207.258Z" stroke="#151254" stroke-width="2.26737" stroke-linecap="round" stroke-linejoin="round"/>
<path d="M7.86286 205.604L13.3765 192.856" stroke="#151254" stroke-width="2.26737" stroke-linecap="round" stroke-linejoin="round"/>
<path d="M123.793 2.24834L127.767 -6.93066L126.449 -7.49328L122.476 1.68572L123.793 2.24834Z" stroke="#151254" stroke-width="2.26737" stroke-linecap="round" stroke-linejoin="round"/>
<path d="M131.921 12.3143C131.556 13.1582 130.48 13.4637 129.745 12.9146C125.195 9.42889 123.419 3.18536 125.806 -2.32491C128.194 -7.83519 133.982 -10.8499 139.66 -9.9704C140.573 -9.83088 141.089 -8.84565 140.718 -7.98932L131.921 12.3143V12.3143Z" stroke="#151254" stroke-width="2.26737" stroke-linecap="round" stroke-linejoin="round"/>
<path d="M138.477 -2.77183C137.85 -1.32468 138.518 0.350505 139.969 0.969821C141.421 1.58914 143.106 0.91806 143.733 -0.529093C144.36 -1.97625 143.692 -3.65147 142.24 -4.27078C140.789 -4.8901 139.104 -4.21898 138.477 -2.77183Z" stroke="#151254" stroke-width="2.26737" stroke-linecap="round" stroke-linejoin="round"/>
<path d="M134.396 7.2086C133.769 8.65575 134.437 10.331 135.888 10.9503C137.34 11.5696 139.024 10.8985 139.652 9.45134C140.279 8.00419 139.611 6.329 138.159 5.70969C136.708 5.09037 135.023 5.76145 134.396 7.2086Z" stroke="#151254" stroke-width="2.26737" stroke-linecap="round" stroke-linejoin="round"/>
<path d="M136.346 2.66342C135.873 3.75392 136.377 5.01631 137.471 5.483C138.564 5.94969 139.834 5.44395 140.306 4.35344C140.779 3.26293 140.276 2.00058 139.182 1.53389C138.088 1.06721 136.819 1.57291 136.346 2.66342Z" stroke="#151254" stroke-width="2.26737" stroke-linecap="round" stroke-linejoin="round"/>
<path d="M144.178 -2.02161L150.099 -4.37793" stroke="#151254" stroke-width="2.26737" stroke-linecap="round" stroke-linejoin="round"/>
<path d="M136.651 -9.3291L128.156 10.3132" stroke="#151254" stroke-width="2.26737" stroke-linecap="round" stroke-linejoin="round"/>
<path d="M129.447 257.432C127.75 260.776 124.755 263.566 120.811 265.097C116.904 266.615 112.773 266.598 109.184 265.328" stroke="#151254" stroke-width="2.26737" stroke-linecap="round" stroke-linejoin="round"/>
<path d="M107.763 266.394L108.048 264.709L110.938 247.607C111.327 245.305 113.987 244.282 115.882 245.709L119.9 248.72L120.154 248.917L123.645 251.541L123.982 251.788L129.833 256.2L131.257 257.279C132.63 258.307 132.978 260.204 132.074 261.61C129.854 265.069 126.62 267.83 122.57 269.404C118.549 270.977 114.271 271.131 110.229 270.123C108.575 269.71 107.483 268.067 107.763 266.394Z" stroke="#151254" stroke-width="2.26737" stroke-linecap="round" stroke-linejoin="round"/>
<path d="M119.733 251.736C119.33 250.755 119.529 249.68 120.179 248.929L124.731 252.345C124.415 252.768 123.998 253.118 123.463 253.33C121.988 253.904 120.316 253.19 119.733 251.736Z" stroke="#151254" stroke-width="2.26737" stroke-linecap="round" stroke-linejoin="round"/>
<path d="M111.949 250.258C112.752 250.381 113.47 250.909 113.795 251.694C114.284 252.888 113.705 254.227 112.497 254.695C112.105 254.851 111.688 254.893 111.289 254.825" stroke="#151254" stroke-width="2.26737" stroke-linecap="round" stroke-linejoin="round"/>
<path d="M91.1014 200.158L83.8526 181.999C83.081 180.066 80.8885 179.13 78.9444 179.904C77.0003 180.677 76.0537 182.863 76.8254 184.795L84.0742 202.954C84.8458 204.887 87.0383 205.823 88.9824 205.049C90.9265 204.276 91.873 202.091 91.1014 200.158Z" stroke="#151254" stroke-width="2.26737" stroke-linecap="round" stroke-linejoin="round"/>
<path d="M81.0044 183.946C81.8388 186.038 81.0897 186.337 81.9187 188.442C82.753 190.534 83.5021 190.236 84.3489 192.334C85.1833 194.426 84.4288 194.737 85.2631 196.829C86.0975 198.922 86.859 198.629 87.6934 200.721" stroke="#151254" stroke-width="2.26737" stroke-linecap="round" stroke-linejoin="round"/>
<path d="M94.4745 196.398L88.8962 182.425C87.9689 180.102 85.3404 178.979 83.0039 179.909L91.9234 202.253C94.267 201.341 95.4072 198.709 94.4745 196.398Z" stroke="#151254" stroke-width="2.26737" stroke-linecap="round" stroke-linejoin="round"/>
<path d="M73.4505 188.557L79.0288 202.53C79.9561 204.853 82.5846 205.975 84.9211 205.046L76.0016 182.702C73.658 183.614 72.5178 186.246 73.4505 188.557Z" stroke="#151254" stroke-width="2.26737" stroke-linecap="round" stroke-linejoin="round"/>
<path d="M271.471 265.004L276.843 252.597C277.8 250.389 280.365 249.368 282.58 250.314L284.969 251.334L276.137 271.73L273.748 270.71C271.533 269.764 270.515 267.212 271.471 265.004Z" stroke="#151254" stroke-width="2.26737" stroke-linecap="round" stroke-linejoin="round"/>
<path d="M280.257 272.741L288.536 253.614C288.993 252.56 288.505 251.338 287.448 250.886C286.391 250.434 285.162 250.924 284.706 251.978L276.426 271.104C275.97 272.159 276.458 273.381 277.515 273.833C278.572 274.284 279.8 273.795 280.257 272.741Z" stroke="#151254" stroke-width="2.26737" stroke-linecap="round" stroke-linejoin="round"/>
<path d="M284.718 251.073C283.986 251.334 283.126 251.379 282.734 252.284C282.341 253.19 282.9 253.84 283.213 254.547" stroke="#151254" stroke-width="2.26737" stroke-linecap="round" stroke-linejoin="round"/>
<path d="M135.411 152.468L140.784 140.061C141.74 137.853 144.306 136.832 146.521 137.778L148.91 138.798L140.077 159.194L137.688 158.173C135.473 157.228 134.455 154.676 135.411 152.468Z" stroke="#151254" stroke-width="2.26737" stroke-linecap="round" stroke-linejoin="round"/>
<path d="M144.198 160.204L152.477 141.077C152.934 140.023 152.446 138.8 151.389 138.349C150.332 137.897 149.103 138.386 148.647 139.441L140.367 158.567C139.911 159.622 140.399 160.844 141.456 161.296C142.513 161.747 143.741 161.258 144.198 160.204Z" stroke="#151254" stroke-width="2.26737" stroke-linecap="round" stroke-linejoin="round"/>
<path d="M158.301 155.677L158.871 154.362C161.155 149.088 158.721 142.991 153.43 140.732L152.771 140.45L143.934 160.851L144.594 161.133C149.885 163.392 156.017 160.951 158.301 155.677Z" stroke="#151254" stroke-width="2.26737" stroke-linecap="round" stroke-linejoin="round"/>
<path d="M148.658 138.536C147.926 138.797 147.066 138.841 146.674 139.747C146.281 140.653 146.84 141.303 147.153 142.01" stroke="#151254" stroke-width="2.26737" stroke-linecap="round" stroke-linejoin="round"/>
<path d="M143.622 150.18C142.889 150.44 142.03 150.485 141.637 151.391C141.24 152.309 141.799 152.959 142.112 153.666" stroke="#151254" stroke-width="2.26737" stroke-linecap="round" stroke-linejoin="round"/>
<path d="M139.122 157.239C139.514 156.333 140.375 156.288 141.107 156.027" stroke="#151254" stroke-width="2.26737" stroke-linecap="round" stroke-linejoin="round"/>
<path d="M146.137 144.364C145.405 144.625 144.545 144.67 144.153 145.575C143.761 146.481 144.32 147.131 144.633 147.838" stroke="#151254" stroke-width="2.26737" stroke-linecap="round" stroke-linejoin="round"/>
</g>
<g opacity="0.25">
<path d="M18.8116 7.2039C18.1584 3.68082 18.81 -0.197985 20.9234 -3.64602C23.0227 -7.0709 26.1831 -9.45364 29.6626 -10.5596" stroke="#151254" stroke-width="2.26737" stroke-linecap="round" stroke-linejoin="round"/>
<path d="M24.5387 -12.866C21.5223 -11.2758 18.9332 -8.92652 17.0763 -5.90437C14.9045 -2.36077 14.0495 1.62109 14.3677 5.54584C14.4982 7.13658 15.879 8.38527 17.5223 8.38775L19.2447 8.39013L26.2903 8.35079C26.2903 8.35079 31.3016 8.32801 36.0266 8.30793C38.3099 8.29799 39.7469 5.9711 38.6975 3.99021L30.9203 -10.7323L30.1518 -12.1833C29.388 -13.6157 27.599 -14.2409 26.0991 -13.5905C25.5659 -13.3884 25.0464 -13.1306 24.5387 -12.866Z" stroke="#151254" stroke-width="2.26737" stroke-linecap="round" stroke-linejoin="round"/>
<path d="M25.2001 -0.513294C25.4843 -0.722082 25.6733 -1.03495 25.725 -1.38238C25.7508 -1.55609 25.7464 -1.73208 25.7117 -1.91034C25.6168 -2.25063 25.403 -2.5514 25.1007 -2.73163C24.7867 -2.91879 24.4377 -2.96929 24.0838 -2.88082C23.7299 -2.79236 23.4456 -2.58356 23.2566 -2.27069C23.0677 -1.95781 23.016 -1.6104 23.104 -1.25852C23.1919 -0.906645 23.401 -0.62441 23.715 -0.437247C24.0173 -0.257017 24.385 -0.211167 24.7319 -0.288041C24.8996 -0.329943 25.051 -0.397312 25.2001 -0.513294Z" fill="#201D67"/>
<path d="M23.1186 4.98471C23.8078 4.81244 24.2697 4.04766 24.0984 3.36243C24.0034 3.02214 23.7897 2.72139 23.4874 2.54116C23.1734 2.35399 22.8243 2.3035 22.4704 2.39196C22.1165 2.48042 21.8323 2.6892 21.6433 3.00207C21.5523 3.15271 21.4962 3.32416 21.4774 3.48628C21.4515 3.66 21.456 3.83598 21.4906 4.01424C21.5786 4.36612 21.7877 4.64837 22.1017 4.83553C22.3994 4.99724 22.7787 5.04999 23.1186 4.98471Z" fill="#201D67"/>
<path d="M28.5698 5.44953C28.756 5.4817 28.9213 5.46989 29.1005 5.43492C29.7897 5.26266 30.2516 4.49787 30.0803 3.81264C30.027 3.63903 29.9597 3.4886 29.8436 3.34054C29.739 3.19942 29.6088 3.07453 29.4693 2.99135C29.3181 2.90124 29.146 2.84589 28.9831 2.82758C28.8085 2.80233 28.6316 2.8072 28.4524 2.84217C28.0984 2.93063 27.8142 3.13942 27.6252 3.45229C27.5343 3.60293 27.4782 3.77437 27.4593 3.93649C27.4335 4.1102 27.4379 4.28619 27.4726 4.46445C27.5605 4.81633 27.7696 5.09858 28.0836 5.28574C28.2231 5.36893 28.3953 5.42428 28.5698 5.44953Z" fill="#201D67"/>
<path d="M31.3291 0.877238C31.5037 0.902482 31.6805 0.89762 31.8598 0.862649C32.556 0.678796 33.0179 -0.0859875 32.8396 -0.759627C32.7863 -0.933235 32.719 -1.08367 32.6028 -1.23172C32.4983 -1.37284 32.3681 -1.49773 32.2286 -1.58091C31.9146 -1.76807 31.5655 -1.81855 31.2116 -1.73009C31.037 -1.6766 30.8786 -1.59767 30.7365 -1.49327C30.5944 -1.38888 30.4685 -1.25903 30.3775 -1.10839C30.1886 -0.795523 30.1369 -0.448106 30.2249 -0.0962331C30.2782 0.0773757 30.3571 0.23475 30.4616 0.375872C30.5592 0.528581 30.6963 0.64187 30.8359 0.725053C30.9824 0.796648 31.1476 0.863581 31.3291 0.877238Z" fill="#201D67"/>
<path d="M34.4151 3.29854C34.0612 3.387 33.777 3.59578 33.588 3.90865C33.497 4.05929 33.4409 4.23073 33.4221 4.39285C33.3962 4.56656 33.4007 4.74256 33.4353 4.92082C33.4886 5.09443 33.5675 5.25181 33.6721 5.39293C33.7766 5.53405 33.9068 5.65893 34.0463 5.74211C34.3603 5.92928 34.7164 5.96816 35.0633 5.89129C35.5732 5.754 35.9904 5.32504 36.0633 4.78538C36.0962 4.60008 36.0848 4.43568 36.0501 4.25741C35.9551 3.91712 35.7414 3.61637 35.4391 3.43614C35.2879 3.34603 35.1157 3.29068 34.9528 3.27237C34.7713 3.25871 34.5944 3.26357 34.4151 3.29854Z" fill="#201D67"/>
<path d="M29.9219 80.4331L36.9137 68.8535C38.1582 66.7923 40.8385 66.1227 42.907 67.3561L45.1382 68.6865L33.6437 87.7234L31.4125 86.393C29.344 85.1596 28.6774 82.4943 29.9219 80.4331Z" stroke="#151254" stroke-width="2.26737" stroke-linecap="round" stroke-linejoin="round"/>
<path d="M37.5893 89.2732L48.367 71.4206C48.9611 70.4365 48.6418 69.1597 47.6544 68.5708C46.6669 67.9819 45.3831 68.3027 44.789 69.2868L34.0113 87.1393C33.4172 88.1234 33.7365 89.4003 34.724 89.9892C35.7114 90.5781 36.9952 90.2573 37.5893 89.2732Z" stroke="#151254" stroke-width="2.26737" stroke-linecap="round" stroke-linejoin="round"/>
<path d="M52.1738 86.6654L52.9151 85.4377C55.8876 80.5154 54.2947 74.1471 49.3543 71.2016L48.7382 70.8343L37.2402 89.8749L37.8563 90.2423C42.7967 93.1878 49.2014 91.5877 52.1738 86.6654Z" stroke="#151254" stroke-width="2.26737" stroke-linecap="round" stroke-linejoin="round"/>
<path d="M44.9248 68.3936C44.164 68.5542 43.3058 68.4835 42.7954 69.3288C42.2849 70.1742 42.7515 70.8934 42.9669 71.636" stroke="#151254" stroke-width="2.26737" stroke-linecap="round" stroke-linejoin="round"/>
<path d="M38.3657 79.2607C37.6049 79.4213 36.7467 79.3506 36.2363 80.196C35.7188 81.0529 36.1855 81.7722 36.4008 82.5148" stroke="#151254" stroke-width="2.26737" stroke-linecap="round" stroke-linejoin="round"/>
<path d="M32.9565 85.6543C33.4672 84.8087 34.3258 84.8794 35.0869 84.7188" stroke="#151254" stroke-width="2.26737" stroke-linecap="round" stroke-linejoin="round"/>
<path d="M41.6416 73.833C40.8808 73.9936 40.0226 73.9229 39.5122 74.7683C39.0017 75.6136 39.4683 76.3328 39.6837 77.0755" stroke="#151254" stroke-width="2.26737" stroke-linecap="round" stroke-linejoin="round"/>
</g>
<g opacity="0.25">
<path d="M731.248 88.3154L716.175 94.5585L731.769 99.4065" stroke="#151254" stroke-width="2.26737" stroke-linecap="round" stroke-linejoin="round"/>
<path d="M732.59 102.146C732.579 101.917 732.556 101.715 732.52 101.528C732.208 100.055 731.092 99.9034 731.005 98.0425C730.907 95.9524 732.296 95.8892 732.199 93.826C732.101 91.7359 730.712 91.799 730.615 89.7359C730.528 87.875 731.611 87.6365 731.797 86.128C731.816 85.9515 731.819 85.7351 731.809 85.5059" stroke="#151254" stroke-width="2.26737" stroke-linecap="round" stroke-linejoin="round"/>
<path d="M734.619 100.664C733.888 100.697 733.151 100.622 732.476 100.423C732.172 99.1522 731.053 99.0407 730.978 97.4487C730.894 95.6544 732.289 95.5912 732.206 93.8239C732.121 92.0296 730.726 92.0928 730.642 90.3255C730.567 88.7335 731.657 88.5084 731.854 87.2286C732.508 86.9827 733.234 86.8281 733.966 86.795C737.814 86.6207 741.076 89.5824 741.257 93.4139C741.438 97.2453 738.467 100.489 734.619 100.664Z" stroke="#151254" stroke-width="2.26737" stroke-linecap="round" stroke-linejoin="round"/>
<path d="M730.436 100.852L729.792 86.9902" stroke="#151254" stroke-width="2.26737" stroke-linecap="round" stroke-linejoin="round"/>
<path d="M735.904 231.08L735.437 221.101L734.003 221.166L734.47 231.145L735.904 231.08Z" stroke="#151254" stroke-width="2.26737" stroke-linecap="round" stroke-linejoin="round"/>
<path d="M747.657 236.598C747.7 237.515 746.866 238.256 745.961 238.081C740.327 236.918 735.972 232.075 735.691 226.087C735.41 220.098 739.293 214.88 744.794 213.211C745.678 212.941 746.578 213.603 746.622 214.533L747.657 236.598V236.598Z" stroke="#151254" stroke-width="2.26737" stroke-linecap="round" stroke-linejoin="round"/>
<path d="M746.897 220.182C746.97 221.754 748.311 222.97 749.89 222.898C751.47 222.826 752.691 221.494 752.617 219.922C752.543 218.35 751.203 217.133 749.623 217.205C748.044 217.277 746.823 218.61 746.897 220.182Z" stroke="#151254" stroke-width="2.26737" stroke-linecap="round" stroke-linejoin="round"/>
<path d="M747.613 230.932C747.687 232.504 749.027 233.72 750.607 233.648C752.187 233.576 753.408 232.244 753.334 230.672C753.26 229.1 751.92 227.883 750.34 227.955C748.76 228.027 747.54 229.36 747.613 230.932Z" stroke="#151254" stroke-width="2.26737" stroke-linecap="round" stroke-linejoin="round"/>
<path d="M747.37 225.999C747.426 227.184 748.436 228.1 749.626 228.046C750.816 227.992 751.736 226.988 751.681 225.803C751.625 224.619 750.615 223.702 749.425 223.756C748.234 223.81 747.314 224.815 747.37 225.999Z" stroke="#151254" stroke-width="2.26737" stroke-linecap="round" stroke-linejoin="round"/>
<path d="M752.358 218.378L756.65 213.694" stroke="#151254" stroke-width="2.26737" stroke-linecap="round" stroke-linejoin="round"/>
<path d="M742.377 215.079L743.37 236.438" stroke="#151254" stroke-width="2.26737" stroke-linecap="round" stroke-linejoin="round"/>
<path d="M644.849 252.816C642.342 250.241 640.722 246.653 640.56 242.619C640.4 238.613 641.703 234.891 643.984 232.058" stroke="#151254" stroke-width="2.26737" stroke-linecap="round" stroke-linejoin="round"/>
<path d="M638.422 232.953C636.796 235.934 635.949 239.312 636.088 242.848C636.255 246.99 637.764 250.775 640.218 253.867C641.215 255.12 643.062 255.401 644.432 254.5L645.869 253.556L651.717 249.653C651.717 249.653 655.879 246.882 659.805 244.27C661.702 243.007 661.601 240.281 659.622 239.208L644.929 231.224L643.479 230.439C642.044 229.666 640.204 230.128 639.318 231.493C638.986 231.954 638.697 232.454 638.422 232.953Z" stroke="#151254" stroke-width="2.26737" stroke-linecap="round" stroke-linejoin="round"/>
<path d="M646.95 237.504C647.071 237.174 647.054 236.81 646.903 236.492C646.827 236.32 646.726 236.19 646.597 236.06C646.328 235.829 645.983 235.696 645.63 235.712C645.264 235.729 644.945 235.878 644.7 236.146C644.454 236.415 644.334 236.744 644.351 237.109C644.368 237.473 644.519 237.791 644.788 238.035C645.058 238.28 645.403 238.399 645.756 238.383C646.108 238.367 646.44 238.203 646.686 237.949C646.816 237.821 646.904 237.669 646.95 237.504Z" fill="#201D67"/>
<path d="M645.868 242.878C645.989 242.548 645.972 242.184 645.821 241.866C645.746 241.708 645.644 241.564 645.515 241.434C645.246 241.203 644.901 241.07 644.548 241.086C644.182 241.103 643.863 241.252 643.618 241.521C643.372 241.789 643.252 242.118 643.269 242.483C643.286 242.847 643.437 243.165 643.706 243.409C643.976 243.654 644.307 243.774 644.673 243.757C645.026 243.741 645.358 243.577 645.604 243.323C645.72 243.196 645.809 243.057 645.868 242.878Z" fill="#201D67"/>
<path d="M647.195 248.602C647.673 248.08 647.632 247.189 647.107 246.713C646.838 246.482 646.492 246.349 646.139 246.365C645.773 246.382 645.454 246.531 645.209 246.799C644.963 247.067 644.843 247.397 644.86 247.762C644.868 247.937 644.917 248.11 644.992 248.256C645.067 248.415 645.169 248.559 645.297 248.688C645.567 248.933 645.899 249.053 646.265 249.036C646.603 249.007 646.948 248.843 647.195 248.602Z" fill="#201D67"/>
<path d="M651.993 245.989C652.166 245.914 652.297 245.813 652.427 245.686C652.905 245.164 652.863 244.273 652.338 243.797C652.197 243.682 652.057 243.593 651.878 243.534C651.712 243.474 651.534 243.442 651.371 243.449C651.195 243.457 651.021 243.505 650.875 243.58C650.715 243.655 650.571 243.756 650.441 243.883C650.195 244.151 650.075 244.481 650.092 244.846C650.1 245.021 650.149 245.194 650.224 245.34C650.299 245.499 650.401 245.643 650.529 245.772C650.799 246.017 651.131 246.137 651.497 246.12C651.659 246.113 651.834 246.064 651.993 245.989Z" fill="#201D67"/>
<path d="M651.746 240.663C651.905 240.588 652.05 240.487 652.18 240.36C652.657 239.824 652.615 238.934 652.091 238.471C651.95 238.356 651.81 238.267 651.63 238.208C651.464 238.148 651.286 238.115 651.124 238.123C650.758 238.139 650.439 238.289 650.193 238.557C650.078 238.698 649.99 238.85 649.929 239.015C649.869 239.18 649.837 239.357 649.845 239.533C649.862 239.897 650.013 240.215 650.282 240.459C650.424 240.575 650.577 240.662 650.743 240.722C650.91 240.796 651.087 240.815 651.25 240.807C651.412 240.786 651.587 240.751 651.746 240.663Z" fill="#201D67"/>
<path d="M655.661 240.98C655.415 241.248 655.295 241.578 655.312 241.943C655.32 242.118 655.369 242.292 655.444 242.437C655.519 242.596 655.621 242.74 655.749 242.869C655.891 242.984 656.044 243.072 656.21 243.132C656.376 243.192 656.554 243.225 656.717 243.217C657.083 243.2 657.401 243.037 657.647 242.783C657.995 242.388 658.104 241.802 657.864 241.313C657.788 241.141 657.686 241.01 657.558 240.881C657.289 240.649 656.943 240.516 656.591 240.533C656.414 240.541 656.24 240.589 656.094 240.663C655.935 240.752 655.791 240.853 655.661 240.98Z" fill="#201D67"/>
<path d="M709.044 165.489C705.496 164.017 702.933 160.622 702.744 156.549C702.482 150.927 706.867 146.144 712.523 145.884C717.554 145.653 721.913 149.075 723.003 153.808C719.959 154.11 717.553 156.45 717.132 159.388C716.764 159.351 716.382 159.328 716.002 159.346C712.449 159.509 709.595 162.14 709.044 165.489Z" stroke="#151254" stroke-width="2.26737" stroke-linecap="round" stroke-linejoin="round"/>
<path d="M718.388 151.601C718.35 150.778 717.64 150.134 716.813 150.172C715.986 150.21 715.34 150.915 715.378 151.738C715.417 152.561 716.126 153.204 716.953 153.167C717.794 153.128 718.427 152.423 718.388 151.601Z" fill="#201D67"/>
<path d="M726.088 147.937C726.049 147.114 725.34 146.47 724.513 146.508C723.686 146.546 723.039 147.251 723.078 148.074C723.116 148.897 723.825 149.54 724.652 149.502C725.492 149.451 726.126 148.759 726.088 147.937Z" fill="#201D67"/>
<path d="M713.966 156.169C713.928 155.346 713.218 154.703 712.391 154.741C711.564 154.778 710.918 155.484 710.956 156.307C710.994 157.129 711.704 157.773 712.531 157.735C713.372 157.696 714.004 156.992 713.966 156.169Z" fill="#201D67"/>
<path d="M707.991 157.741C707.991 157.741 707.815 157.465 707.581 157.111C707.362 156.77 707.172 156.481 707.172 156.481C707.172 156.481 707.348 156.757 707.581 157.111C707.815 157.452 707.991 157.741 707.991 157.741Z" stroke="#151254" stroke-width="2.26737" stroke-linecap="round" stroke-linejoin="round"/>
<path d="M711.564 150.699C711.564 150.699 711.443 151.016 711.298 151.401C711.153 151.786 711.032 152.102 711.032 152.102C711.032 152.102 711.153 151.786 711.298 151.401C711.443 151.016 711.564 150.699 711.564 150.699Z" stroke="#151254" stroke-width="2.26737" stroke-linecap="round" stroke-linejoin="round"/>
<path d="M719.784 143.619C719.784 143.619 720.026 143.851 720.324 144.134C720.623 144.418 720.865 144.65 720.865 144.65C720.865 144.65 720.623 144.418 720.324 144.134C720.026 143.851 719.784 143.619 719.784 143.619Z" stroke="#151254" stroke-width="2.26737" stroke-linecap="round" stroke-linejoin="round"/>
<path d="M712.166 142.604C713.702 141.128 715.751 140.183 718.043 140.077C723.047 139.847 727.289 143.693 727.521 148.668C727.707 152.687 725.221 156.22 721.614 157.548" stroke="#151254" stroke-width="2.26737" stroke-linecap="round" stroke-linejoin="round"/>
<path d="M619.491 28.583L604.418 34.826L620.011 39.6741" stroke="#151254" stroke-width="2.26737" stroke-linecap="round" stroke-linejoin="round"/>
<path d="M620.833 42.4137C620.822 42.1845 620.799 41.9828 620.763 41.7953C620.451 40.323 619.335 40.171 619.248 38.3101C619.15 36.22 620.539 36.1568 620.442 34.0936C620.344 32.0034 618.955 32.0666 618.858 30.0034C618.771 28.1425 619.854 27.9041 620.04 26.3956C620.059 26.219 620.063 26.0027 620.052 25.7734" stroke="#151254" stroke-width="2.26737" stroke-linecap="round" stroke-linejoin="round"/>
<path d="M622.863 40.9294C622.131 40.9625 621.395 40.8877 620.72 40.6884C620.416 39.4179 619.297 39.3063 619.222 37.7143C619.137 35.92 620.533 35.8568 620.449 34.0895C620.365 32.2952 618.969 32.3584 618.886 30.5911C618.811 28.9991 619.9 28.774 620.098 27.4942C620.752 27.2483 621.478 27.0937 622.209 27.0606C626.057 26.8863 629.32 29.8481 629.501 33.6795C629.681 37.511 626.711 40.7551 622.863 40.9294Z" stroke="#151254" stroke-width="2.26737" stroke-linecap="round" stroke-linejoin="round"/>
<path d="M618.68 41.1194L618.036 27.2578" stroke="#151254" stroke-width="2.26737" stroke-linecap="round" stroke-linejoin="round"/>
<path d="M618.109 171.626L617.641 161.647L616.207 161.713L616.675 171.692L618.109 171.626Z" stroke="#151254" stroke-width="2.26737" stroke-linecap="round" stroke-linejoin="round"/>
<path d="M629.861 177.146C629.904 178.063 629.07 178.804 628.166 178.629C622.531 177.466 618.176 172.623 617.895 166.635C617.614 160.646 621.497 155.428 626.999 153.759C627.882 153.489 628.782 154.151 628.826 155.081L629.861 177.146V177.146Z" stroke="#151254" stroke-width="2.26737" stroke-linecap="round" stroke-linejoin="round"/>
<path d="M629.102 160.729C629.175 162.301 630.516 163.517 632.095 163.445C633.675 163.373 634.896 162.041 634.822 160.469C634.748 158.897 633.408 157.68 631.828 157.752C630.249 157.824 629.028 159.157 629.102 160.729Z" stroke="#151254" stroke-width="2.26737" stroke-linecap="round" stroke-linejoin="round"/>
<path d="M629.818 171.479C629.892 173.051 631.233 174.267 632.812 174.195C634.392 174.123 635.613 172.791 635.539 171.219C635.465 169.646 634.125 168.43 632.545 168.502C630.965 168.574 629.745 169.907 629.818 171.479Z" stroke="#151254" stroke-width="2.26737" stroke-linecap="round" stroke-linejoin="round"/>
<path d="M629.575 166.544C629.631 167.729 630.641 168.645 631.831 168.591C633.022 168.537 633.941 167.533 633.886 166.348C633.83 165.163 632.82 164.247 631.63 164.301C630.439 164.355 629.52 165.36 629.575 166.544Z" stroke="#151254" stroke-width="2.26737" stroke-linecap="round" stroke-linejoin="round"/>
<path d="M634.562 158.925L638.854 154.241" stroke="#151254" stroke-width="2.26737" stroke-linecap="round" stroke-linejoin="round"/>
<path d="M624.581 155.627L625.574 176.986" stroke="#151254" stroke-width="2.26737" stroke-linecap="round" stroke-linejoin="round"/>
<path d="M664.309 111.807L663.176 87.5342C660.927 87.637 659.197 89.527 659.301 91.7654L660.056 107.947C660.161 110.185 662.06 111.909 664.309 111.807Z" stroke="#151254" stroke-width="2.26737" stroke-linecap="round" stroke-linejoin="round"/>
<path d="M675.948 99.1091C675.67 93.1483 670.591 88.5421 664.599 88.816L663.244 88.8779L664.252 110.456L665.607 110.394C671.599 110.12 676.227 105.07 675.948 99.1091Z" stroke="#151254" stroke-width="2.26737" stroke-linecap="round" stroke-linejoin="round"/>
<path d="M674.935 99.1543C674.995 100.458 676.107 101.466 677.418 101.406C678.728 101.346 679.741 100.241 679.68 98.9375C679.619 97.6339 678.508 96.6257 677.197 96.6856C675.887 96.7455 674.874 97.8508 674.935 99.1543Z" fill="#201D67"/>
<path d="M708.792 9.75488C708.735 13.5006 707.268 17.311 704.394 20.4023C701.546 23.4655 697.824 25.2445 694.038 25.6617" stroke="#151254" stroke-width="2.26737" stroke-linecap="round" stroke-linejoin="round"/>
<path d="M693.228 27.2374L692.744 25.5975L687.825 8.95949C687.164 6.71972 689.106 4.64411 691.438 5.10452L696.375 6.06679L696.691 6.13336L700.984 6.97662L701.395 7.05233L708.597 8.47812L710.353 8.82987C712.04 9.15775 713.186 10.7131 712.991 12.3707C712.515 16.4464 710.82 20.3349 707.869 23.5108C704.944 26.6721 701.163 28.67 697.085 29.5195C695.416 29.8665 693.711 28.8637 693.228 27.2374Z" stroke="#151254" stroke-width="2.26737" stroke-linecap="round" stroke-linejoin="round"/>
<path d="M697.094 16.871C697.15 18.0626 698.178 18.9833 699.392 18.9276C700.605 18.8718 701.544 17.8607 701.488 16.6692C701.433 15.4776 700.405 14.5569 699.191 14.6127C697.978 14.6684 697.039 15.6795 697.094 16.871Z" stroke="#151254" stroke-width="2.26737" stroke-linecap="round" stroke-linejoin="round"/>
<path d="M697.552 8.85245C696.758 8.14572 696.464 7.09169 696.719 6.1341L702.315 7.22829C702.216 7.74629 701.995 8.24294 701.607 8.66615C700.532 9.82356 698.715 9.90705 697.552 8.85245Z" stroke="#151254" stroke-width="2.26737" stroke-linecap="round" stroke-linejoin="round"/>
<path d="M689.9 10.9062C690.677 10.6678 691.554 10.8302 692.192 11.3955C693.156 12.2565 693.224 13.7128 692.344 14.6586C692.059 14.969 691.702 15.1881 691.313 15.3005" stroke="#151254" stroke-width="2.26737" stroke-linecap="round" stroke-linejoin="round"/>
</g>
</g>
</svg>
