<svg width="864" height="200" viewBox="0 0 864 200" fill="none" xmlns="http://www.w3.org/2000/svg">
<rect x="0.442383" y="0.424805" width="863.289" height="199.111" rx="21.3333" fill="#5C4EAE"/>
<mask id="mask0_1_10231" style="mask-type:alpha" maskUnits="userSpaceOnUse" x="0" y="0" width="864" height="200">
<rect opacity="0.8" x="0.443359" y="0.423584" width="863.289" height="199.111" rx="21.3333" fill="#6C5FBC"/>
</mask>
<g mask="url(#mask0_1_10231)">
<g opacity="0.25">
<path d="M333.473 100.657C330.711 103.335 326.95 104.964 322.8 104.933C318.679 104.903 314.918 103.244 312.114 100.535" stroke="#1C186C" stroke-width="3.29925" stroke-linecap="round" stroke-linejoin="round"/>
<path d="M312.78 106.82C315.763 108.798 319.191 109.924 322.827 109.955C327.088 109.985 331.043 108.494 334.332 105.907C335.665 104.856 336.039 102.802 335.179 101.219L334.277 99.5603L330.544 92.8031C330.544 92.8031 327.893 87.9939 325.395 83.4587C324.187 81.2672 321.384 81.2368 320.191 83.3979L311.308 99.4385L310.434 101.021C309.574 102.589 309.962 104.674 311.322 105.739C311.78 106.135 312.28 106.485 312.78 106.82Z" stroke="#1C186C" stroke-width="3.29925" stroke-linecap="round" stroke-linejoin="round"/>
<path d="M317.844 97.5084C317.511 97.3563 317.136 97.3563 316.803 97.5084C316.623 97.5844 316.484 97.6909 316.346 97.8278C316.096 98.1169 315.943 98.4971 315.943 98.8927C315.943 99.3034 316.082 99.6685 316.346 99.9575C316.609 100.247 316.942 100.399 317.317 100.399C317.691 100.399 318.024 100.247 318.288 99.9575C318.551 99.6685 318.69 99.2882 318.69 98.8927C318.69 98.4971 318.537 98.1169 318.288 97.8278C318.163 97.6757 318.01 97.5692 317.844 97.5084Z" fill="#201D67"/>
<path d="M323.312 98.9986C322.979 98.8465 322.604 98.8465 322.271 98.9986C322.105 99.0747 321.952 99.1811 321.813 99.3181C321.564 99.6071 321.411 99.9874 321.411 100.383C321.411 100.794 321.55 101.159 321.813 101.448C322.077 101.737 322.41 101.889 322.784 101.889C323.159 101.889 323.492 101.737 323.756 101.448C324.019 101.159 324.158 100.794 324.158 100.383C324.158 99.9874 324.005 99.6071 323.756 99.3181C323.631 99.1811 323.492 99.0747 323.312 98.9986Z" fill="#201D67"/>
<path d="M329.253 97.8115C328.739 97.2487 327.824 97.2487 327.31 97.8115C327.061 98.1006 326.908 98.4809 326.908 98.8764C326.908 99.2871 327.047 99.6522 327.31 99.9412C327.574 100.23 327.907 100.382 328.282 100.382C328.462 100.382 328.642 100.337 328.795 100.261C328.961 100.185 329.114 100.078 329.253 99.9412C329.516 99.6522 329.655 99.2871 329.655 98.8764C329.641 98.4961 329.488 98.1006 329.253 97.8115Z" fill="#201D67"/>
<path d="M326.795 92.2991C326.726 92.1014 326.628 91.9493 326.504 91.7971C325.99 91.2343 325.075 91.2343 324.561 91.7971C324.437 91.9493 324.34 92.1014 324.27 92.2991C324.201 92.4817 324.159 92.6794 324.159 92.862C324.159 93.0597 324.201 93.2575 324.27 93.4248C324.34 93.6074 324.437 93.7747 324.561 93.9268C324.825 94.2159 325.158 94.368 325.533 94.368C325.713 94.368 325.893 94.3223 326.046 94.2463C326.212 94.1702 326.365 94.0637 326.504 93.9268C326.767 93.6378 326.906 93.2727 326.906 92.862C326.906 92.6794 326.864 92.4817 326.795 92.2991Z" fill="#201D67"/>
<path d="M321.314 92.2991C321.245 92.1166 321.148 91.9493 321.023 91.7971C320.496 91.2343 319.58 91.2343 319.081 91.7971C318.956 91.9493 318.859 92.1014 318.79 92.2991C318.72 92.4817 318.679 92.6794 318.679 92.862C318.679 93.2727 318.817 93.6378 319.081 93.9268C319.22 94.0637 319.372 94.1702 319.539 94.2463C319.705 94.3223 319.886 94.368 320.066 94.368C320.44 94.368 320.773 94.2159 321.037 93.9268C321.162 93.7747 321.259 93.6074 321.328 93.4248C321.412 93.2423 321.439 93.0445 321.439 92.862C321.425 92.6794 321.398 92.4817 321.314 92.2991Z" fill="#201D67"/>
<path d="M321.827 87.9335C322.091 88.2225 322.424 88.3747 322.798 88.3747C322.979 88.3747 323.159 88.329 323.312 88.253C323.478 88.1769 323.631 88.0704 323.769 87.9335C323.894 87.7814 323.991 87.6141 324.061 87.4315C324.13 87.249 324.172 87.0512 324.172 86.8687C324.172 86.4579 324.019 86.0929 323.769 85.8038C323.381 85.3931 322.784 85.241 322.271 85.4844C322.091 85.5604 321.952 85.6669 321.813 85.8038C321.564 86.0929 321.411 86.4731 321.411 86.8687C321.411 87.0664 321.453 87.2642 321.522 87.4315C321.605 87.6141 321.702 87.7814 321.827 87.9335Z" fill="#201D67"/>
<path d="M664.517 33.3574C662.837 37.2534 659.229 39.9472 655.038 39.9472C649.251 39.9472 644.546 34.788 644.546 28.4417C644.546 22.7955 648.265 18.0929 653.178 17.1189C653.345 20.5431 655.635 23.3586 658.632 23.9826C658.577 24.3935 658.535 24.8196 658.535 25.2458C658.535 29.2331 661.103 32.566 664.517 33.3574Z" stroke="#1C186C" stroke-width="3.29925" stroke-linecap="round" stroke-linejoin="round"/>
<path d="M650.7 22.1702C649.853 22.1702 649.159 22.931 649.159 23.8593C649.159 24.7875 649.853 25.5484 650.7 25.5484C651.546 25.5484 652.24 24.7875 652.24 23.8593C652.24 22.9158 651.546 22.1702 650.7 22.1702Z" fill="#201D67"/>
<path d="M647.298 13.3582C646.452 13.3582 645.758 14.119 645.758 15.0473C645.758 15.9755 646.452 16.7364 647.298 16.7364C648.145 16.7364 648.838 15.9755 648.838 15.0473C648.825 14.1038 648.145 13.3582 647.298 13.3582Z" fill="#201D67"/>
<path d="M655.18 27.3591C654.333 27.3591 653.64 28.12 653.64 29.0482C653.64 29.9765 654.333 30.7373 655.18 30.7373C656.026 30.7373 656.72 29.9765 656.72 29.0482C656.72 28.1048 656.026 27.3591 655.18 27.3591Z" fill="#201D67"/>
<path d="M656.51 34.1343C656.51 34.1343 656.219 34.3168 655.845 34.5602C655.484 34.7884 655.179 34.9862 655.179 34.9862C655.179 34.9862 655.47 34.8036 655.845 34.5602C656.205 34.3168 656.51 34.1343 656.51 34.1343Z" stroke="#1C186C" stroke-width="3.29925" stroke-linecap="round" stroke-linejoin="round"/>
<path d="M649.445 29.7654C649.445 29.7654 649.764 29.9175 650.153 30.1C650.541 30.2826 650.86 30.4347 650.86 30.4347C650.86 30.4347 650.541 30.2826 650.153 30.1C649.764 29.9175 649.445 29.7654 649.445 29.7654Z" stroke="#1C186C" stroke-width="3.29925" stroke-linecap="round" stroke-linejoin="round"/>
<path d="M642.562 20.1898C642.562 20.1898 642.811 19.9312 643.116 19.6117C643.422 19.2923 643.671 19.0337 643.671 19.0337C643.671 19.0337 643.422 19.2923 643.116 19.6117C642.811 19.9312 642.562 20.1898 642.562 20.1898Z" stroke="#1C186C" stroke-width="3.29925" stroke-linecap="round" stroke-linejoin="round"/>
<path d="M641.16 28.6697C639.717 26.8739 638.843 24.5302 638.843 21.9582C638.843 16.3424 642.992 11.792 648.113 11.792C652.249 11.792 655.76 14.7597 656.954 18.8688" stroke="#1C186C" stroke-width="3.29925" stroke-linecap="round" stroke-linejoin="round"/>
<path d="M379.138 145.899C378.246 145.682 377.32 145.713 376.442 145.99C375.564 146.266 374.764 146.779 374.113 147.482C373.838 147.795 373.684 148.212 373.684 148.647C373.684 149.081 373.838 149.499 374.113 149.811L375.696 151.607" stroke="#1C186C" stroke-width="3.29925" stroke-linecap="round" stroke-linejoin="round"/>
<path d="M389.488 157.449C389.679 158.439 389.642 159.465 389.38 160.435C389.118 161.405 388.64 162.288 387.989 163.005C387.851 163.158 387.687 163.279 387.506 163.362C387.325 163.444 387.131 163.487 386.934 163.487C386.738 163.487 386.544 163.444 386.363 163.362C386.182 163.279 386.018 163.158 385.88 163.005L384.27 161.209" stroke="#1C186C" stroke-width="3.29925" stroke-linecap="round" stroke-linejoin="round"/>
<path d="M376.792 161.575C377.365 162.567 377.668 163.718 377.667 164.893C377.666 165.686 377.523 166.47 377.244 167.202C376.965 167.934 376.557 168.597 376.043 169.155C375.946 169.251 375.82 169.304 375.689 169.304C375.558 169.304 375.432 169.251 375.335 169.155C374.881 168.651 374.518 168.057 374.266 167.404C374.037 166.927 373.877 166.414 373.794 165.882C373.762 165.558 373.762 165.232 373.794 164.908C374.044 163.428 374.732 162.08 375.751 161.072C374.806 162.163 373.564 162.889 372.212 163.142C371.916 163.173 371.619 163.173 371.324 163.142C370.838 163.039 370.37 162.854 369.936 162.594C369.338 162.284 368.801 161.85 368.353 161.316C368.265 161.21 368.217 161.071 368.217 160.928C368.217 160.784 368.265 160.646 368.353 160.54C369.392 159.426 370.787 158.803 372.24 158.804C373.305 158.812 374.346 159.155 375.238 159.794" stroke="#1C186C" stroke-width="3.29925" stroke-linecap="round" stroke-linejoin="round"/>
<path d="M392.71 142.536C392.546 142.329 392.359 142.145 392.155 141.988C391.584 141.589 390.946 141.319 390.279 141.194C389.612 141.068 388.929 141.09 388.269 141.257C386.71 141.516 385.206 142.077 383.828 142.916C381.236 144.289 379.059 146.45 377.555 149.141C376.222 151.846 375.467 154.849 375.349 157.922C375.349 158.135 375.113 159.733 375.265 159.84L376.806 161.575C376.903 161.742 378.346 161.575 378.541 161.498C381.356 161.418 384.117 160.621 386.604 159.17C389.071 157.572 391.058 155.218 392.322 152.398C393.543 149.613 394.931 145.184 392.71 142.536Z" stroke="#1C186C" stroke-width="3.29925" stroke-linecap="round" stroke-linejoin="round"/>
<path d="M383.05 144.301C383.613 146.378 384.627 148.274 386.006 149.826C387.391 151.374 389.102 152.524 390.989 153.174" stroke="#1C186C" stroke-width="3.29925" stroke-linecap="round" stroke-linejoin="round"/>
<path d="M389.045 144.346C388.916 144.199 388.76 144.082 388.589 144.002C388.417 143.922 388.232 143.881 388.046 143.881C387.859 143.881 387.675 143.922 387.503 144.002C387.331 144.082 387.176 144.199 387.047 144.346C386.858 144.561 386.731 144.832 386.681 145.126C386.632 145.42 386.662 145.723 386.769 145.998C386.875 146.272 387.053 146.507 387.28 146.671C387.507 146.836 387.774 146.924 388.046 146.924C388.318 146.924 388.584 146.836 388.811 146.671C389.039 146.507 389.216 146.272 389.323 145.998C389.429 145.723 389.46 145.42 389.41 145.126C389.361 144.832 389.234 144.561 389.045 144.346Z" fill="#201D67"/>
<path d="M519.688 153.614L525.392 170.826L531.096 153.614" stroke="#1C186C" stroke-width="3.29925" stroke-linecap="round" stroke-linejoin="round"/>
<path d="M533.954 152.838C533.718 152.838 533.51 152.853 533.315 152.884C531.789 153.157 531.581 154.405 529.665 154.405C527.514 154.405 527.514 152.838 525.391 152.838C523.24 152.838 523.24 154.405 521.116 154.405C519.201 154.405 519.007 153.173 517.467 152.884C517.286 152.853 517.064 152.838 516.828 152.838" stroke="#1C186C" stroke-width="3.29925" stroke-linecap="round" stroke-linejoin="round"/>
<path d="M532.525 150.495C532.525 151.317 532.414 152.139 532.178 152.885C530.86 153.159 530.693 154.407 529.055 154.407C527.209 154.407 527.209 152.839 525.391 152.839C523.545 152.839 523.545 154.407 521.727 154.407C520.089 154.407 519.909 153.174 518.604 152.885C518.382 152.139 518.257 151.317 518.257 150.495C518.257 146.172 521.449 142.672 525.391 142.672C529.333 142.672 532.525 146.172 532.525 150.495Z" stroke="#1C186C" stroke-width="3.29925" stroke-linecap="round" stroke-linejoin="round"/>
<path d="M532.526 155.184H518.258" stroke="#1C186C" stroke-width="3.29925" stroke-linecap="round" stroke-linejoin="round"/>
<path d="M666.534 155.831H656.263V157.444H666.534V155.831Z" stroke="#1C186C" stroke-width="3.29925" stroke-linecap="round" stroke-linejoin="round"/>
<path d="M672.749 142.958C673.692 142.958 674.414 143.932 674.192 144.936C672.735 151.191 667.558 155.818 661.396 155.818C655.234 155.818 650.058 151.191 648.601 144.936C648.365 143.932 649.086 142.958 650.044 142.958H672.749V142.958Z" stroke="#1C186C" stroke-width="3.29925" stroke-linecap="round" stroke-linejoin="round"/>
<path d="M655.859 142.964C657.477 142.964 658.788 141.526 658.788 139.752C658.788 137.978 657.477 136.541 655.859 136.541C654.242 136.541 652.931 137.978 652.931 139.752C652.931 141.526 654.242 142.964 655.859 142.964Z" stroke="#1C186C" stroke-width="3.29925" stroke-linecap="round" stroke-linejoin="round"/>
<path d="M666.935 142.72C668.552 142.72 669.863 141.282 669.863 139.508C669.863 137.735 668.552 136.297 666.935 136.297C665.317 136.297 664.006 137.735 664.006 139.508C664.006 141.282 665.317 142.72 666.935 142.72Z" stroke="#1C186C" stroke-width="3.29925" stroke-linecap="round" stroke-linejoin="round"/>
<path d="M661.855 142.735C663.074 142.735 664.062 141.652 664.062 140.315C664.062 138.979 663.074 137.895 661.855 137.895C660.637 137.895 659.648 138.979 659.648 140.315C659.648 141.652 660.637 142.735 661.855 142.735Z" stroke="#1C186C" stroke-width="3.29925" stroke-linecap="round" stroke-linejoin="round"/>
<path d="M654.264 136.751L649.656 131.697" stroke="#1C186C" stroke-width="3.29925" stroke-linecap="round" stroke-linejoin="round"/>
<path d="M650.403 147.754H672.386" stroke="#1C186C" stroke-width="3.29925" stroke-linecap="round" stroke-linejoin="round"/>
<path d="M607.267 80.6545H582.286C582.286 83.1809 584.146 85.2202 586.45 85.2202H603.103C605.407 85.2202 607.267 83.1809 607.267 80.6545Z" stroke="#1C186C" stroke-width="3.29925" stroke-linecap="round" stroke-linejoin="round"/>
<path d="M594.775 66.9553C588.641 66.9553 583.673 72.4037 583.673 79.1304V80.6523H605.878V79.1304C605.878 72.4037 600.91 66.9553 594.775 66.9553Z" stroke="#1C186C" stroke-width="3.29925" stroke-linecap="round" stroke-linejoin="round"/>
<path d="M594.775 68.0993C596.116 68.0993 597.204 66.9067 597.204 65.4356C597.204 63.9645 596.116 62.772 594.775 62.772C593.433 62.772 592.346 63.9645 592.346 65.4356C592.346 66.9067 593.433 68.0993 594.775 68.0993Z" fill="#201D67"/>
<path d="M507.644 59.4202C511.488 59.6789 515.332 61.5204 518.371 64.8989C521.383 68.2471 523.034 72.5084 523.284 76.7696" stroke="#1C186C" stroke-width="3.29925" stroke-linecap="round" stroke-linejoin="round"/>
<path d="M524.868 77.7575L523.161 78.2141L505.841 82.8558C503.51 83.4798 501.47 81.197 502.053 78.6098L503.274 73.131L503.357 72.781L504.426 68.0175L504.523 67.5609L506.327 59.571L506.771 57.623C507.188 55.7511 508.839 54.5488 510.532 54.8532C514.696 55.5989 518.609 57.6991 521.732 61.169C524.841 64.6084 526.714 68.9458 527.394 73.5571C527.672 75.4443 526.562 77.301 524.868 77.7575Z" stroke="#1C186C" stroke-width="3.29925" stroke-linecap="round" stroke-linejoin="round"/>
<path d="M514.402 72.8903C515.629 72.8903 516.623 71.7863 516.623 70.4245C516.623 69.0627 515.629 67.9587 514.402 67.9587C513.176 67.9587 512.182 69.0627 512.182 70.4245C512.182 71.7863 513.176 72.8903 514.402 72.8903Z" stroke="#1C186C" stroke-width="3.29925" stroke-linecap="round" stroke-linejoin="round"/>
<path d="M506.189 71.9613C505.426 72.8137 504.329 73.0877 503.357 72.7528L504.745 66.5427C505.273 66.6797 505.773 66.9537 506.189 67.4103C507.327 68.6736 507.327 70.7132 506.189 71.9613Z" stroke="#1C186C" stroke-width="3.29925" stroke-linecap="round" stroke-linejoin="round"/>
<path d="M507.933 80.6355C507.725 79.7527 507.933 78.7786 508.544 78.0936C509.473 77.0586 510.972 77.0586 511.902 78.0936C512.208 78.4285 512.416 78.8395 512.513 79.2809" stroke="#1C186C" stroke-width="3.29925" stroke-linecap="round" stroke-linejoin="round"/>
<path d="M452.047 82.04L437.836 97.6241C436.323 99.283 436.323 101.962 437.836 103.62C439.348 105.279 441.791 105.279 443.304 103.62L457.515 88.0363C459.028 86.3774 459.028 83.6989 457.515 82.04C456.002 80.3812 453.56 80.3812 452.047 82.04Z" stroke="#1C186C" stroke-width="3.29925" stroke-linecap="round" stroke-linejoin="round"/>
<path d="M440.817 99.6987C442.455 97.9026 443.038 98.5419 444.69 96.7458C446.328 94.9498 445.745 94.3105 447.383 92.4992C449.02 90.7032 449.617 91.3425 451.255 89.5464C452.893 87.7504 452.31 87.0959 453.948 85.2998" stroke="#1C186C" stroke-width="3.29925" stroke-linecap="round" stroke-linejoin="round"/>
<path d="M447.132 80.2465L436.196 92.239C434.378 94.2326 434.378 97.4438 436.196 99.4375L453.682 80.2617C451.878 78.2529 448.936 78.2529 447.132 80.2465Z" stroke="#1C186C" stroke-width="3.29925" stroke-linecap="round" stroke-linejoin="round"/>
<path d="M448.216 105.416L459.152 93.4239C460.97 91.4302 460.97 88.219 459.152 86.2253L441.665 105.401C443.469 107.41 446.411 107.41 448.216 105.416Z" stroke="#1C186C" stroke-width="3.29925" stroke-linecap="round" stroke-linejoin="round"/>
<path d="M378.277 47.511H364.398C361.928 47.511 359.93 45.3194 359.93 42.6105V39.6885H382.745V42.6105C382.745 45.3194 380.747 47.511 378.277 47.511Z" stroke="#1C186C" stroke-width="3.29925" stroke-linecap="round" stroke-linejoin="round"/>
<path d="M382.037 34.9983H360.637C359.458 34.9983 358.5 36.0484 358.5 37.342C358.5 38.6356 359.458 39.6857 360.637 39.6857H382.037C383.217 39.6857 384.175 38.6356 384.175 37.342C384.175 36.0484 383.217 34.9983 382.037 34.9983Z" stroke="#1C186C" stroke-width="3.29925" stroke-linecap="round" stroke-linejoin="round"/>
<path d="M372.073 22.4902H370.602C364.704 22.4902 359.93 27.7255 359.93 34.1935V35.0001H382.745V34.1935C382.745 27.7255 377.971 22.4902 372.073 22.4902Z" stroke="#1C186C" stroke-width="3.29925" stroke-linecap="round" stroke-linejoin="round"/>
<path d="M359.776 40.0691C360.318 40.7082 360.706 41.5756 361.719 41.5756C362.732 41.5756 363.121 40.7082 363.662 40.0691" stroke="#1C186C" stroke-width="3.29925" stroke-linecap="round" stroke-linejoin="round"/>
<path d="M372.808 40.0693C373.349 40.7085 373.737 41.5758 374.75 41.5758C375.777 41.5758 376.166 40.7085 376.707 40.0693" stroke="#1C186C" stroke-width="3.29925" stroke-linecap="round" stroke-linejoin="round"/>
<path d="M381.288 41.5597C380.275 41.5597 379.887 40.6926 379.346 40.0537" stroke="#1C186C" stroke-width="3.29925" stroke-linecap="round" stroke-linejoin="round"/>
<path d="M366.299 40.0693C366.84 40.7085 367.229 41.5758 368.242 41.5758C369.255 41.5758 369.643 40.7085 370.184 40.0693" stroke="#1C186C" stroke-width="3.29925" stroke-linecap="round" stroke-linejoin="round"/>
<path d="M729.723 68.6921C726.961 71.3706 723.2 72.999 719.05 72.9686C714.929 72.9381 711.168 71.2793 708.364 68.5703" stroke="#1C186C" stroke-width="3.29925" stroke-linecap="round" stroke-linejoin="round"/>
<path d="M709.03 74.8541C712.013 76.8325 715.441 77.9587 719.077 77.9892C723.338 78.0196 727.293 76.5281 730.582 73.9409C731.915 72.8908 732.289 70.8363 731.429 69.2535L730.527 67.5947L726.794 60.8375C726.794 60.8375 724.143 56.0284 721.645 51.4932C720.437 49.3016 717.634 49.2712 716.441 51.4323L707.558 67.4729L706.684 69.0557C705.824 70.6233 706.212 72.7082 707.572 73.7735C708.03 74.1692 708.53 74.5193 709.03 74.8541Z" stroke="#1C186C" stroke-width="3.29925" stroke-linecap="round" stroke-linejoin="round"/>
<path d="M714.096 65.5399C713.763 65.3878 713.388 65.3878 713.055 65.5399C712.875 65.6159 712.736 65.7224 712.598 65.8593C712.348 66.1483 712.195 66.5286 712.195 66.9242C712.195 67.3349 712.334 67.7 712.598 67.989C712.861 68.278 713.194 68.4302 713.569 68.4302C713.943 68.4302 714.276 68.278 714.54 67.989C714.803 67.7 714.942 67.3197 714.942 66.9242C714.942 66.5286 714.789 66.1483 714.54 65.8593C714.415 65.7072 714.262 65.6007 714.096 65.5399Z" fill="#201D67"/>
<path d="M719.565 67.035C719.232 66.8829 718.857 66.8829 718.524 67.035C718.358 67.1111 718.205 67.2175 718.066 67.3544C717.817 67.6435 717.664 68.0238 717.664 68.4193C717.664 68.83 717.803 69.1951 718.066 69.4841C718.33 69.7732 718.663 69.9253 719.037 69.9253C719.412 69.9253 719.745 69.7732 720.008 69.4841C720.272 69.1951 720.411 68.83 720.411 68.4193C720.411 68.0238 720.258 67.6435 720.008 67.3544C719.884 67.2175 719.745 67.1111 719.565 67.035Z" fill="#201D67"/>
<path d="M725.505 65.845C724.991 65.2821 724.076 65.2821 723.562 65.845C723.313 66.134 723.16 66.5143 723.16 66.9098C723.16 67.3206 723.299 67.6856 723.562 67.9747C723.826 68.2637 724.159 68.4158 724.533 68.4158C724.714 68.4158 724.894 68.3702 725.047 68.2941C725.213 68.2181 725.366 68.1116 725.505 67.9747C725.768 67.6856 725.907 67.3206 725.907 66.9098C725.893 66.5295 725.74 66.134 725.505 65.845Z" fill="#201D67"/>
<path d="M723.045 60.3345C722.976 60.1368 722.878 59.9847 722.754 59.8325C722.24 59.2697 721.325 59.2697 720.811 59.8325C720.687 59.9847 720.59 60.1368 720.52 60.3345C720.451 60.5171 720.409 60.7148 720.409 60.8974C720.409 61.0951 720.451 61.2929 720.52 61.4602C720.59 61.6428 720.687 61.8101 720.811 61.9622C721.075 62.2513 721.408 62.4034 721.783 62.4034C721.963 62.4034 722.143 62.3577 722.296 62.2817C722.462 62.2056 722.615 62.0991 722.754 61.9622C723.017 61.6732 723.156 61.3081 723.156 60.8974C723.156 60.7148 723.114 60.5171 723.045 60.3345Z" fill="#201D67"/>
<path d="M717.563 60.3345C717.494 60.152 717.397 59.9847 717.272 59.8325C716.745 59.2697 715.829 59.2697 715.33 59.8325C715.205 59.9847 715.108 60.1368 715.039 60.3345C714.969 60.5171 714.928 60.7148 714.928 60.8974C714.928 61.3081 715.066 61.6732 715.33 61.9622C715.469 62.0991 715.621 62.2056 715.788 62.2817C715.954 62.3577 716.135 62.4034 716.315 62.4034C716.689 62.4034 717.022 62.2513 717.286 61.9622C717.411 61.8101 717.508 61.6428 717.577 61.4602C717.661 61.2777 717.688 61.0799 717.688 60.8974C717.674 60.7148 717.647 60.5171 717.563 60.3345Z" fill="#201D67"/>
<path d="M718.08 55.967C718.344 56.256 718.677 56.4081 719.051 56.4081C719.232 56.4081 719.412 56.3625 719.565 56.2864C719.731 56.2104 719.884 56.1039 720.022 55.967C720.147 55.8148 720.244 55.6475 720.314 55.465C720.383 55.2824 720.425 55.0847 720.425 54.9021C720.425 54.4914 720.272 54.1263 720.022 53.8373C719.634 53.4265 719.037 53.2744 718.524 53.5178C718.344 53.5939 718.205 53.7004 718.066 53.8373C717.817 54.1263 717.664 54.5066 717.664 54.9021C717.664 55.0999 717.706 55.2976 717.775 55.465C717.858 55.6475 717.955 55.8148 718.08 55.967Z" fill="#201D67"/>
<path d="M597.899 182.502C596.22 186.398 592.612 189.091 588.421 189.091C582.633 189.091 577.929 183.932 577.929 177.586C577.929 171.94 581.648 167.237 586.561 166.263C586.727 169.687 589.017 172.503 592.015 173.127C591.96 173.538 591.918 173.964 591.918 174.39C591.918 178.377 594.485 181.71 597.899 182.502Z" stroke="#1C186C" stroke-width="3.29925" stroke-linecap="round" stroke-linejoin="round"/>
<path d="M584.075 171.318C583.228 171.318 582.534 172.079 582.534 173.007C582.534 173.935 583.228 174.696 584.075 174.696C584.921 174.696 585.615 173.935 585.615 173.007C585.615 172.064 584.921 171.318 584.075 171.318Z" fill="#201D67"/>
<path d="M580.673 162.507C579.827 162.507 579.133 163.268 579.133 164.196C579.133 165.124 579.827 165.885 580.673 165.885C581.52 165.885 582.213 165.124 582.213 164.196C582.2 163.252 581.52 162.507 580.673 162.507Z" fill="#201D67"/>
<path d="M588.556 176.51C587.709 176.51 587.016 177.271 587.016 178.199C587.016 179.127 587.709 179.888 588.556 179.888C589.402 179.888 590.096 179.127 590.096 178.199C590.096 177.255 589.402 176.51 588.556 176.51Z" fill="#201D67"/>
<path d="M589.893 183.276C589.893 183.276 589.602 183.458 589.227 183.702C588.867 183.93 588.562 184.128 588.562 184.128C588.562 184.128 588.853 183.945 589.227 183.702C589.588 183.458 589.893 183.276 589.893 183.276Z" stroke="#1C186C" stroke-width="3.29925" stroke-linecap="round" stroke-linejoin="round"/>
<path d="M582.828 178.911C582.828 178.911 583.147 179.063 583.536 179.245C583.924 179.428 584.243 179.58 584.243 179.58C584.243 179.58 583.924 179.428 583.536 179.245C583.147 179.063 582.828 178.911 582.828 178.911Z" stroke="#1C186C" stroke-width="3.29925" stroke-linecap="round" stroke-linejoin="round"/>
<path d="M575.944 169.335C575.944 169.335 576.194 169.076 576.499 168.757C576.804 168.438 577.054 168.179 577.054 168.179C577.054 168.179 576.804 168.438 576.499 168.757C576.194 169.076 575.944 169.335 575.944 169.335Z" stroke="#1C186C" stroke-width="3.29925" stroke-linecap="round" stroke-linejoin="round"/>
<path d="M574.543 177.813C573.1 176.017 572.226 173.673 572.226 171.101C572.226 165.486 576.375 160.935 581.496 160.935C585.632 160.935 589.143 163.903 590.337 168.012" stroke="#1C186C" stroke-width="3.29925" stroke-linecap="round" stroke-linejoin="round"/>
<path d="M781.578 113.94C780.687 113.722 779.76 113.754 778.882 114.03C778.005 114.307 777.204 114.82 776.554 115.523C776.278 115.835 776.124 116.252 776.124 116.687C776.124 117.122 776.278 117.539 776.554 117.851L778.136 119.647" stroke="#1C186C" stroke-width="3.29925" stroke-linecap="round" stroke-linejoin="round"/>
<path d="M791.929 125.49C792.119 126.48 792.082 127.506 791.821 128.476C791.559 129.446 791.081 130.329 790.43 131.046C790.292 131.199 790.127 131.32 789.946 131.403C789.765 131.486 789.571 131.528 789.375 131.528C789.179 131.528 788.985 131.486 788.803 131.403C788.622 131.32 788.458 131.199 788.32 131.046L786.71 129.25" stroke="#1C186C" stroke-width="3.29925" stroke-linecap="round" stroke-linejoin="round"/>
<path d="M779.233 129.614C779.805 130.607 780.108 131.757 780.107 132.932C780.107 133.725 779.963 134.51 779.684 135.241C779.406 135.973 778.997 136.637 778.483 137.194C778.386 137.29 778.26 137.343 778.129 137.343C777.998 137.343 777.872 137.29 777.775 137.194C777.321 136.69 776.959 136.096 776.706 135.444C776.477 134.967 776.318 134.453 776.235 133.921C776.203 133.598 776.203 133.271 776.235 132.947C776.484 131.467 777.172 130.119 778.192 129.112C777.246 130.202 776.005 130.929 774.652 131.182C774.357 131.212 774.059 131.212 773.764 131.182C773.278 131.078 772.81 130.893 772.376 130.634C771.779 130.323 771.241 129.889 770.794 129.355C770.706 129.249 770.657 129.111 770.657 128.967C770.657 128.824 770.706 128.685 770.794 128.579C771.832 127.465 773.227 126.842 774.68 126.844C775.745 126.851 776.786 127.195 777.678 127.833" stroke="#1C186C" stroke-width="3.29925" stroke-linecap="round" stroke-linejoin="round"/>
<path d="M795.151 110.576C794.986 110.37 794.8 110.186 794.595 110.028C794.025 109.629 793.387 109.359 792.72 109.234C792.052 109.108 791.369 109.13 790.71 109.298C789.151 109.556 787.647 110.118 786.269 110.957C783.677 112.329 781.499 114.49 779.996 117.181C778.662 119.887 777.908 122.89 777.789 125.962C777.789 126.175 777.553 127.773 777.706 127.88L779.246 129.615C779.343 129.782 780.787 129.615 780.981 129.539C783.797 129.458 786.557 128.661 789.044 127.21C791.511 125.612 793.499 123.258 794.762 120.438C795.983 117.653 797.371 113.224 795.151 110.576Z" stroke="#1C186C" stroke-width="3.29925" stroke-linecap="round" stroke-linejoin="round"/>
<path d="M785.493 112.341C786.056 114.418 787.071 116.314 788.45 117.866C789.834 119.414 791.546 120.564 793.433 121.215" stroke="#1C186C" stroke-width="3.29925" stroke-linecap="round" stroke-linejoin="round"/>
<path d="M791.485 112.387C791.356 112.239 791.201 112.122 791.029 112.042C790.857 111.962 790.673 111.921 790.486 111.921C790.3 111.921 790.115 111.962 789.943 112.042C789.772 112.122 789.617 112.239 789.487 112.387C789.298 112.602 789.171 112.873 789.122 113.166C789.072 113.46 789.103 113.763 789.209 114.038C789.316 114.313 789.494 114.547 789.721 114.712C789.948 114.876 790.214 114.964 790.486 114.964C790.759 114.964 791.025 114.876 791.252 114.712C791.479 114.547 791.657 114.313 791.763 114.038C791.87 113.763 791.9 113.46 791.851 113.166C791.801 112.873 791.674 112.602 791.485 112.387Z" fill="#201D67"/>
<path d="M437.941 174.677C441.786 174.936 445.63 176.777 448.669 180.156C451.681 183.504 453.332 187.765 453.582 192.027" stroke="#1C186C" stroke-width="3.29925" stroke-linecap="round" stroke-linejoin="round"/>
<path d="M455.165 193.015L453.458 193.471L436.138 198.113C433.807 198.737 431.767 196.454 432.35 193.867L433.571 188.388L433.654 188.038L434.723 183.275L434.82 182.818L436.624 174.828L437.068 172.88C437.485 171.008 439.136 169.806 440.829 170.11C444.993 170.856 448.906 172.956 452.029 176.426C455.138 179.866 457.011 184.203 457.691 188.814C457.969 190.701 456.858 192.558 455.165 193.015Z" stroke="#1C186C" stroke-width="3.29925" stroke-linecap="round" stroke-linejoin="round"/>
<path d="M444.699 188.148C445.926 188.148 446.92 187.044 446.92 185.683C446.92 184.321 445.926 183.217 444.699 183.217C443.473 183.217 442.479 184.321 442.479 185.683C442.479 187.044 443.473 188.148 444.699 188.148Z" stroke="#1C186C" stroke-width="3.29925" stroke-linecap="round" stroke-linejoin="round"/>
<path d="M436.486 187.217C435.722 188.07 434.626 188.344 433.654 188.009L435.042 181.799C435.57 181.936 436.069 182.21 436.486 182.666C437.624 183.93 437.624 185.969 436.486 187.217Z" stroke="#1C186C" stroke-width="3.29925" stroke-linecap="round" stroke-linejoin="round"/>
<path d="M438.231 195.895C438.022 195.012 438.231 194.038 438.841 193.353C439.771 192.318 441.27 192.318 442.2 193.353C442.506 193.688 442.714 194.098 442.811 194.54" stroke="#1C186C" stroke-width="3.29925" stroke-linecap="round" stroke-linejoin="round"/>
<path d="M838.646 165.171C842.491 165.43 846.335 167.272 849.374 170.65C852.386 173.998 854.037 178.26 854.287 182.521" stroke="#1C186C" stroke-width="3.29925" stroke-linecap="round" stroke-linejoin="round"/>
<path d="M855.872 183.51L854.165 183.966L836.845 188.608C834.514 189.232 832.474 186.949 833.057 184.362L834.278 178.883L834.361 178.533L835.43 173.77L835.527 173.313L837.331 165.323L837.775 163.375C838.192 161.503 839.843 160.301 841.536 160.605C845.7 161.351 849.613 163.451 852.736 166.921C855.845 170.361 857.718 174.698 858.398 179.309C858.676 181.196 857.566 183.053 855.872 183.51Z" stroke="#1C186C" stroke-width="3.29925" stroke-linecap="round" stroke-linejoin="round"/>
<path d="M845.407 178.642C846.634 178.642 847.628 177.538 847.628 176.176C847.628 174.814 846.634 173.71 845.407 173.71C844.181 173.71 843.187 174.814 843.187 176.176C843.187 177.538 844.181 178.642 845.407 178.642Z" stroke="#1C186C" stroke-width="3.29925" stroke-linecap="round" stroke-linejoin="round"/>
<path d="M837.192 177.712C836.428 178.564 835.332 178.838 834.36 178.503L835.748 172.293C836.276 172.43 836.775 172.704 837.192 173.161C838.33 174.424 838.33 176.463 837.192 177.712Z" stroke="#1C186C" stroke-width="3.29925" stroke-linecap="round" stroke-linejoin="round"/>
<path d="M838.939 186.388C838.73 185.505 838.939 184.531 839.549 183.846C840.479 182.811 841.978 182.811 842.908 183.846C843.214 184.181 843.422 184.592 843.519 185.033" stroke="#1C186C" stroke-width="3.29925" stroke-linecap="round" stroke-linejoin="round"/>
<path d="M851.386 50.0811L837.175 65.6652C835.662 67.324 835.662 70.0025 837.175 71.6614C838.687 73.3202 841.13 73.3202 842.643 71.6614L856.854 56.0773C858.367 54.4184 858.367 51.7399 856.854 50.0811C855.341 48.4222 852.899 48.4222 851.386 50.0811Z" stroke="#1C186C" stroke-width="3.29925" stroke-linecap="round" stroke-linejoin="round"/>
<path d="M840.156 67.737C841.794 65.941 842.377 66.5802 844.029 64.7842C845.667 62.9881 845.084 62.3488 846.721 60.5376C848.359 58.7415 848.956 59.3808 850.594 57.5847C852.232 55.7887 851.649 55.1342 853.287 53.3381" stroke="#1C186C" stroke-width="3.29925" stroke-linecap="round" stroke-linejoin="round"/>
<path d="M846.471 48.2858L835.535 60.2783C833.717 62.2719 833.717 65.4831 835.535 67.4768L853.022 48.3011C851.218 46.2922 848.276 46.2922 846.471 48.2858Z" stroke="#1C186C" stroke-width="3.29925" stroke-linecap="round" stroke-linejoin="round"/>
<path d="M847.555 73.4554L858.491 61.4629C860.309 59.4692 860.309 56.2581 858.491 54.2644L841.005 73.4401C842.809 75.449 845.751 75.449 847.555 73.4554Z" stroke="#1C186C" stroke-width="3.29925" stroke-linecap="round" stroke-linejoin="round"/>
<path d="M311.663 196.653H297.785C295.315 196.653 293.316 194.461 293.316 191.752V188.83H316.132V191.752C316.132 194.461 314.134 196.653 311.663 196.653Z" stroke="#1C186C" stroke-width="3.29925" stroke-linecap="round" stroke-linejoin="round"/>
<path d="M315.426 184.14H294.026C292.846 184.14 291.889 185.19 291.889 186.484C291.889 187.777 292.846 188.828 294.026 188.828H315.426C316.606 188.828 317.563 187.777 317.563 186.484C317.563 185.19 316.606 184.14 315.426 184.14Z" stroke="#1C186C" stroke-width="3.29925" stroke-linecap="round" stroke-linejoin="round"/>
<path d="M305.46 171.632H303.989C298.09 171.632 293.316 176.867 293.316 183.335V184.142H316.132V183.335C316.132 176.867 311.358 171.632 305.46 171.632Z" stroke="#1C186C" stroke-width="3.29925" stroke-linecap="round" stroke-linejoin="round"/>
<path d="M293.166 189.208C293.707 189.847 294.096 190.714 295.109 190.714C296.122 190.714 296.51 189.847 297.051 189.208" stroke="#1C186C" stroke-width="3.29925" stroke-linecap="round" stroke-linejoin="round"/>
<path d="M306.198 189.208C306.739 189.847 307.128 190.714 308.141 190.714C309.168 190.714 309.556 189.847 310.098 189.208" stroke="#1C186C" stroke-width="3.29925" stroke-linecap="round" stroke-linejoin="round"/>
<path d="M314.679 190.699C313.667 190.699 313.278 189.832 312.737 189.193" stroke="#1C186C" stroke-width="3.29925" stroke-linecap="round" stroke-linejoin="round"/>
<path d="M299.69 189.208C300.232 189.847 300.62 190.714 301.633 190.714C302.646 190.714 303.035 189.847 303.576 189.208" stroke="#1C186C" stroke-width="3.29925" stroke-linecap="round" stroke-linejoin="round"/>
<path d="M788.443 15.5503H774.564C772.094 15.5503 770.096 13.3588 770.096 10.6498V7.72778H792.911V10.6498C792.911 13.3588 790.913 15.5503 788.443 15.5503Z" stroke="#1C186C" stroke-width="3.29925" stroke-linecap="round" stroke-linejoin="round"/>
<path d="M792.206 3.03857H770.806C769.627 3.03857 768.669 4.08867 768.669 5.38228C768.669 6.67588 769.627 7.72598 770.806 7.72598H792.206C793.386 7.72598 794.344 6.67588 794.344 5.38228C794.344 4.08867 793.386 3.03857 792.206 3.03857Z" stroke="#1C186C" stroke-width="3.29925" stroke-linecap="round" stroke-linejoin="round"/>
<path d="M782.239 -9.47046H780.768C774.87 -9.47046 770.096 -4.23518 770.096 2.23283V3.03943H792.911V2.23283C792.911 -4.23518 788.137 -9.47046 782.239 -9.47046Z" stroke="#1C186C" stroke-width="3.29925" stroke-linecap="round" stroke-linejoin="round"/>
<path d="M769.946 8.10767C770.487 8.74679 770.876 9.61416 771.889 9.61416C772.902 9.61416 773.291 8.74679 773.832 8.10767" stroke="#1C186C" stroke-width="3.29925" stroke-linecap="round" stroke-linejoin="round"/>
<path d="M782.977 8.10767C783.518 8.74679 783.906 9.61416 784.919 9.61416C785.946 9.61416 786.335 8.74679 786.876 8.10767" stroke="#1C186C" stroke-width="3.29925" stroke-linecap="round" stroke-linejoin="round"/>
<path d="M791.46 9.59902C790.447 9.59902 790.059 8.73193 789.518 8.09302" stroke="#1C186C" stroke-width="3.29925" stroke-linecap="round" stroke-linejoin="round"/>
<path d="M776.47 8.10767C777.011 8.74679 777.399 9.61416 778.412 9.61416C779.425 9.61416 779.814 8.74679 780.355 8.10767" stroke="#1C186C" stroke-width="3.29925" stroke-linecap="round" stroke-linejoin="round"/>
<path d="M737.091 205.785H723.213C720.743 205.785 718.744 203.593 718.744 200.884V197.962H741.56V200.884C741.56 203.593 739.561 205.785 737.091 205.785Z" stroke="#1C186C" stroke-width="3.29925" stroke-linecap="round" stroke-linejoin="round"/>
<path d="M740.854 193.274H719.454C718.274 193.274 717.316 194.324 717.316 195.618C717.316 196.911 718.274 197.962 719.454 197.962H740.854C742.033 197.962 742.991 196.911 742.991 195.618C742.991 194.324 742.033 193.274 740.854 193.274Z" stroke="#1C186C" stroke-width="3.29925" stroke-linecap="round" stroke-linejoin="round"/>
<path d="M730.888 180.764H729.416C723.518 180.764 718.744 185.999 718.744 192.467V193.274H741.56V192.467C741.56 185.999 736.786 180.764 730.888 180.764Z" stroke="#1C186C" stroke-width="3.29925" stroke-linecap="round" stroke-linejoin="round"/>
<path d="M718.591 198.343C719.132 198.982 719.521 199.85 720.534 199.85C721.547 199.85 721.935 198.982 722.476 198.343" stroke="#1C186C" stroke-width="3.29925" stroke-linecap="round" stroke-linejoin="round"/>
<path d="M731.621 198.343C732.162 198.982 732.551 199.85 733.564 199.85C734.591 199.85 734.979 198.982 735.52 198.343" stroke="#1C186C" stroke-width="3.29925" stroke-linecap="round" stroke-linejoin="round"/>
<path d="M740.103 199.834C739.091 199.834 738.702 198.967 738.161 198.328" stroke="#1C186C" stroke-width="3.29925" stroke-linecap="round" stroke-linejoin="round"/>
<path d="M725.113 198.343C725.654 198.982 726.043 199.85 727.056 199.85C728.069 199.85 728.458 198.982 728.999 198.343" stroke="#1C186C" stroke-width="3.29925" stroke-linecap="round" stroke-linejoin="round"/>
</g>
<g opacity="0.25">
<path d="M177.349 193.091C180.113 190.416 183.876 188.791 188.026 188.826C192.147 188.861 195.907 190.524 198.707 193.236" stroke="#1C186C" stroke-width="3.29925" stroke-linecap="round" stroke-linejoin="round"/>
<path d="M198.047 186.95C195.065 184.969 191.639 183.839 188.003 183.804C183.742 183.769 179.785 185.257 176.493 187.84C175.16 188.889 174.783 190.943 175.642 192.527L176.542 194.187L180.268 200.948C180.268 200.948 182.914 205.76 185.407 210.298C186.612 212.49 189.415 212.524 190.611 210.364L199.51 194.333L200.386 192.751C201.248 191.185 200.862 189.099 199.503 188.032C199.046 187.636 198.546 187.286 198.047 186.95Z" stroke="#1C186C" stroke-width="3.29925" stroke-linecap="round" stroke-linejoin="round"/>
<path d="M192.97 196.257C193.303 196.409 193.677 196.41 194.01 196.258C194.191 196.182 194.329 196.076 194.468 195.939C194.718 195.65 194.871 195.27 194.872 194.875C194.872 194.464 194.734 194.099 194.471 193.809C194.207 193.52 193.875 193.368 193.5 193.367C193.125 193.367 192.792 193.519 192.528 193.807C192.265 194.096 192.125 194.476 192.125 194.872C192.125 195.267 192.277 195.648 192.526 195.937C192.651 196.089 192.803 196.196 192.97 196.257Z" fill="#201D67"/>
<path d="M187.507 194.759C187.84 194.911 188.214 194.912 188.547 194.76C188.714 194.684 188.867 194.578 189.005 194.441C189.255 194.152 189.408 193.772 189.409 193.377C189.409 192.966 189.271 192.601 189.008 192.311C188.744 192.022 188.412 191.87 188.037 191.869C187.663 191.869 187.329 192.02 187.066 192.309C186.802 192.598 186.663 192.963 186.662 193.374C186.662 193.769 186.814 194.15 187.063 194.439C187.188 194.576 187.327 194.683 187.507 194.759Z" fill="#201D67"/>
<path d="M181.566 195.939C182.079 196.502 182.994 196.503 183.508 195.941C183.758 195.652 183.911 195.272 183.912 194.876C183.912 194.466 183.774 194.1 183.511 193.811C183.247 193.522 182.915 193.369 182.54 193.369C182.36 193.369 182.179 193.414 182.027 193.49C181.86 193.566 181.707 193.672 181.569 193.809C181.305 194.098 181.166 194.463 181.165 194.873C181.179 195.254 181.331 195.649 181.566 195.939Z" fill="#201D67"/>
<path d="M184.016 201.452C184.085 201.65 184.182 201.802 184.306 201.955C184.819 202.518 185.735 202.519 186.249 201.957C186.374 201.805 186.471 201.653 186.54 201.455C186.61 201.273 186.652 201.075 186.652 200.892C186.652 200.695 186.611 200.497 186.542 200.329C186.472 200.147 186.376 199.979 186.251 199.827C185.988 199.538 185.655 199.385 185.28 199.385C185.1 199.385 184.92 199.43 184.767 199.506C184.6 199.582 184.448 199.688 184.309 199.825C184.045 200.114 183.906 200.479 183.905 200.889C183.905 201.072 183.947 201.27 184.016 201.452Z" fill="#201D67"/>
<path d="M189.498 201.459C189.567 201.642 189.664 201.809 189.789 201.962C190.315 202.525 191.231 202.526 191.731 201.964C191.856 201.812 191.953 201.66 192.023 201.462C192.092 201.28 192.134 201.082 192.134 200.899C192.135 200.489 191.997 200.123 191.733 199.834C191.595 199.697 191.442 199.59 191.276 199.514C191.109 199.438 190.929 199.392 190.749 199.392C190.374 199.391 190.041 199.543 189.777 199.832C189.652 199.984 189.555 200.151 189.485 200.334C189.402 200.516 189.374 200.714 189.374 200.896C189.388 201.079 189.415 201.277 189.498 201.459Z" fill="#201D67"/>
<path d="M131.727 147.801C132.618 148.019 133.545 147.989 134.423 147.713C135.301 147.438 136.102 146.926 136.753 146.223C137.029 145.911 137.183 145.494 137.184 145.059C137.184 144.625 137.031 144.207 136.755 143.895L135.175 142.097" stroke="#1C186C" stroke-width="3.29925" stroke-linecap="round" stroke-linejoin="round"/>
<path d="M121.388 136.239C121.198 135.249 121.236 134.223 121.499 133.253C121.762 132.283 122.241 131.401 122.893 130.685C123.031 130.532 123.195 130.411 123.376 130.328C123.558 130.246 123.752 130.204 123.948 130.204C124.144 130.204 124.338 130.247 124.519 130.33C124.7 130.413 124.864 130.534 125.002 130.687L126.61 132.485" stroke="#1C186C" stroke-width="3.29925" stroke-linecap="round" stroke-linejoin="round"/>
<path d="M134.088 132.125C133.516 131.132 133.214 129.981 133.217 128.806C133.218 128.013 133.363 127.229 133.642 126.498C133.922 125.766 134.331 125.103 134.845 124.546C134.942 124.45 135.069 124.397 135.199 124.397C135.33 124.397 135.456 124.451 135.553 124.547C136.007 125.052 136.369 125.646 136.62 126.299C136.849 126.776 137.008 127.29 137.09 127.821C137.122 128.145 137.121 128.472 137.089 128.795C136.838 130.275 136.149 131.623 135.128 132.629C136.075 131.539 137.317 130.814 138.67 130.563C138.965 130.532 139.263 130.532 139.558 130.564C140.043 130.668 140.511 130.853 140.946 131.113C141.543 131.424 142.079 131.859 142.526 132.393C142.614 132.5 142.663 132.638 142.662 132.781C142.662 132.925 142.614 133.063 142.526 133.169C141.486 134.282 140.09 134.903 138.637 134.9C137.572 134.892 136.532 134.547 135.64 133.908" stroke="#1C186C" stroke-width="3.29925" stroke-linecap="round" stroke-linejoin="round"/>
<path d="M118.151 151.146C118.315 151.352 118.501 151.537 118.705 151.694C119.276 152.094 119.913 152.365 120.58 152.491C121.247 152.617 121.931 152.596 122.59 152.429C124.149 152.172 125.654 151.612 127.033 150.775C129.626 149.405 131.806 147.247 133.313 144.557C134.649 141.853 135.407 138.851 135.529 135.778C135.529 135.565 135.767 133.968 135.614 133.861L134.076 132.124C133.979 131.957 132.535 132.123 132.341 132.198C129.525 132.276 126.764 133.07 124.275 134.518C121.806 136.114 119.816 138.465 118.55 141.284C117.326 144.068 115.933 148.495 118.151 151.146Z" stroke="#1C186C" stroke-width="3.29925" stroke-linecap="round" stroke-linejoin="round"/>
<path d="M127.812 149.393C127.252 147.315 126.239 145.418 124.862 143.865C123.479 142.315 121.769 141.163 119.883 140.511" stroke="#1C186C" stroke-width="3.29925" stroke-linecap="round" stroke-linejoin="round"/>
<path d="M121.817 149.343C121.946 149.49 122.101 149.608 122.273 149.688C122.444 149.768 122.629 149.809 122.815 149.81C123.002 149.81 123.187 149.769 123.358 149.689C123.53 149.609 123.685 149.492 123.815 149.345C124.004 149.13 124.132 148.859 124.181 148.566C124.231 148.272 124.201 147.969 124.095 147.694C123.989 147.419 123.811 147.185 123.584 147.02C123.357 146.855 123.091 146.766 122.819 146.766C122.546 146.766 122.28 146.853 122.053 147.018C121.826 147.182 121.647 147.417 121.541 147.691C121.434 147.966 121.403 148.269 121.452 148.563C121.501 148.856 121.628 149.128 121.817 149.343Z" fill="#201D67"/>
<path d="M58.7522 211.58L72.9802 196.012C74.4947 194.354 74.4976 191.676 72.9867 190.015C71.4757 188.355 69.0332 188.352 67.5187 190.01L53.2907 205.578C51.7762 207.236 51.7733 209.914 53.2842 211.575C54.7952 213.235 57.2377 213.238 58.7522 211.58Z" stroke="#1C186C" stroke-width="3.29925" stroke-linecap="round" stroke-linejoin="round"/>
<path d="M69.9999 193.936C68.3601 195.73 67.7778 195.09 66.1242 196.885C64.4844 198.679 65.0667 199.319 63.4269 201.128C61.7871 202.923 61.191 202.283 59.5512 204.077C57.9114 205.871 58.4937 206.527 56.8539 208.321" stroke="#1C186C" stroke-width="3.29925" stroke-linecap="round" stroke-linejoin="round"/>
<path d="M63.665 213.38L74.6139 201.4C76.434 199.408 76.4375 196.197 74.6216 194.201L57.1145 213.358C58.9165 215.369 61.8587 215.372 63.665 213.38Z" stroke="#1C186C" stroke-width="3.29925" stroke-linecap="round" stroke-linejoin="round"/>
<path d="M62.6088 188.208L51.6599 200.189C49.8397 202.18 49.8363 205.392 51.6522 207.387L69.1593 188.23C67.3573 186.219 64.4151 186.216 62.6088 188.208Z" stroke="#1C186C" stroke-width="3.29925" stroke-linecap="round" stroke-linejoin="round"/>
<path d="M254.938 44.0296C257.702 41.3541 261.465 39.7297 265.614 39.7646C269.736 39.7995 273.495 41.4624 276.296 44.1743" stroke="#1C186C" stroke-width="3.29925" stroke-linecap="round" stroke-linejoin="round"/>
<path d="M275.636 37.8885C272.654 35.9069 269.228 34.777 265.592 34.7426C261.331 34.7076 257.374 36.1948 254.082 38.7785C252.749 39.8272 252.372 41.8813 253.231 43.465L254.131 45.1248L257.857 51.886C257.857 51.886 260.502 56.698 262.996 61.2359C264.201 63.4287 267.004 63.4621 268.2 61.3023L277.099 45.2712L277.975 43.6894C278.837 42.1228 278.451 40.0374 277.092 38.9706C276.634 38.5745 276.135 38.2239 275.636 37.8885Z" stroke="#1C186C" stroke-width="3.29925" stroke-linecap="round" stroke-linejoin="round"/>
<path d="M270.558 47.2017C270.89 47.3542 271.265 47.3546 271.598 47.2029C271.778 47.127 271.917 47.0207 272.056 46.8839C272.306 46.5951 272.459 46.215 272.46 45.8195C272.46 45.4088 272.322 45.0435 272.058 44.7542C271.795 44.4649 271.462 44.3124 271.088 44.312C270.713 44.3116 270.38 44.4634 270.116 44.7521C269.853 45.0409 269.713 45.421 269.713 45.8165C269.713 46.2121 269.865 46.5925 270.114 46.8818C270.239 47.0341 270.391 47.1407 270.558 47.2017Z" fill="#201D67"/>
<path d="M265.095 45.7017C265.428 45.8542 265.802 45.8546 266.135 45.7029C266.302 45.627 266.454 45.5207 266.593 45.3839C266.843 45.0951 266.996 44.715 266.997 44.3195C266.997 43.9087 266.859 43.5435 266.596 43.2542C266.332 42.9649 266 42.8124 265.625 42.812C265.25 42.8116 264.917 42.9634 264.653 43.2521C264.39 43.5409 264.251 43.9058 264.25 44.3165C264.25 44.712 264.402 45.0925 264.651 45.3818C264.776 45.5189 264.915 45.6255 265.095 45.7017Z" fill="#201D67"/>
<path d="M259.154 46.8844C259.667 47.4478 260.582 47.4488 261.096 46.8865C261.346 46.5978 261.499 46.2176 261.5 45.8221C261.5 45.4114 261.362 45.0461 261.099 44.7568C260.835 44.4675 260.502 44.315 260.128 44.3146C259.948 44.3144 259.767 44.3599 259.615 44.4358C259.448 44.5116 259.295 44.618 259.156 44.7547C258.893 45.0435 258.753 45.4084 258.753 45.8191C258.766 46.1995 258.919 46.5951 259.154 46.8844Z" fill="#201D67"/>
<path d="M261.604 52.3973C261.673 52.5951 261.77 52.7473 261.894 52.8996C262.407 53.463 263.323 53.4639 263.836 52.9016C263.961 52.7497 264.059 52.5977 264.128 52.4C264.198 52.2175 264.24 52.0198 264.24 51.8372C264.24 51.6395 264.199 51.4417 264.13 51.2743C264.06 51.0917 263.963 50.9242 263.839 50.772C263.575 50.4826 263.243 50.3302 262.868 50.3298C262.688 50.3296 262.507 50.375 262.355 50.4509C262.188 50.5268 262.036 50.6331 261.897 50.7699C261.633 51.0586 261.494 51.4236 261.493 51.8343C261.493 52.0168 261.534 52.2146 261.604 52.3973Z" fill="#201D67"/>
<path d="M267.088 52.4041C267.157 52.5867 267.254 52.7541 267.379 52.9064C267.905 53.4698 268.821 53.4708 269.321 52.9085C269.446 52.7565 269.543 52.6045 269.613 52.4068C269.682 52.2243 269.724 52.0266 269.724 51.8441C269.725 51.4333 269.586 51.0681 269.323 50.7788C269.185 50.6417 269.032 50.5351 268.866 50.4589C268.699 50.3826 268.519 50.3368 268.339 50.3366C267.964 50.3362 267.631 50.4879 267.367 50.7767C267.242 50.9287 267.145 51.0959 267.075 51.2784C266.992 51.4608 266.964 51.6586 266.964 51.8411C266.977 52.0237 267.005 52.2215 267.088 52.4041Z" fill="#201D67"/>
<path d="M266.568 56.7723C266.305 56.483 265.972 56.3305 265.597 56.3301C265.417 56.3299 265.237 56.3754 265.084 56.4513C264.918 56.5272 264.765 56.6335 264.626 56.7703C264.501 56.9222 264.404 57.0895 264.334 57.2719C264.265 57.4544 264.223 57.6521 264.223 57.8347C264.222 58.2454 264.374 58.6106 264.624 58.8999C265.012 59.3111 265.608 59.4639 266.122 59.221C266.302 59.1452 266.441 59.0388 266.58 58.902C266.83 58.6133 266.983 58.2332 266.983 57.8376C266.983 57.6399 266.942 57.4421 266.873 57.2747C266.79 57.092 266.693 56.9246 266.568 56.7723Z" fill="#201D67"/>
<path d="M198.478 20.7518C199.369 20.9699 200.296 20.9398 201.174 20.6643C202.052 20.3887 202.853 19.8765 203.504 19.1743C203.78 18.8623 203.934 18.4449 203.935 18.0103C203.935 17.5758 203.782 17.1581 203.506 16.8455L201.926 15.0477" stroke="#1C186C" stroke-width="3.29925" stroke-linecap="round" stroke-linejoin="round"/>
<path d="M188.139 9.1897C187.949 8.1998 187.987 7.17365 188.25 6.20396C188.513 5.23427 188.992 4.35161 189.644 3.63573C189.782 3.48309 189.946 3.36199 190.127 3.27942C190.309 3.19685 190.503 3.15444 190.699 3.15466C190.895 3.15487 191.089 3.19769 191.27 3.28065C191.451 3.36361 191.615 3.48506 191.753 3.63799L193.361 5.43578" stroke="#1C186C" stroke-width="3.29925" stroke-linecap="round" stroke-linejoin="round"/>
<path d="M200.839 5.07704C200.267 4.08366 199.965 2.93255 199.968 1.75797C199.969 0.965141 200.114 0.180414 200.393 -0.550817C200.673 -1.28205 201.082 -1.94527 201.596 -2.50211C201.693 -2.59827 201.82 -2.65144 201.95 -2.6513C202.081 -2.65115 202.207 -2.59771 202.304 -2.50135C202.758 -1.99677 203.12 -1.40241 203.371 -0.749808C203.6 -0.272657 203.759 0.241219 203.841 0.772779C203.873 1.09659 203.872 1.42316 203.84 1.74691C203.589 3.22662 202.9 4.57419 201.879 5.58045C202.825 4.49065 204.068 3.76581 205.421 3.51422C205.716 3.48373 206.014 3.48405 206.309 3.51518C206.794 3.61957 207.262 3.80487 207.697 4.06462C208.294 4.37608 208.83 4.81075 209.277 5.34487C209.365 5.45131 209.414 5.5897 209.413 5.73314C209.413 5.87659 209.365 6.01487 209.277 6.12113C208.237 7.23364 206.841 7.85507 205.388 7.85212C204.323 7.84342 203.283 7.49886 202.391 6.85955" stroke="#1C186C" stroke-width="3.29925" stroke-linecap="round" stroke-linejoin="round"/>
<path d="M184.902 24.0968C185.066 24.3033 185.252 24.4875 185.456 24.6453C186.027 25.0447 186.664 25.3154 187.331 25.4416C187.998 25.5677 188.682 25.5468 189.341 25.38C190.9 25.1233 192.405 24.5632 193.784 23.7259C196.377 22.356 198.557 20.1977 200.064 17.5081C201.4 14.8039 202.158 11.8019 202.28 8.72923C202.28 8.51616 202.518 6.91844 202.365 6.81175L200.827 5.07514C200.73 4.90763 199.286 5.07349 199.092 5.14937C196.276 5.22702 193.515 6.02117 191.026 7.46919C188.557 9.06449 186.567 11.4164 185.301 14.2354C184.077 17.0192 182.684 21.4463 184.902 24.0968Z" stroke="#1C186C" stroke-width="3.29925" stroke-linecap="round" stroke-linejoin="round"/>
<path d="M194.562 22.3428C194.002 20.2651 192.989 18.3679 191.612 16.8144C190.229 15.2647 188.519 14.1128 186.633 13.4605" stroke="#1C186C" stroke-width="3.29925" stroke-linecap="round" stroke-linejoin="round"/>
<path d="M188.568 22.2935C188.697 22.4409 188.852 22.5582 189.024 22.6384C189.195 22.7186 189.38 22.76 189.566 22.7602C189.753 22.7604 189.938 22.7194 190.109 22.6396C190.281 22.5597 190.436 22.4428 190.566 22.2956C190.755 22.0808 190.883 21.8098 190.932 21.5162C190.982 21.2227 190.952 20.9195 190.846 20.6446C190.74 20.3697 190.562 20.1352 190.335 19.9702C190.108 19.8052 189.842 19.7171 189.57 19.7168C189.297 19.7165 189.031 19.8041 188.804 19.9686C188.577 20.1331 188.398 20.3672 188.292 20.6419C188.185 20.9166 188.154 21.2196 188.203 21.5133C188.252 21.807 188.379 22.0783 188.568 22.2935Z" fill="#201D67"/>
<path d="M57.9355 17.9707L52.2501 0.752073L46.5277 17.9584" stroke="#1C186C" stroke-width="3.29925" stroke-linecap="round" stroke-linejoin="round"/>
<path d="M43.6624 18.7333C43.8984 18.7336 44.1065 18.7186 44.3009 18.6883C45.8278 18.416 46.0373 17.1683 47.9525 17.1704C50.1036 17.1727 50.1019 18.7402 52.2253 18.7425C54.3764 18.7448 54.3781 17.1773 56.5014 17.1796C58.4166 17.1816 58.6096 18.4146 60.1497 18.7054C60.3301 18.736 60.5522 18.7515 60.7881 18.7517" stroke="#1C186C" stroke-width="3.29925" stroke-linecap="round" stroke-linejoin="round"/>
<path d="M45.0894 21.0716C45.0903 20.2497 45.2022 19.4279 45.439 18.6823C46.7579 18.4097 46.9258 17.1618 48.5636 17.1636C50.4097 17.1655 50.408 18.7333 52.2262 18.7352C54.0723 18.7372 54.074 17.1695 55.8922 17.1714C57.5301 17.1732 57.7092 18.4063 59.0136 18.6969C59.2349 19.4429 59.3589 20.265 59.358 21.0869C59.3534 25.4096 56.1572 28.907 52.2153 28.9027C48.2734 28.8985 45.0848 25.3943 45.0894 21.0716Z" stroke="#1C186C" stroke-width="3.29925" stroke-linecap="round" stroke-linejoin="round"/>
<path d="M45.0947 16.3919L59.3633 16.4072" stroke="#1C186C" stroke-width="3.29925" stroke-linecap="round" stroke-linejoin="round"/>
<path d="M72.9521 118.956C69.1082 118.693 65.2659 116.848 62.2302 113.466C59.2223 110.115 57.5753 105.852 57.3301 101.59" stroke="#1C186C" stroke-width="3.29925" stroke-linecap="round" stroke-linejoin="round"/>
<path d="M55.747 100.598L57.4545 100.143L74.7795 95.5204C77.1117 94.8989 79.1493 97.1839 78.5636 99.7705L77.3365 105.248L77.2529 105.598L76.1791 110.36L76.0815 110.817L74.2687 118.805L73.8225 120.752C73.4042 122.624 71.7514 123.824 70.0586 123.518C65.8959 122.768 61.9845 120.663 58.8657 117.19C55.7607 113.747 53.8918 109.408 53.2167 104.796C52.9412 102.908 54.0534 101.053 55.747 100.598Z" stroke="#1C186C" stroke-width="3.29925" stroke-linecap="round" stroke-linejoin="round"/>
<path d="M66.2064 105.477C64.9799 105.476 63.9844 106.579 63.9829 107.94C63.9815 109.302 64.9746 110.407 66.2011 110.409C67.4276 110.41 68.4231 109.307 68.4245 107.945C68.426 106.583 67.4329 105.478 66.2064 105.477Z" stroke="#1C186C" stroke-width="3.29925" stroke-linecap="round" stroke-linejoin="round"/>
<path d="M74.4194 106.417C75.1837 105.565 76.2806 105.293 77.2518 105.629L75.8571 111.837C75.3298 111.7 74.8304 111.425 74.4145 110.968C73.2777 109.703 73.2799 107.664 74.4194 106.417Z" stroke="#1C186C" stroke-width="3.29925" stroke-linecap="round" stroke-linejoin="round"/>
<path d="M72.6821 97.7389C72.8894 98.6219 72.6801 99.5958 72.0687 100.28C71.1376 101.314 69.6386 101.313 68.7097 100.277C68.4047 99.9413 68.197 99.5301 68.1003 99.0886" stroke="#1C186C" stroke-width="3.29925" stroke-linecap="round" stroke-linejoin="round"/>
<path d="M125.528 62.5052L139.756 46.9364C141.27 45.2792 141.273 42.6007 139.762 40.9402C138.251 39.2797 135.809 39.2771 134.294 40.9343L120.066 56.5031C118.552 58.1604 118.549 60.8389 120.06 62.4994C121.571 64.1598 124.013 64.1625 125.528 62.5052Z" stroke="#1C186C" stroke-width="3.29925" stroke-linecap="round" stroke-linejoin="round"/>
<path d="M136.778 44.8604C135.138 46.6547 134.556 46.0148 132.902 47.8091C131.263 49.6034 131.845 50.2433 130.205 52.0528C128.565 53.8471 127.969 53.2072 126.33 55.0015C124.69 56.7958 125.272 57.4509 123.632 59.2452" stroke="#1C186C" stroke-width="3.29925" stroke-linecap="round" stroke-linejoin="round"/>
<path d="M130.44 64.3079L141.389 52.3272C143.209 50.3355 143.213 47.1243 141.397 45.1287L123.89 64.2856C125.692 66.2964 128.634 66.2996 130.44 64.3079Z" stroke="#1C186C" stroke-width="3.29925" stroke-linecap="round" stroke-linejoin="round"/>
<path d="M129.384 39.1345L118.435 51.1152C116.615 53.1069 116.612 56.3181 118.428 58.3137L135.935 39.1568C134.133 37.146 131.19 37.1428 129.384 39.1345Z" stroke="#1C186C" stroke-width="3.29925" stroke-linecap="round" stroke-linejoin="round"/>
<path d="M199.252 97.1197L213.13 97.1346C215.601 97.1373 217.597 99.3309 217.594 102.04L217.591 104.962L194.775 104.937L194.778 102.015C194.781 99.3064 196.782 97.1171 199.252 97.1197Z" stroke="#1C186C" stroke-width="3.29925" stroke-linecap="round" stroke-linejoin="round"/>
<path d="M195.481 109.624L216.881 109.647C218.061 109.648 219.02 108.599 219.021 107.305C219.022 106.012 218.066 104.961 216.886 104.959L195.486 104.936C194.307 104.935 193.348 105.984 193.346 107.278C193.345 108.571 194.302 109.623 195.481 109.624Z" stroke="#1C186C" stroke-width="3.29925" stroke-linecap="round" stroke-linejoin="round"/>
<path d="M205.429 122.141L206.9 122.143C212.798 122.149 217.578 116.919 217.585 110.451L217.586 109.644L194.77 109.62L194.769 110.426C194.762 116.894 199.531 122.135 205.429 122.141Z" stroke="#1C186C" stroke-width="3.29925" stroke-linecap="round" stroke-linejoin="round"/>
<path d="M217.747 104.575C217.207 103.935 216.819 103.068 215.806 103.067C214.793 103.066 214.403 103.932 213.862 104.571" stroke="#1C186C" stroke-width="3.29925" stroke-linecap="round" stroke-linejoin="round"/>
<path d="M204.716 104.562C204.175 103.922 203.788 103.054 202.775 103.053C201.748 103.052 201.358 103.919 200.816 104.557" stroke="#1C186C" stroke-width="3.29925" stroke-linecap="round" stroke-linejoin="round"/>
<path d="M196.235 103.061C197.248 103.062 197.635 103.93 198.176 104.569" stroke="#1C186C" stroke-width="3.29925" stroke-linecap="round" stroke-linejoin="round"/>
<path d="M211.224 104.568C210.683 103.929 210.296 103.061 209.283 103.06C208.27 103.059 207.88 103.926 207.338 104.564" stroke="#1C186C" stroke-width="3.29925" stroke-linecap="round" stroke-linejoin="round"/>
</g>
</g>
</svg>
